<svg width="320" height="340" viewBox="0 0 320 340" fill="none" xmlns="http://www.w3.org/2000/svg">
<defs><filter id="shadow">
    <feDropShadow dx="0" dy="0" stdDeviation="1" flood-color="white" />
</filter></defs>
<path d="M172.642 172.508L172.095 170.584L174.018 170.037L174.566 171.961L172.642 172.508ZM171.547 168.661L171 166.737L172.924 166.19L173.471 168.113L171.547 168.661ZM176.49 171.413L175.942 169.489L177.866 168.942L178.413 170.866L176.49 171.413ZM175.395 167.566L174.847 165.642L176.771 165.095L177.318 167.018L175.395 167.566ZM180.337 170.318L179.789 168.395L181.713 167.847L182.26 169.771L180.337 170.318ZM179.242 166.471L178.694 164.547L180.618 164L181.166 165.924L179.242 166.471Z" fill="black"/>
<path d="M178.204 184.025L178.192 182.025L180.192 182.012L180.204 184.012L178.204 184.025ZM178.179 180.024L178.166 178.024L180.166 178.012L180.179 180.012L178.179 180.024ZM182.205 183.999L182.191 181.999L184.192 181.986L184.205 183.986L182.205 183.999ZM182.179 179.999L182.166 177.998L184.166 177.986L184.179 179.987L182.179 179.999ZM186.204 183.974L186.192 181.974L188.191 181.96L188.205 183.96L186.204 183.974ZM186.179 179.973L186.166 177.973L188.166 177.96L188.179 179.961L186.179 179.973Z" fill="black"/>
<path d="M171 193.871L172.168 192.247L173.792 193.415L172.624 195.039L171 193.871ZM173.336 190.624L174.504 189L176.128 190.168L174.96 191.792L173.336 190.624ZM174.247 196.207L175.415 194.583L177.039 195.751L175.871 197.375L174.247 196.207ZM176.583 192.96L177.751 191.336L179.375 192.504L178.207 194.128L176.583 192.96ZM177.494 198.543L178.662 196.919L180.286 198.087L179.118 199.711L177.494 198.543ZM179.83 195.296L180.998 193.672L182.622 194.84L181.454 196.464L179.83 195.296Z" fill="black"/>
<path d="M166.422 207.888L164.445 208.186L164.147 206.209L166.125 205.911L166.422 207.888ZM162.467 208.484L160.489 208.782L160.192 206.804L162.169 206.506L162.467 208.484ZM165.827 203.933L163.849 204.231L163.551 202.253L165.529 201.955L165.827 203.933ZM161.871 204.529L159.894 204.827L159.596 202.849L161.573 202.551L161.871 204.529ZM165.231 199.978L163.253 200.275L162.955 198.298L164.933 198L165.231 199.978ZM161.276 200.573L159.298 200.871L159 198.894L160.978 198.596L161.276 200.573Z" fill="black"/>
<path d="M148.129 204.662L146.42 203.624L147.457 201.915L149.167 202.953L148.129 204.662ZM144.71 202.587L143 201.549L144.038 199.839L145.748 200.877L144.71 202.587ZM150.205 201.243L148.495 200.205L149.533 198.495L151.243 199.533L150.205 201.243ZM146.786 199.167L145.076 198.129L146.114 196.42L147.823 197.458L146.786 199.167ZM152.281 197.824L150.571 196.786L151.609 195.076L153.318 196.114L152.281 197.824ZM148.861 195.748L147.152 194.71L148.189 193L149.899 194.038L148.861 195.748Z" fill="black"/>
<path d="M135.548 192.662L134.707 190.848L136.521 190.008L137.362 191.822L135.548 192.662ZM133.866 189.033L133.025 187.219L134.839 186.378L135.68 188.193L133.866 189.033ZM139.177 190.981L138.336 189.167L140.151 188.326L140.992 190.14L139.177 190.981ZM137.495 187.352L136.654 185.537L138.469 184.697L139.31 186.511L137.495 187.352ZM142.806 189.299L141.965 187.485L143.78 186.644L144.621 188.458L142.806 189.299ZM141.124 185.67L140.283 183.856L142.098 183.015L142.939 184.829L141.124 185.67Z" fill="black"/>
<path d="M134.713 174.36L135.06 172.39L137.029 172.736L136.683 174.706L134.713 174.36ZM135.405 170.42L135.751 168.45L137.721 168.796L137.375 170.766L135.405 170.42ZM138.653 175.051L138.999 173.081L140.969 173.428L140.623 175.398L138.653 175.051ZM139.345 171.111L139.691 169.142L141.661 169.488L141.315 171.458L139.345 171.111ZM142.593 175.744L142.939 173.774L144.909 174.119L144.563 176.089L142.593 175.744ZM143.284 171.804L143.631 169.834L145.601 170.18L145.254 172.149L143.284 171.804Z" fill="black"/>
<path d="M152.968 156.266L151.952 157.989L150.229 156.973L151.245 155.25L152.968 156.266ZM150.935 159.711L149.919 161.434L148.197 160.418L149.213 158.695L150.935 159.711ZM149.523 154.234L148.507 155.956L146.784 154.939L147.8 153.217L149.523 154.234ZM147.49 157.679L146.474 159.4L144.752 158.384L145.768 156.662L147.49 157.679ZM146.078 152.2L145.062 153.923L143.339 152.906L144.356 151.184L146.078 152.2ZM144.045 155.645L143.029 157.368L141.307 156.351L142.323 154.629L144.045 155.645Z" fill="black"/>
<path d="M166.171 148.807L164.443 149.815L163.435 148.087L165.163 147.079L166.171 148.807ZM162.716 150.822L160.988 151.83L159.98 150.103L161.708 149.095L162.716 150.822ZM164.155 145.352L162.427 146.36L161.42 144.632L163.148 143.625L164.155 145.352ZM160.7 147.367L158.973 148.375L157.965 146.648L159.692 145.64L160.7 147.367ZM162.14 141.897L160.413 142.905L159.405 141.177L161.132 140.17L162.14 141.897ZM158.684 143.913L156.957 144.919L155.949 143.192L157.677 142.184L158.684 143.913Z" fill="black"/>
<path d="M179.929 145.954L177.938 146.145L177.747 144.155L179.738 143.963L179.929 145.954ZM175.948 146.337L173.957 146.528L173.765 144.537L175.756 144.346L175.948 146.337ZM179.547 141.972L177.556 142.164L177.364 140.173L179.355 139.982L179.547 141.972ZM175.565 142.355L173.574 142.546L173.383 140.556L175.374 140.364L175.565 142.355ZM179.164 137.991L177.173 138.182L176.982 136.191L178.972 136L179.164 137.991ZM175.182 138.373L173.191 138.565L173 136.574L174.991 136.383L175.182 138.373Z" fill="black"/>
<path d="M194.599 147.489L192.732 146.769L193.452 144.903L195.318 145.622L194.599 147.489ZM190.866 146.05L189 145.331L189.719 143.465L191.585 144.184L190.866 146.05ZM196.037 143.756L194.171 143.037L194.89 141.171L196.756 141.89L196.037 143.756ZM192.305 142.318L190.438 141.599L191.158 139.732L193.024 140.452L192.305 142.318ZM197.475 140.024L195.609 139.305L196.328 137.438L198.195 138.158L197.475 140.024ZM193.743 138.585L191.877 137.866L192.596 136L194.462 136.719L193.743 138.585Z" fill="black"/>
<path d="M205.048 157.175L203.698 155.699L205.175 154.349L206.524 155.826L205.048 157.175ZM202.349 154.222L201 152.746L202.476 151.397L203.826 152.873L202.349 154.222ZM208 154.477L206.651 153L208.127 151.651L209.477 153.127L208 154.477ZM205.302 151.524L203.953 150.048L205.429 148.698L206.778 150.175L205.302 151.524ZM210.953 151.778L209.604 150.302L211.08 148.953L212.429 150.429L210.953 151.778ZM208.255 148.825L206.905 147.349L208.382 146L209.731 147.476L208.255 148.825Z" fill="black"/>
<path d="M212.703 170.592L212.135 168.674L214.053 168.106L214.621 170.024L212.703 170.592ZM211.567 166.756L211 164.839L212.917 164.271L213.485 166.189L211.567 166.756ZM216.538 169.456L215.971 167.538L217.888 166.971L218.456 168.888L216.538 169.456ZM215.403 165.621L214.835 163.703L216.753 163.135L217.321 165.053L215.403 165.621ZM220.374 168.32L219.806 166.403L221.724 165.835L222.292 167.753L220.374 168.32ZM219.238 164.485L218.67 162.567L220.588 162L221.156 163.917L219.238 164.485Z" fill="black"/>
<path d="M223.838 181.185L223.595 183.171L221.61 182.929L221.852 180.943L223.838 181.185ZM223.353 185.156L223.11 187.141L221.125 186.9L221.368 184.914L223.353 185.156ZM219.867 180.701L219.624 182.686L217.639 182.444L217.882 180.459L219.867 180.701ZM219.382 184.671L219.14 186.657L217.155 186.415L217.397 184.43L219.382 184.671ZM215.896 180.216L215.654 182.201L213.669 181.96L213.911 179.974L215.896 180.216ZM215.412 184.187L215.17 186.172L213.185 185.93L213.426 183.945L215.412 184.187Z" fill="black"/>
<path d="M208.631 201.617L209.377 199.761L211.233 200.508L210.486 202.364L208.631 201.617ZM210.124 197.906L210.871 196.051L212.726 196.798L211.979 198.653L210.124 197.906ZM212.341 203.111L213.088 201.256L214.944 202.002L214.196 203.858L212.341 203.111ZM213.834 199.4L214.582 197.545L216.437 198.291L215.69 200.147L213.834 199.4ZM216.052 204.604L216.799 202.749L218.654 203.496L217.907 205.351L216.052 204.604ZM217.545 200.894L218.292 199.039L220.147 199.786L219.4 201.641L217.545 200.894Z" fill="black"/>
<path d="M209.859 219.805L208.467 221.24L207.031 219.848L208.424 218.412L209.859 219.805ZM207.074 222.676L205.681 224.111L204.245 222.718L205.638 221.283L207.074 222.676ZM206.989 217.019L205.596 218.455L204.161 217.062L205.553 215.627L206.989 217.019ZM204.203 219.891L202.811 221.325L201.375 219.933L202.768 218.498L204.203 219.891ZM204.118 214.234L202.725 215.669L201.29 214.277L202.683 212.841L204.118 214.234ZM201.332 217.105L199.939 218.54L198.505 217.147L199.897 215.712L201.332 217.105Z" fill="black"/>
<path d="M194.331 233.536L192.624 234.578L191.582 232.87L193.289 231.829L194.331 233.536ZM190.917 235.619L189.209 236.661L188.167 234.954L189.875 233.912L190.917 235.619ZM192.247 230.121L190.54 231.163L189.498 229.456L191.206 228.414L192.247 230.121ZM188.833 232.205L187.126 233.247L186.084 231.54L187.791 230.498L188.833 232.205ZM190.164 226.707L188.457 227.749L187.415 226.041L189.122 225L190.164 226.707ZM186.749 228.791L185.042 229.832L184 228.125L185.707 227.083L186.749 228.791Z" fill="black"/>
<path d="M175.543 242.867L173.57 243.192L173.245 241.218L175.219 240.894L175.543 242.867ZM171.596 243.517L169.623 243.841L169.298 241.868L171.272 241.543L171.596 243.517ZM174.894 238.92L172.921 239.245L172.596 237.271L174.57 236.947L174.894 238.92ZM170.947 239.57L168.974 239.894L168.649 237.921L170.623 237.596L170.947 239.57ZM174.245 234.973L172.272 235.298L171.947 233.324L173.92 233L174.245 234.973ZM170.298 235.623L168.325 235.947L168 233.974L169.973 233.649L170.298 235.623Z" fill="black"/>
<path d="M154.918 243.852L152.945 243.523L153.275 241.55L155.248 241.88L154.918 243.852ZM150.973 243.193L149 242.863L149.33 240.891L151.302 241.22L150.973 243.193ZM155.577 239.907L153.605 239.577L153.935 237.605L155.907 237.935L155.577 239.907ZM151.632 239.248L149.66 238.918L149.989 236.945L151.962 237.275L151.632 239.248ZM156.237 235.962L154.264 235.632L154.594 233.66L156.567 233.989L156.237 235.962ZM152.292 235.302L150.319 234.973L150.649 233L152.621 233.33L152.292 235.302Z" fill="black"/>
<path d="M133.305 237.645L131.537 236.711L132.471 234.942L134.24 235.876L133.305 237.645ZM129.768 235.776L128 234.842L128.934 233.074L130.703 234.008L129.768 235.776ZM135.174 234.108L133.405 233.174L134.339 231.405L136.108 232.339L135.174 234.108ZM131.637 232.239L129.868 231.305L130.802 229.537L132.571 230.471L131.637 232.239ZM137.042 230.571L135.273 229.637L136.207 227.868L137.976 228.802L137.042 230.571ZM133.505 228.703L131.736 227.768L132.671 226L134.439 226.934L133.505 228.703Z" fill="black"/>
<path d="M115.735 226.474L114.325 225.056L115.742 223.646L117.153 225.064L115.735 226.474ZM112.914 223.638L111.504 222.22L112.921 220.81L114.332 222.228L112.914 223.638ZM118.571 223.653L117.16 222.235L118.578 220.825L119.989 222.243L118.571 223.653ZM115.75 220.817L114.339 219.399L115.757 217.989L117.168 219.407L115.75 220.817ZM121.407 220.832L119.996 219.414L121.414 218.004L122.825 219.422L121.407 220.832ZM118.586 217.996L117.175 216.578L118.593 215.168L120.004 216.586L118.586 217.996Z" fill="black"/>
<path d="M103.399 210.065L102.526 208.265L104.326 207.392L105.199 209.191L103.399 210.065ZM101.654 206.466L100.78 204.666L102.58 203.793L103.453 205.592L101.654 206.466ZM106.998 208.318L106.125 206.519L107.924 205.646L108.798 207.445L106.998 208.318ZM105.252 204.719L104.379 202.921L106.179 202.047L107.051 203.847L105.252 204.719ZM110.597 206.573L109.724 204.773L111.524 203.9L112.397 205.699L110.597 206.573ZM108.851 202.973L107.978 201.174L109.777 200.301L110.65 202.1L108.851 202.973Z" fill="black"/>
<path d="M96.5139 190.153L96.2943 188.166L98.2817 187.946L98.501 189.934L96.5139 190.153ZM96.075 186.177L95.8553 184.19L97.8437 183.971L98.0624 185.958L96.075 186.177ZM100.489 189.715L100.27 187.727L102.258 187.507L102.477 189.495L100.489 189.715ZM100.051 185.738L99.8311 183.751L101.819 183.532L102.039 185.52L100.051 185.738ZM104.465 189.276L104.246 187.288L106.234 187.069L106.453 189.057L104.465 189.276ZM104.026 185.3L103.808 183.312L105.795 183.093L106.014 185.081L104.026 185.3Z" fill="black"/>
<path d="M108.13 163.816L107.774 165.785L105.805 165.428L106.162 163.461L108.13 163.816ZM107.417 167.752L107.062 169.721L105.093 169.364L105.45 167.397L107.417 167.752ZM104.193 163.104L103.838 165.073L101.869 164.716L102.226 162.748L104.193 163.104ZM103.481 167.04L103.126 169.009L101.157 168.652L101.514 166.685L103.481 167.04ZM100.257 162.392L99.9018 164.36L97.9334 164.004L98.2898 162.036L100.257 162.392ZM99.5454 166.328L99.1897 168.296L97.2214 167.94L97.5778 165.972L99.5454 166.328Z" fill="black"/>
<path d="M114.123 145.764L113.23 147.554L111.44 146.661L112.333 144.871L114.123 145.764ZM112.336 149.343L111.443 151.133L109.654 150.239L110.547 148.449L112.336 149.343ZM110.545 143.978L109.651 145.767L107.861 144.874L108.755 143.085L110.545 143.978ZM108.758 147.557L107.864 149.346L106.075 148.452L106.968 146.664L108.758 147.557ZM106.966 142.191L106.072 143.98L104.282 143.087L105.176 141.298L106.966 142.191ZM105.179 145.77L104.285 147.559L102.497 146.665L103.389 144.877L105.179 145.77Z" fill="black"/>
<path d="M124.542 130.196L123.159 131.64L121.714 130.258L123.097 128.814L124.542 130.196ZM121.776 133.086L120.393 134.531L118.948 133.147L120.332 131.703L121.776 133.086ZM121.652 127.43L120.269 128.875L118.825 127.493L120.207 126.048L121.652 127.43ZM118.886 130.321L117.504 131.765L116.058 130.382L117.441 128.937L118.886 130.321ZM118.762 124.665L117.379 126.109L115.934 124.727L117.317 123.281L118.762 124.665ZM115.997 127.555L114.613 129L113.169 127.616L114.551 126.172L115.997 127.555Z" fill="black"/>
<path d="M139.357 117.987L137.75 119.178L136.559 117.571L138.167 116.38L139.357 117.987ZM136.142 120.368L134.535 121.558L133.345 119.951L134.953 118.76L136.142 120.368ZM136.977 114.772L135.369 115.963L134.179 114.356L135.786 113.165L136.977 114.772ZM133.762 117.153L132.154 118.343L130.965 116.736L132.572 115.545L133.762 117.153ZM134.597 111.558L132.989 112.748L131.8 111.141L133.407 109.951L134.597 111.558ZM131.382 113.939L129.774 115.128L128.585 113.521L130.192 112.331L131.382 113.939Z" fill="black"/>
<path d="M157.734 110.535L155.827 111.138L155.224 109.231L157.131 108.628L157.734 110.535ZM153.92 111.74L152.013 112.343L151.41 110.436L153.317 109.833L153.92 111.74ZM156.529 106.721L154.622 107.324L154.019 105.417L155.926 104.814L156.529 106.721ZM152.715 107.926L150.808 108.529L150.205 106.622L152.112 106.019L152.715 107.926ZM155.324 102.907L153.417 103.51L152.814 101.603L154.721 101L155.324 102.907ZM151.51 104.112L149.603 104.715L149 102.808L150.907 102.205L151.51 104.112Z" fill="black"/>
<path d="M176.675 107.976L174.68 108.114L174.542 106.119L176.537 105.981L176.675 107.976ZM172.685 108.252L170.689 108.39L170.551 106.395L172.547 106.257L172.685 108.252ZM176.399 103.986L174.404 104.124L174.266 102.128L176.261 101.99L176.399 103.986ZM172.409 104.261L170.414 104.399L170.276 102.404L172.271 102.266L172.409 104.261ZM176.124 99.9952L174.128 100.133L173.99 98.1378L175.986 98L176.124 99.9952ZM172.133 100.271L170.138 100.409L170 98.4136L171.995 98.2757L172.133 100.271Z" fill="black"/>
<path d="M194.901 108.92L192.934 108.558L193.296 106.591L195.263 106.953L194.901 108.92ZM190.967 108.197L189 107.835L189.362 105.868L191.329 106.23L190.967 108.197ZM195.624 104.986L193.657 104.624L194.019 102.657L195.986 103.019L195.624 104.986ZM191.69 104.263L189.723 103.901L190.085 101.934L192.052 102.296L191.69 104.263ZM196.348 101.052L194.381 100.69L194.742 98.7233L196.709 99.0849L196.348 101.052ZM192.414 100.329L190.447 99.967L190.808 98L192.775 98.3616L192.414 100.329Z" fill="black"/>
<path d="M212.454 115.591L210.636 114.757L211.47 112.939L213.288 113.773L212.454 115.591ZM208.818 113.924L207 113.09L207.834 111.272L209.652 112.106L208.818 113.924ZM214.121 111.955L212.303 111.121L213.137 109.303L214.955 110.137L214.121 111.955ZM210.485 110.288L208.667 109.454L209.5 107.636L211.318 108.47L210.485 110.288ZM215.788 108.318L213.97 107.485L214.803 105.667L216.622 106.5L215.788 108.318ZM212.152 106.652L210.334 105.818L211.167 104L212.985 104.833L212.152 106.652Z" fill="black"/>
<path d="M227.725 125.573L226.15 124.34L227.383 122.765L228.958 123.998L227.725 125.573ZM224.575 123.108L223 121.875L224.233 120.3L225.808 121.533L224.575 123.108ZM230.19 122.423L228.615 121.19L229.848 119.615L231.423 120.848L230.19 122.423ZM227.04 119.958L225.465 118.725L226.698 117.15L228.273 118.383L227.04 119.958ZM232.655 119.273L231.08 118.04L232.313 116.465L233.888 117.698L232.655 119.273ZM229.505 116.808L227.93 115.575L229.163 114L230.738 115.233L229.505 116.808Z" fill="black"/>
<path d="M240.021 139.704L238.916 138.037L240.584 136.932L241.688 138.599L240.021 139.704ZM237.812 136.369L236.707 134.702L238.375 133.597L239.48 135.264L237.812 136.369ZM243.356 137.495L242.251 135.828L243.918 134.723L245.023 136.39L243.356 137.495ZM241.147 134.161L240.042 132.493L241.71 131.388L242.814 133.056L241.147 134.161ZM246.691 135.286L245.586 133.618L247.253 132.514L248.358 134.181L246.691 135.286ZM244.482 131.951L243.377 130.283L245.044 129.179L246.148 130.847L244.482 131.951Z" fill="black"/>
<path d="M247.804 156.554L247.268 154.627L249.195 154.091L249.73 156.018L247.804 156.554ZM246.732 152.7L246.196 150.773L248.122 150.237L248.659 152.164L246.732 152.7ZM251.658 155.482L251.121 153.555L253.048 153.018L253.584 154.946L251.658 155.482ZM250.585 151.628L250.05 149.701L251.976 149.166L252.513 151.092L250.585 151.628ZM255.511 154.41L254.975 152.483L256.902 151.947L257.438 153.874L255.511 154.41ZM254.439 150.556L253.904 148.629L255.83 148.093L256.366 150.02L254.439 150.556Z" fill="black"/>
<path d="M250.489 175.91L250.478 173.91L252.479 173.899L252.49 175.899L250.489 175.91ZM250.467 171.91L250.456 169.91L252.456 169.899L252.468 171.899L250.467 171.91ZM254.49 175.887L254.478 173.888L256.478 173.877L256.489 175.876L254.49 175.887ZM254.467 171.888L254.456 169.887L256.456 169.877L256.467 171.877L254.467 171.888ZM258.49 175.865L258.479 173.865L260.478 173.854L260.49 175.854L258.49 175.865ZM258.467 171.866L258.456 169.865L260.456 169.854L260.467 171.855L258.467 171.866Z" fill="black"/>
<path d="M249.523 195.492L249.878 193.523L251.846 193.878L251.492 195.846L249.523 195.492ZM250.232 191.555L250.587 189.587L252.555 189.942L252.2 191.909L250.232 191.555ZM253.46 196.201L253.814 194.233L255.782 194.586L255.428 196.555L253.46 196.201ZM254.169 192.264L254.523 190.296L256.492 190.651L256.137 192.618L254.169 192.264ZM257.397 196.91L257.751 194.941L259.719 195.295L259.364 197.264L257.397 196.91ZM258.106 192.973L258.46 191.004L260.428 191.359L260.073 193.327L258.106 192.973Z" fill="black"/>
<path d="M243.295 214.134L243.976 212.254L245.856 212.934L245.176 214.815L243.295 214.134ZM244.656 210.372L245.336 208.492L247.217 209.172L246.536 211.053L244.656 210.372ZM247.057 215.495L247.737 213.614L249.618 214.294L248.938 216.175L247.057 215.495ZM248.417 211.734L249.097 209.853L250.978 210.533L250.298 212.414L248.417 211.734ZM250.818 216.855L251.498 214.974L253.379 215.656L252.698 217.536L250.818 216.855ZM252.178 213.094L252.86 211.214L254.74 211.894L254.06 213.774L252.178 213.094Z" fill="black"/>
<path d="M245.388 233.185L244.209 234.8L242.593 233.621L243.773 232.006L245.388 233.185ZM243.03 236.416L241.851 238.031L240.235 236.853L241.415 235.236L243.03 236.416ZM242.157 230.826L240.978 232.442L239.363 231.262L240.542 229.647L242.157 230.826ZM239.799 234.057L238.62 235.673L237.005 234.494L238.183 232.879L239.799 234.057ZM238.927 228.469L237.747 230.084L236.132 228.905L237.311 227.289L238.927 228.469ZM236.568 231.699L235.39 233.315L233.773 232.135L234.953 230.52L236.568 231.699Z" fill="black"/>
<path d="M234.109 251.509L232.607 252.83L231.287 251.328L232.789 250.007L234.109 251.509ZM231.106 254.151L229.604 255.471L228.283 253.97L229.785 252.649L231.106 254.151ZM231.468 248.505L229.966 249.826L228.645 248.324L230.147 247.004L231.468 248.505ZM228.464 251.147L226.962 252.468L225.641 250.966L227.143 249.645L228.464 251.147ZM228.826 245.502L227.324 246.823L226.004 245.321L227.505 244L228.826 245.502ZM225.822 248.143L224.321 249.464L223 247.962L224.502 246.641L225.822 248.143Z" fill="black"/>
<path d="M215.721 264.653L214.054 265.758L212.949 264.09L214.617 262.985L215.721 264.653ZM212.387 266.862L210.72 267.967L209.615 266.3L211.282 265.195L212.387 266.862ZM213.511 261.318L211.844 262.423L210.739 260.756L212.406 259.651L213.511 261.318ZM210.177 263.528L208.51 264.633L207.406 262.966L209.072 261.861L210.177 263.528ZM211.301 257.984L209.634 259.089L208.53 257.422L210.196 256.317L211.301 257.984ZM207.968 260.194L206.301 261.299L205.196 259.632L206.863 258.527L207.968 260.194Z" fill="black"/>
<path d="M196.837 276.494L194.938 277.122L194.31 275.223L196.209 274.595L196.837 276.494ZM193.039 277.75L191.14 278.378L190.512 276.479L192.411 275.851L193.039 277.75ZM195.581 272.697L193.682 273.325L193.054 271.426L194.953 270.798L195.581 272.697ZM191.783 273.953L189.884 274.581L189.256 272.682L191.155 272.054L191.783 273.953ZM194.325 268.899L192.426 269.527L191.798 267.628L193.697 267L194.325 268.899ZM190.527 270.155L188.628 270.783L188 268.884L189.899 268.256L190.527 270.155Z" fill="black"/>
<path d="M174.669 281.977L172.673 282.113L172.537 280.118L174.532 279.981L174.669 281.977ZM170.678 282.25L168.683 282.386L168.546 280.391L170.541 280.254L170.678 282.25ZM174.396 277.986L172.4 278.123L172.264 276.127L174.259 275.991L174.396 277.986ZM170.405 278.259L168.41 278.396L168.273 276.4L170.268 276.264L170.405 278.259ZM174.123 273.995L172.127 274.132L171.991 272.137L173.986 272L174.123 273.995ZM170.132 274.268L168.137 274.405L168 272.41L169.995 272.273L170.132 274.268Z" fill="black"/>
<path d="M151.298 282.359L149.317 282.089L149.586 280.107L151.568 280.377L151.298 282.359ZM147.335 281.819L145.353 281.55L145.623 279.568L147.605 279.838L147.335 281.819ZM151.838 278.395L149.856 278.126L150.126 276.144L152.107 276.414L151.838 278.395ZM147.874 277.856L145.893 277.586L146.162 275.605L148.144 275.874L147.874 277.856ZM152.377 274.432L150.395 274.162L150.665 272.181L152.647 272.45L152.377 274.432ZM148.414 273.893L146.432 273.623L146.702 271.641L148.683 271.911L148.414 273.893Z" fill="black"/>
<path d="M128.979 278.494L127.089 277.841L127.742 275.951L129.632 276.604L128.979 278.494ZM125.198 277.187L123.308 276.534L123.961 274.644L125.852 275.297L125.198 277.187ZM130.286 274.714L128.395 274.06L129.049 272.17L130.939 272.823L130.286 274.714ZM126.505 273.407L124.615 272.754L125.268 270.863L127.158 271.517L126.505 273.407ZM131.592 270.933L129.702 270.28L130.355 268.389L132.246 269.043L131.592 270.933ZM127.812 269.626L125.921 268.973L126.575 267.083L128.465 267.736L127.812 269.626Z" fill="black"/>
<path d="M109.096 269.66L107.398 268.605L108.453 266.906L110.152 267.962L109.096 269.66ZM105.699 267.549L104 266.494L105.056 264.795L106.754 265.851L105.699 267.549ZM111.207 266.263L109.509 265.207L110.564 263.509L112.263 264.564L111.207 266.263ZM107.81 264.152L106.111 263.096L107.167 261.398L108.865 262.453L107.81 264.152ZM113.319 262.865L111.62 261.81L112.675 260.111L114.374 261.167L113.319 262.865ZM109.921 260.754L108.222 259.699L109.278 258L110.977 259.056L109.921 260.754Z" fill="black"/>
<path d="M91.23 255.306L89.82 253.887L91.238 252.477L92.648 253.896L91.23 255.306ZM88.41 252.469L87 251.05L88.418 249.64L89.828 251.059L88.41 252.469ZM94.067 252.486L92.657 251.067L94.075 249.657L95.485 251.076L94.067 252.486ZM91.247 249.649L89.837 248.23L91.255 246.82L92.665 248.239L91.247 249.649ZM96.904 249.666L95.494 248.247L96.912 246.837L98.322 248.256L96.904 249.666ZM94.084 246.829L92.674 245.41L94.092 244L95.502 245.419L94.084 246.829Z" fill="black"/>
<path d="M76.6443 238.84L75.4296 237.252L77.0184 236.037L78.2332 237.626L76.6443 238.84ZM74.2148 235.663L73 234.074L74.5888 232.859L75.8036 234.448L74.2148 235.663ZM79.822 236.411L78.6072 234.822L80.196 233.607L81.411 235.196L79.822 236.411ZM77.3924 233.233L76.1776 231.644L77.7664 230.43L78.9812 232.019L77.3924 233.233ZM83 233.981L81.785 232.393L83.374 231.178L84.588 232.767L83 233.981ZM80.57 230.804L79.3552 229.215L80.944 228L82.159 229.589L80.57 230.804Z" fill="black"/>
<path d="M65.2539 219.361L64.5276 217.498L66.391 216.772L67.1173 218.636L65.2539 219.361ZM63.8013 215.634L63.0751 213.771L64.9384 213.045L65.6647 214.909L63.8013 215.634ZM68.9807 217.909L68.2545 216.046L70.1181 215.319L70.8443 217.182L68.9807 217.909ZM67.5282 214.182L66.802 212.319L68.6655 211.592L69.3918 213.456L67.5282 214.182ZM72.7077 216.457L71.9814 214.593L73.8449 213.867L74.5712 215.73L72.7077 216.457ZM71.2553 212.729L70.529 210.866L72.3924 210.14L73.1186 212.003L71.2553 212.729Z" fill="black"/>
<path d="M57.9128 197.502L57.6396 195.52L59.6208 195.247L59.894 197.228L57.9128 197.502ZM57.3665 193.539L57.0932 191.558L59.0744 191.285L59.3477 193.266L57.3665 193.539ZM61.8753 196.955L61.6022 194.974L63.5833 194.701L63.8565 196.682L61.8753 196.955ZM61.3289 192.993L61.0558 191.011L63.037 190.738L63.3101 192.72L61.3289 192.993ZM65.8378 196.408L65.5646 194.428L67.5458 194.155L67.819 196.136L65.8378 196.408ZM65.2915 192.446L65.0182 190.465L66.9995 190.191L67.2727 192.173L65.2915 192.446Z" fill="black"/>
<path d="M56.7856 174.597L56.9678 172.605L58.9595 172.786L58.7773 174.778L56.7856 174.597ZM57.1499 170.613L57.3321 168.621L59.3238 168.804L59.1417 170.794L57.1499 170.613ZM60.769 174.961L60.9511 172.969L62.9429 173.151L62.7607 175.142L60.769 174.961ZM61.1333 170.977L61.3156 168.985L63.3072 169.168L63.125 171.159L61.1333 170.977ZM64.7523 175.325L64.9346 173.333L66.9262 173.515L66.7441 175.507L64.7523 175.325ZM65.1168 171.341L65.2988 169.35L67.2906 169.532L67.1084 171.523L65.1168 171.341Z" fill="black"/>
<path d="M60.3821 152.431L60.9011 150.499L62.8326 151.019L62.3136 152.95L60.3821 152.431ZM61.4201 148.568L61.9391 146.637L63.8706 147.156L63.3517 149.087L61.4201 148.568ZM64.2451 153.469L64.7641 151.538L66.6955 152.057L66.1766 153.988L64.2451 153.469ZM65.2831 149.606L65.8021 147.675L67.7336 148.194L67.2146 150.126L65.2831 149.606ZM68.1081 154.507L68.6271 152.576L70.5586 153.095L70.0395 155.026L68.1081 154.507ZM69.1461 150.645L69.665 148.712L71.5966 149.232L71.0775 151.163L69.1461 150.645Z" fill="black"/>
<path d="M79.5767 131.073L78.7617 132.899L76.9357 132.085L77.7497 130.258L79.5767 131.073ZM77.9477 134.726L77.1327 136.552L75.3067 135.738L76.1207 133.911L77.9477 134.726ZM75.9237 129.443L75.1087 131.27L73.2824 130.455L74.0967 128.629L75.9237 129.443ZM74.2947 133.097L73.4797 134.923L71.6531 134.109L72.4678 132.282L74.2947 133.097ZM72.2705 127.814L71.4558 129.641L69.6293 128.826L70.4439 127L72.2705 127.814ZM70.6412 131.467L69.8266 133.294L68 132.479L68.8146 130.653L70.6412 131.467Z" fill="black"/>
<path d="M90.4557 111.692L89.2242 113.267L87.6485 112.035L88.8812 110.459L90.4557 111.692ZM87.9915 114.842L86.7588 116.418L85.1834 115.185L86.416 113.609L87.9915 114.842ZM87.3058 109.227L86.0731 110.802L84.4986 109.57L85.7303 107.994L87.3058 109.227ZM84.8414 112.378L83.6089 113.952L82.0332 112.721L83.2659 111.145L84.8414 112.378ZM84.1556 106.763L82.9232 108.337L81.3475 107.105L82.5802 105.53L84.1556 106.763ZM81.6905 109.912L80.4578 111.488L78.8833 110.255L80.115 108.68L81.6905 109.912Z" fill="black"/>
<path d="M105.286 97.138L103.859 98.539L102.458 97.111L103.885 95.711L105.286 97.138ZM102.431 99.94L101.003 101.34L99.603 99.913L101.03 98.512L102.431 99.94ZM102.485 94.283L101.057 95.684L99.656 94.256L101.084 92.856L102.485 94.283ZM99.63 97.085L98.202 98.485L96.801 97.058L98.229 95.657L99.63 97.085ZM99.683 91.428L98.256 92.829L96.855 91.401L98.283 90L99.683 91.428ZM96.828 94.229L95.401 95.63L94 94.202L95.427 92.802L96.828 94.229Z" fill="black"/>
<path d="M122.596 85.2568L120.944 86.3851L119.816 84.7337L121.467 83.6054L122.596 85.2568ZM119.293 87.5134L117.642 88.6417L116.513 86.9904L118.165 85.862L119.293 87.5134ZM120.339 81.9541L118.688 83.0824L117.559 81.4311L119.211 80.3028L120.339 81.9541ZM117.036 84.2107L115.385 85.339L114.257 83.6877L115.908 82.5594L117.036 84.2107ZM118.082 78.6514L116.431 79.7797L115.303 78.1284L116.954 77.0001L118.082 78.6514ZM114.78 80.908L113.128 82.0363L112 80.385L113.651 79.2567L114.78 80.908Z" fill="black"/>
<path d="M141.54 76.1405L139.712 76.9517L138.901 75.1236L140.729 74.3124L141.54 76.1405ZM137.884 77.7629L136.056 78.5741L135.245 76.746L137.073 75.9348L137.884 77.7629ZM139.918 72.4843L138.09 73.2955L137.279 71.4674L139.107 70.6562L139.918 72.4843ZM136.262 74.1067L134.434 74.9179L133.622 73.0898L135.451 72.2786L136.262 74.1067ZM138.296 68.8281L136.467 69.6393L135.656 67.8112L137.484 67L138.296 68.8281ZM134.639 70.4505L132.811 71.2617L132 69.4336L133.828 68.6224L134.639 70.4505Z" fill="black"/>
<path d="M160.603 69.5055L158.654 69.9564L158.203 68.0079L160.152 67.557L160.603 69.5055ZM156.706 70.4073L154.757 70.8583L154.306 68.9098L156.255 68.4588L156.706 70.4073ZM159.701 65.6085L157.752 66.0594L157.302 64.1109L159.25 63.66L159.701 65.6085ZM155.804 66.5103L153.855 66.9612L153.405 65.0127L155.353 64.5618L155.804 66.5103ZM158.799 61.7115L156.851 62.1624L156.4 60.2139L158.348 59.763L158.799 61.7115ZM154.902 62.6133L152.954 63.0642L152.503 61.1157L154.451 60.6648L154.902 62.6133Z" fill="black"/>
<path d="M181 68H179V66H181V68ZM177 68H175V66H177V68ZM181 64H179V62H181V64ZM177 64H175V62H177V64ZM181 60H179V58H181V60ZM177 60H175V58H177V60Z" fill="black"/>
<path d="M200.942 72.7381L198.961 72.4596L199.24 70.479L201.22 70.7575L200.942 72.7381ZM196.981 72.1811L195 71.9026L195.278 69.9221L197.259 70.2006L196.981 72.1811ZM201.499 68.777L199.518 68.4985L199.796 66.518L201.777 66.7965L201.499 68.777ZM197.537 68.22L195.557 67.9415L195.835 65.961L197.816 66.2395L197.537 68.22ZM202.056 64.816L200.075 64.5375L200.353 62.557L202.334 62.8355L202.056 64.816ZM198.094 64.259L196.114 63.9805L196.392 62L198.373 62.2785L198.094 64.259Z" fill="black"/>
<path d="M219.521 78.5506L217.681 77.7678L218.464 75.9273L220.304 76.7101L219.521 78.5506ZM215.84 76.9851L214 76.2023L214.783 74.3619L216.623 75.1446L215.84 76.9851ZM221.087 74.8696L219.246 74.0869L220.029 72.2464L221.87 73.0292L221.087 74.8696ZM217.406 73.3041L215.565 72.5214L216.348 70.6809L218.189 71.4637L217.406 73.3041ZM222.652 71.1887L220.812 70.406L221.595 68.5655L223.435 69.3482L222.652 71.1887ZM218.971 69.6232L217.131 68.8405L217.914 67L219.754 67.7827L218.971 69.6232Z" fill="black"/>
<path d="M238.988 87.648L237.325 86.5364L238.437 84.8738L240.1 85.9853L238.988 87.648ZM235.663 85.4249L234 84.3133L235.112 82.6506L236.774 83.7622L235.663 85.4249ZM241.211 84.3227L239.548 83.2111L240.66 81.5484L242.323 82.66L241.211 84.3227ZM237.886 82.0995L236.223 80.988L237.335 79.3253L238.997 80.4369L237.886 82.0995ZM243.434 80.9973L241.772 79.8858L242.883 78.2231L244.546 79.3347L243.434 80.9973ZM240.109 78.7742L238.446 77.6627L239.558 76L241.221 77.1116L240.109 78.7742Z" fill="black"/>
<path d="M254.583 100.511L253.056 99.2202L254.346 97.6924L255.874 98.9832L254.583 100.511ZM251.528 97.9294L250 96.6387L251.291 95.111L252.819 96.4017L251.528 97.9294ZM257.165 97.4554L255.637 96.1647L256.928 94.637L258.455 95.9277L257.165 97.4554ZM254.109 94.874L252.582 93.5832L253.872 92.0555L255.4 93.3462L254.109 94.874ZM259.746 94.4L258.218 93.1092L259.509 91.5815L261.037 92.8722L259.746 94.4ZM256.691 91.8185L255.163 90.5277L256.454 89L257.981 90.2907L256.691 91.8185Z" fill="black"/>
<path d="M267.466 115.679L266.31 114.047L267.943 112.891L269.098 114.524L267.466 115.679ZM265.155 112.415L263.999 110.782L265.632 109.627L266.787 111.259L265.155 112.415ZM270.731 113.368L269.575 111.736L271.208 110.58L272.363 112.213L270.731 113.368ZM268.42 110.103L267.264 108.471L268.896 107.316L270.052 108.948L268.42 110.103ZM273.995 111.057L272.84 109.425L274.472 108.269L275.628 109.902L273.995 111.057ZM271.684 107.792L270.529 106.16L272.161 105.004L273.317 106.637L271.684 107.792Z" fill="black"/>
<path d="M278.761 134.122L277.844 132.344L279.622 131.427L280.538 133.205L278.761 134.122ZM276.928 130.566L276.012 128.788L277.789 127.871L278.705 129.649L276.928 130.566ZM282.316 132.289L281.4 130.511L283.178 129.594L284.094 131.372L282.316 132.289ZM280.483 128.733L279.567 126.955L281.345 126.039L282.261 127.816L280.483 128.733ZM285.871 130.456L284.956 128.678L286.733 127.761L287.649 129.539L285.871 130.456ZM284.039 126.901L283.123 125.123L284.901 124.206L285.816 125.984L284.039 126.901Z" fill="black"/>
<path d="M286.296 152.252L285.734 150.332L287.653 149.769L288.216 151.689L286.296 152.252ZM285.171 148.414L284.608 146.494L286.528 145.931L287.09 147.851L285.171 148.414ZM290.134 151.126L289.572 149.207L291.491 148.644L292.054 150.563L290.134 151.126ZM289.009 147.288L288.447 145.368L290.366 144.806L290.928 146.725L289.009 147.288ZM293.973 150.001L293.411 148.082L295.329 147.518L295.892 149.438L293.973 150.001ZM292.848 146.162L292.285 144.243L294.205 143.68L294.766 145.6L292.848 146.162Z" fill="black"/>
<path d="M289.368 172.609L289.296 170.611L291.295 170.538L291.367 172.537L289.368 172.609ZM289.224 168.613L289.151 166.613L291.15 166.541L291.222 168.54L289.224 168.613ZM293.366 172.465L293.293 170.466L295.292 170.394L295.364 172.393L293.366 172.465ZM293.221 168.467L293.148 166.469L295.147 166.396L295.219 168.395L293.221 168.467ZM297.363 172.32L297.291 170.322L299.289 170.249L299.362 172.247L297.363 172.32ZM297.218 168.323L297.146 166.324L299.144 166.251L299.217 168.25L297.218 168.323Z" fill="black"/>
<path d="M289.019 194.989L289.193 192.996L291.186 193.171L291.012 195.164L289.019 194.989ZM289.369 191.004L289.544 189.011L291.535 189.187L291.361 191.179L289.369 191.004ZM293.004 195.338L293.178 193.345L295.171 193.521L294.997 195.513L293.004 195.338ZM293.353 191.353L293.528 189.361L295.52 189.536L295.346 191.528L293.353 191.353ZM296.989 195.687L297.163 193.695L299.156 193.87L298.982 195.862L296.989 195.687ZM297.338 191.702L297.512 189.71L299.505 189.885L299.331 191.877L297.338 191.702Z" fill="black"/>
<path d="M295.278 212.848L294.904 214.813L292.939 214.438L293.313 212.474L295.278 212.848ZM294.53 216.777L294.157 218.742L292.192 218.368L292.565 216.403L294.53 216.777ZM291.348 212.1L290.974 214.065L289.009 213.692L289.383 211.727L291.348 212.1ZM290.601 216.03L290.228 217.995L288.262 217.622L288.636 215.657L290.601 216.03ZM287.418 211.353L287.044 213.318L285.08 212.945L285.454 210.98L287.418 211.353ZM286.671 215.283L286.297 217.248L284.332 216.874L284.706 214.909L286.671 215.283Z" fill="black"/>
<path d="M288.589 233.683L287.777 235.511L285.949 234.698L286.761 232.871L288.589 233.683ZM286.965 237.338L286.153 239.166L284.325 238.354L285.137 236.527L286.965 237.338ZM284.934 232.058L284.122 233.887L282.294 233.074L283.105 231.247L284.934 232.058ZM283.309 235.714L282.498 237.542L280.669 236.73L281.482 234.902L283.309 235.714ZM281.278 230.435L280.465 232.262L278.638 231.451L279.45 229.622L281.278 230.435ZM279.654 234.09L278.842 235.918L277.014 235.106L277.827 233.278L279.654 234.09Z" fill="black"/>
<path d="M279.376 254.585L278.198 256.202L276.581 255.024L277.759 253.408L279.376 254.585ZM277.022 257.819L275.844 259.436L274.227 258.258L275.405 256.641L277.022 257.819ZM276.142 252.231L274.964 253.848L273.348 252.67L274.525 251.054L276.142 252.231ZM273.788 255.464L272.61 257.082L270.993 255.904L272.171 254.287L273.788 255.464ZM272.908 249.876L271.731 251.493L270.114 250.315L271.291 248.699L272.908 249.876ZM270.554 253.11L269.377 254.727L267.76 253.549L268.937 251.932L270.554 253.11Z" fill="black"/>
<path d="M266.407 275.003L264.906 276.325L263.584 274.823L265.086 273.502L266.407 275.003ZM263.404 277.645L261.903 278.966L260.581 277.465L262.083 276.144L263.404 277.645ZM263.765 272L262.264 273.321L260.943 271.819L262.444 270.498L263.765 272ZM260.761 274.642L259.26 275.963L257.94 274.462L259.441 273.141L260.761 274.642ZM261.123 268.997L259.621 270.318L258.3 268.817L259.801 267.495L261.123 268.997ZM258.12 271.639L256.618 272.961L255.297 271.459L256.799 270.138L258.12 271.639Z" fill="black"/>
<path d="M250.017 290.673L248.482 291.955L247.2 290.421L248.734 289.138L250.017 290.673ZM246.948 293.238L245.413 294.521L244.131 292.986L245.665 291.703L246.948 293.238ZM247.452 287.603L245.917 288.886L244.634 287.352L246.169 286.069L247.452 287.603ZM244.383 290.169L242.848 291.451L241.565 289.917L243.1 288.634L244.383 290.169ZM244.886 284.534L243.352 285.817L242.069 284.283L243.604 283L244.886 284.534ZM241.817 287.1L240.283 288.382L239 286.848L240.535 285.565L241.817 287.1Z" fill="black"/>
<path d="M231.055 303.78L229.299 304.737L228.342 302.981L230.098 302.024L231.055 303.78ZM227.543 305.695L225.787 306.652L224.83 304.896L226.586 303.939L227.543 305.695ZM229.14 300.268L227.384 301.225L226.427 299.469L228.183 298.512L229.14 300.268ZM225.628 302.183L223.872 303.14L222.915 301.384L224.671 300.427L225.628 302.183ZM227.225 296.756L225.469 297.713L224.512 295.958L226.268 295L227.225 296.756ZM223.713 298.671L221.957 299.628L221 297.873L222.756 296.915L223.713 298.671Z" fill="black"/>
<path d="M208.443 312.64L206.515 313.172L205.983 311.244L207.911 310.712L208.443 312.64ZM204.587 313.703L202.659 314.235L202.127 312.307L204.055 311.775L204.587 313.703ZM207.379 308.784L205.451 309.316L204.92 307.388L206.848 306.856L207.379 308.784ZM203.523 309.847L201.595 310.379L201.064 308.451L202.992 307.919L203.523 309.847ZM206.316 304.928L204.388 305.46L203.856 303.532L205.784 303L206.316 304.928ZM202.46 305.991L200.532 306.523L200 304.595L201.928 304.063L202.46 305.991Z" fill="black"/>
<path d="M185.359 317.899L183.379 318.183L183.095 316.203L185.075 315.919L185.359 317.899ZM181.4 318.467L179.42 318.751L179.136 316.771L181.116 316.487L181.4 318.467ZM184.791 313.939L182.811 314.223L182.527 312.244L184.507 311.96L184.791 313.939ZM180.832 314.507L178.852 314.791L178.568 312.812L180.548 312.528L180.832 314.507ZM184.223 309.98L182.243 310.264L181.959 308.284L183.939 308L184.223 309.98ZM180.264 310.548L178.284 310.832L178 308.852L179.98 308.568L180.264 310.548Z" fill="black"/>
<path d="M162 320H160V318H162V320ZM158 320H156V318H158V320ZM162 316H160V314H162V316ZM158 316H156V314H158V316ZM162 312H160V310H162V312ZM158 312H156V310H158V312Z" fill="black"/>
<path d="M139.905 318.906L137.937 318.551L138.292 316.583L140.26 316.938L139.905 318.906ZM135.968 318.196L134 317.841L134.355 315.873L136.323 316.228L135.968 318.196ZM140.615 314.97L138.647 314.615L139.002 312.646L140.97 313.001L140.615 314.97ZM136.678 314.26L134.71 313.905L135.065 311.936L137.033 312.291L136.678 314.26ZM141.325 311.033L139.357 310.678L139.712 308.71L141.68 309.065L141.325 311.033ZM137.388 310.323L135.42 309.968L135.775 308L137.743 308.355L137.388 310.323Z" fill="black"/>
<path d="M117.579 313.506L115.719 312.77L116.455 310.911L118.315 311.647L117.579 313.506ZM113.86 312.034L112 311.298L112.736 309.438L114.596 310.174L113.86 312.034ZM119.051 309.787L117.191 309.051L117.928 307.192L119.787 307.928L119.051 309.787ZM115.332 308.315L113.472 307.579L114.209 305.719L116.068 306.455L115.332 308.315ZM120.523 306.068L118.664 305.332L119.4 303.472L121.26 304.209L120.523 306.068ZM116.804 304.596L114.945 303.86L115.681 302L117.54 302.736L116.804 304.596Z" fill="black"/>
<path d="M96.2612 305.653L94.5075 304.692L95.469 302.938L97.2227 303.899L96.2612 305.653ZM92.7538 303.73L91.0001 302.769L91.9616 301.015L93.7153 301.976L92.7538 303.73ZM98.1842 302.146L96.4305 301.184L97.392 299.43L99.1457 300.392L98.1842 302.146ZM94.6768 300.223L92.9231 299.261L93.8846 297.507L95.6383 298.469L94.6768 300.223ZM100.107 298.638L98.3535 297.677L99.315 295.923L101.069 296.885L100.107 298.638ZM96.5998 296.715L94.8461 295.754L95.8076 294L97.5613 294.962L96.5998 296.715Z" fill="black"/>
<path d="M76.8143 294.605L75.2095 293.411L76.4031 291.806L78.0079 293L76.8143 294.605ZM73.6047 292.217L72 291.024L73.1936 289.419L74.7983 290.613L73.6047 292.217ZM79.2015 291.395L77.5967 290.202L78.7903 288.597L80.3951 289.79L79.2015 291.395ZM75.992 289.008L74.3872 287.814L75.5808 286.21L77.1856 287.403L75.992 289.008ZM81.5887 288.186L79.984 286.992L81.1776 285.387L82.7823 286.581L81.5887 288.186ZM78.3792 285.798L76.7744 284.605L77.968 283L79.5728 284.194L78.3792 285.798Z" fill="black"/>
<path d="M58.8182 278.457L57.468 276.981L58.9433 275.632L60.2935 277.107L58.8182 278.457ZM56.1177 275.506L54.7675 274.031L56.243 272.68L57.593 274.157L56.1177 275.506ZM61.769 275.757L60.4188 274.281L61.8942 272.931L63.2445 274.406L61.769 275.757ZM59.0685 272.806L57.7182 271.331L59.1937 269.98L60.544 271.456L59.0685 272.806ZM64.7197 273.057L63.3697 271.58L64.845 270.231L66.1953 271.706L64.7197 273.057ZM62.0195 270.105L60.6692 268.63L62.1448 267.279L63.4948 268.756L62.0195 270.105Z" fill="black"/>
<path d="M44.4523 259.661L43.3015 258.025L44.9373 256.875L46.088 258.51L44.4523 259.661ZM42.1507 256.39L41 254.754L42.6358 253.603L43.7865 255.239L42.1507 256.39ZM47.7238 257.36L46.573 255.724L48.2088 254.573L49.3596 256.209L47.7238 257.36ZM45.4223 254.088L44.2715 252.452L45.9073 251.301L47.0581 252.937L45.4223 254.088ZM50.9953 255.058L49.8446 253.422L51.4804 252.271L52.6311 253.907L50.9953 255.058ZM48.6938 251.786L47.5431 250.151L49.1789 249L50.3296 250.636L48.6938 251.786Z" fill="black"/>
<path d="M32.5557 240.318L31.6786 238.521L33.476 237.644L34.3531 239.441L32.5557 240.318ZM30.8015 236.724L29.9244 234.926L31.7217 234.049L32.5988 235.846L30.8015 236.724ZM36.1505 238.564L35.2734 236.767L37.0708 235.89L37.9479 237.687L36.1505 238.564ZM34.3963 234.969L33.5192 233.172L35.3165 232.295L36.1937 234.092L34.3963 234.969ZM39.7453 236.81L38.8682 235.013L40.6656 234.135L41.5427 235.933L39.7453 236.81ZM37.9911 233.215L37.114 231.418L38.9114 230.541L39.7885 232.338L37.9911 233.215Z" fill="black"/>
<path d="M23.5435 218.552L23.077 216.608L25.0217 216.142L25.4883 218.086L23.5435 218.552ZM22.6104 214.663L22.144 212.718L24.0888 212.251L24.5553 214.196L22.6104 214.663ZM27.4331 217.619L26.9666 215.675L28.9115 215.208L29.3779 217.154L27.4331 217.619ZM26.5001 213.73L26.0336 211.786L27.9785 211.319L28.445 213.263L26.5001 213.73ZM31.3228 216.687L30.8563 214.742L32.8012 214.275L33.2677 216.22L31.3228 216.687ZM30.3898 212.797L29.9233 210.853L31.8682 210.386L32.3347 212.33L30.3898 212.797Z" fill="black"/>
<path d="M19.3227 195.529L19.2151 193.532L21.2122 193.424L21.3198 195.421L19.3227 195.529ZM19.1075 191.535L19 189.537L20.9971 189.43L21.1046 191.427L19.1075 191.535ZM23.3169 195.314L23.2093 193.317L25.2064 193.209L25.314 195.206L23.3169 195.314ZM23.1017 191.319L22.9942 189.322L24.9913 189.215L25.0989 191.212L23.1017 191.319ZM27.3111 195.098L27.2035 193.101L29.2006 192.994L29.3082 194.991L27.3111 195.098ZM27.096 191.104L26.9884 189.107L28.9855 189L29.0931 190.997L27.096 191.104Z" fill="black"/>
<path d="M18.4447 172.709L18.6521 170.72L20.6414 170.927L20.434 172.917L18.4447 172.709ZM18.8594 168.73L19.0668 166.741L21.056 166.949L20.8487 168.938L18.8594 168.73ZM22.4231 173.124L22.6306 171.135L24.6198 171.342L24.4124 173.331L22.4231 173.124ZM22.8379 169.146L23.0453 167.157L25.0345 167.363L24.8271 169.353L22.8379 169.146ZM26.4016 173.539L26.609 171.55L28.5982 171.757L28.3909 173.746L26.4016 173.539ZM26.8163 169.56L27.0237 167.571L29.0129 167.778L28.8056 169.767L26.8163 169.56Z" fill="black"/>
<path d="M32.394 147.153L31.8414 149.075L29.9192 148.523L30.4717 146.6L32.394 147.153ZM31.2888 150.997L30.7363 152.92L28.814 152.367L29.3666 150.445L31.2888 150.997ZM28.5496 146.048L27.997 147.97L26.0749 147.418L26.6275 145.496L28.5496 146.048ZM27.4445 149.893L26.8919 151.814L24.9698 151.262L25.5223 149.339L27.4445 149.893ZM24.7053 144.942L24.1528 146.865L22.2307 146.312L22.7833 144.39L24.7053 144.942ZM23.6002 148.787L23.0476 150.709L21.1256 150.157L21.6781 148.234L23.6002 148.787Z" fill="black"/>
<path d="M39.6196 127.396L38.7403 129.193L36.944 128.313L37.8232 126.517L39.6196 127.396ZM37.861 130.989L36.9818 132.785L35.1854 131.906L36.0647 130.11L37.861 130.989ZM36.0269 125.638L35.1476 127.434L33.3513 126.555L34.2305 124.758L36.0269 125.638ZM34.2683 129.23L33.3891 131.027L31.5927 130.147L32.472 128.351L34.2683 129.23ZM32.4342 123.879L31.5549 125.675L29.7586 124.796L30.6378 123L32.4342 123.879ZM30.6756 127.472L29.7964 129.268L28 128.389L28.8793 126.593L30.6756 127.472Z" fill="black"/>
<path d="M49.6601 106.294L48.6012 107.991L46.9045 106.932L47.9634 105.235L49.6601 106.294ZM47.5423 109.687L46.4834 111.384L44.7867 110.325L45.8456 108.629L47.5423 109.687ZM46.2668 104.176L45.2078 105.873L43.5112 104.814L44.5701 103.117L46.2668 104.176ZM44.1489 107.57L43.09 109.266L41.3933 108.207L42.4523 106.511L44.1489 107.57ZM42.8734 102.058L41.8145 103.755L40.1178 102.696L41.1767 101L42.8734 102.058ZM40.7556 105.452L39.6967 107.148L38 106.09L39.0589 104.393L40.7556 105.452Z" fill="black"/>
<path d="M61.6032 87.3429L60.4578 88.9827L58.8183 87.8371L59.9636 86.1973L61.6032 87.3429ZM59.3124 90.6225L58.1668 92.2613L56.5275 91.1167L57.6729 89.4769L59.3124 90.6225ZM58.3244 85.0526L57.1787 86.6915L55.5392 85.5459L56.6849 83.907L58.3244 85.0526ZM56.0334 88.3312L54.888 89.9711L53.2484 88.8255L54.3939 87.1856L56.0334 88.3312ZM55.0453 82.7614L53.9 84.4012L52.2605 83.2556L53.4058 81.6158L55.0453 82.7614ZM52.7543 86.04L51.609 87.6798L49.9695 86.5342L51.1148 84.8944L52.7543 86.04Z" fill="black"/>
<path d="M76.4308 68.9876L75.1399 70.5153L73.6123 69.2245L74.9032 67.6968L76.4308 68.9876ZM73.8492 72.0429L72.5583 73.5706L71.0307 72.2797L72.3214 70.7521L73.8492 72.0429ZM73.3755 66.406L72.0847 67.9336L70.557 66.6427L71.8479 65.1151L73.3755 66.406ZM70.7938 69.4612L69.5029 70.9889L67.9753 69.698L69.2662 68.1704L70.7938 69.4612ZM70.3202 63.8242L69.0294 65.3519L67.5017 64.061L68.7926 62.5334L70.3202 63.8242ZM67.7385 66.8795L66.4477 68.4071L64.92 67.1163L66.2109 65.5886L67.7385 66.8795Z" fill="black"/>
<path d="M95.3019 56.0849L93.8803 57.4924L92.4729 56.0712L93.8945 54.6638L95.3019 56.0849ZM92.4597 58.8994L91.0381 60.3069L89.6307 58.8857L91.0523 57.4783L92.4597 58.8994ZM92.487 53.2427L91.0655 54.6502L89.659 53.2288L91.0796 51.8216L92.487 53.2427ZM89.6449 56.0573L88.2233 57.4647L86.8159 56.0436L88.2374 54.6362L89.6449 56.0573ZM89.6722 50.4006L88.2516 51.8076L86.8442 50.3866L88.2648 48.9795L89.6722 50.4006ZM86.83 53.2151L85.4094 54.6222L84.002 53.2011L85.4227 51.7941L86.83 53.2151Z" fill="black"/>
<path d="M114.087 45.7531L112.337 46.7202L111.37 44.9696L113.12 44.0025L114.087 45.7531ZM110.586 47.6873L108.836 48.6545L107.868 46.9038L109.619 45.9367L110.586 47.6873ZM112.153 42.2519L110.403 43.219L109.435 41.4684L111.186 40.5012L112.153 42.2519ZM108.652 44.1861L106.901 45.1532L105.934 43.4026L107.685 42.4355L108.652 44.1861ZM110.219 38.7506L108.468 39.7177L107.501 37.9671L109.252 37L110.219 38.7506ZM106.718 40.6849L104.967 41.652L104 39.9014L105.751 38.9342L106.718 40.6849Z" fill="black"/>
<path d="M133.094 37.2477L131.235 37.9843L130.498 36.1248L132.357 35.3883L133.094 37.2477ZM129.375 38.7208L127.516 39.4573L126.779 37.5979L128.639 36.8614L129.375 38.7208ZM131.621 33.5289L129.762 34.2654L129.025 32.406L130.884 31.6694L131.621 33.5289ZM127.902 35.0019L126.043 35.7385L125.306 33.879L127.166 33.1425L127.902 35.0019ZM130.148 29.81L128.288 30.5465L127.552 28.6871L129.411 27.9505L130.148 29.81ZM126.429 31.2831L124.57 32.0196L123.833 30.1602L125.692 29.4236L126.429 31.2831Z" fill="black"/>
<path d="M153.786 32.7127L151.829 33.1266L151.415 31.1699L153.372 30.756L153.786 32.7127ZM149.873 33.5405L147.916 33.9544L147.502 31.9977L149.459 31.5838L149.873 33.5405ZM152.958 28.7993L151.001 29.2132L150.588 27.2565L152.544 26.8426L152.958 28.7993ZM149.045 29.6271L147.088 30.041L146.674 28.0843L148.631 27.6704L149.045 29.6271ZM152.13 24.8859L150.174 25.2998L149.76 23.3431L151.716 22.9292L152.13 24.8859ZM148.217 25.7137L146.26 26.1276L145.846 24.1709L147.803 23.757L148.217 25.7137Z" fill="black"/>
<path d="M175.625 29.9798L173.629 30.1071L173.501 28.1112L175.497 27.9838L175.625 29.9798ZM171.633 30.2344L169.637 30.3618L169.509 28.3658L171.505 28.2385L171.633 30.2344ZM175.37 25.9879L173.374 26.1152L173.247 24.1193L175.243 23.9919L175.37 25.9879ZM171.378 26.2426L169.382 26.3699L169.255 24.374L171.251 24.2466L171.378 26.2426ZM175.115 21.996L173.119 22.1233L172.992 20.1274L174.988 20L175.115 21.996ZM171.123 22.2507L169.127 22.378L169 20.3821L170.996 20.2547L171.123 22.2507Z" fill="black"/>
</svg>
