<svg width="390" height="390" viewBox="0 0 390 390" fill="none" xmlns="http://www.w3.org/2000/svg">
<path d="M193.642 190.508L193.095 188.584L195.018 188.037L195.566 189.961L193.642 190.508ZM192.547 186.661L192 184.737L193.924 184.19L194.471 186.113L192.547 186.661ZM197.49 189.413L196.942 187.489L198.866 186.942L199.413 188.866L197.49 189.413ZM196.395 185.566L195.847 183.642L197.771 183.095L198.318 185.018L196.395 185.566ZM201.337 188.318L200.789 186.395L202.713 185.847L203.26 187.771L201.337 188.318ZM200.242 184.471L199.694 182.547L201.618 182L202.166 183.924L200.242 184.471Z"           fill="black"/>
<path d="M199.204 202.025L199.192 200.025L201.192 200.011L201.204 202.012L199.204 202.025ZM199.178 198.024L199.166 196.024L201.166 196.012L201.179 198.012L199.178 198.024ZM203.205 201.999L203.191 199.999L205.192 199.986L205.205 201.986L203.205 201.999ZM203.179 197.999L203.166 195.998L205.166 195.986L205.179 197.987L203.179 197.999ZM207.204 201.974L207.192 199.973L209.191 199.96L209.205 201.96L207.204 201.974ZM207.179 197.973L207.166 195.973L209.166 195.96L209.179 197.961L207.179 197.973Z"  fill="black"/>
<path d="M192 211.871L193.168 210.247L194.792 211.415L193.624 213.039L192 211.871ZM194.336 208.624L195.504 207L197.128 208.168L195.96 209.792L194.336 208.624ZM195.247 214.207L196.415 212.583L198.039 213.751L196.871 215.375L195.247 214.207ZM197.583 210.96L198.751 209.336L200.375 210.504L199.207 212.128L197.583 210.96ZM198.494 216.543L199.662 214.919L201.286 216.087L200.118 217.711L198.494 216.543ZM200.83 213.296L201.998 211.672L203.622 212.84L202.454 214.464L200.83 213.296Z"                 fill="black"/>
<path d="M187.422 225.888L185.445 226.186L185.147 224.209L187.125 223.911L187.422 225.888ZM183.467 226.484L181.489 226.782L181.192 224.804L183.169 224.507L183.467 226.484ZM186.827 221.933L184.849 222.231L184.551 220.253L186.529 219.955L186.827 221.933ZM182.871 222.529L180.894 222.827L180.596 220.849L182.573 220.551L182.871 222.529ZM186.231 217.978L184.253 218.276L183.955 216.298L185.933 216L186.231 217.978ZM182.276 218.573L180.298 218.871L180 216.894L181.978 216.596L182.276 218.573Z"       fill="black"/>
<path d="M169.129 222.662L167.42 221.624L168.457 219.915L170.167 220.953L169.129 222.662ZM165.71 220.587L164 219.549L165.038 217.839L166.748 218.877L165.71 220.587ZM171.205 219.243L169.495 218.205L170.533 216.495L172.243 217.533L171.205 219.243ZM167.786 217.167L166.076 216.129L167.114 214.42L168.823 215.458L167.786 217.167ZM173.281 215.824L171.571 214.786L172.609 213.076L174.318 214.114L173.281 215.824ZM169.861 213.748L168.152 212.71L169.189 211L170.899 212.038L169.861 213.748Z"            fill="black"/>
<path d="M156.548 210.662L155.707 208.849L157.521 208.008L158.362 209.822L156.548 210.662ZM154.866 207.034L154.025 205.219L155.839 204.378L156.68 206.193L154.866 207.034ZM160.177 208.981L159.336 207.167L161.151 206.326L161.992 208.14L160.177 208.981ZM158.495 205.352L157.654 203.537L159.469 202.697L160.31 204.511L158.495 205.352ZM163.806 207.299L162.965 205.485L164.78 204.644L165.621 206.458L163.806 207.299ZM162.124 203.67L161.283 201.856L163.098 201.015L163.939 202.829L162.124 203.67Z"     fill="black"/>
<path d="M155.713 192.359L156.06 190.39L158.029 190.736L157.683 192.706L155.713 192.359ZM156.405 188.42L156.751 186.45L158.721 186.796L158.375 188.766L156.405 188.42ZM159.653 193.051L159.999 191.081L161.969 191.428L161.623 193.397L159.653 193.051ZM160.345 189.111L160.691 187.142L162.661 187.488L162.315 189.458L160.345 189.111ZM163.593 193.744L163.939 191.774L165.909 192.119L165.563 194.089L163.593 193.744ZM164.284 189.804L164.631 187.834L166.601 188.18L166.254 190.149L164.284 189.804Z"     fill="black"/>
<path d="M173.968 174.266L172.952 175.989L171.229 174.973L172.245 173.25L173.968 174.266ZM171.935 177.711L170.919 179.434L169.197 178.418L170.213 176.695L171.935 177.711ZM170.523 172.234L169.507 173.956L167.784 172.939L168.801 171.217L170.523 172.234ZM168.49 175.679L167.474 177.4L165.752 176.384L166.768 174.662L168.49 175.679ZM167.078 170.2L166.062 171.923L164.339 170.906L165.356 169.184L167.078 170.2ZM165.045 173.645L164.029 175.368L162.307 174.351L163.323 172.629L165.045 173.645Z"        fill="black"/>
<path d="M187.171 166.807L185.443 167.815L184.435 166.087L186.163 165.079L187.171 166.807ZM183.716 168.822L181.988 169.83L180.98 168.103L182.708 167.095L183.716 168.822ZM185.155 163.352L183.427 164.36L182.42 162.632L184.148 161.625L185.155 163.352ZM181.7 165.367L179.973 166.375L178.965 164.648L180.692 163.64L181.7 165.367ZM183.14 159.897L181.413 160.905L180.405 159.177L182.132 158.17L183.14 159.897ZM179.684 161.913L177.957 162.919L176.949 161.192L178.677 160.184L179.684 161.913Z"           fill="black"/>
<path d="M200.929 163.954L198.938 164.145L198.747 162.155L200.738 161.963L200.929 163.954ZM196.948 164.337L194.957 164.528L194.765 162.537L196.756 162.346L196.948 164.337ZM200.547 159.972L198.556 160.164L198.364 158.173L200.355 157.982L200.547 159.972ZM196.565 160.355L194.574 160.547L194.383 158.556L196.374 158.364L196.565 160.355ZM200.164 155.991L198.173 156.182L197.982 154.191L199.972 154L200.164 155.991ZM196.182 156.374L194.191 156.565L194 154.574L195.991 154.383L196.182 156.374Z"       fill="black"/>
<path d="M215.599 165.489L213.732 164.769L214.452 162.903L216.318 163.622L215.599 165.489ZM211.866 164.05L210 163.331L210.719 161.465L212.585 162.184L211.866 164.05ZM217.037 161.756L215.171 161.037L215.89 159.171L217.756 159.89L217.037 161.756ZM213.305 160.318L211.438 159.599L212.158 157.732L214.024 158.452L213.305 160.318ZM218.475 158.024L216.609 157.305L217.328 155.438L219.195 156.158L218.475 158.024ZM214.743 156.585L212.877 155.866L213.596 154L215.462 154.719L214.743 156.585Z"           fill="black"/>
<path d="M226.048 175.175L224.698 173.699L226.175 172.349L227.524 173.826L226.048 175.175ZM223.349 172.222L222 170.746L223.476 169.397L224.826 170.873L223.349 172.222ZM229 172.477L227.651 171L229.127 169.651L230.477 171.127L229 172.477ZM226.302 169.524L224.953 168.048L226.429 166.698L227.778 168.175L226.302 169.524ZM231.953 169.778L230.604 168.302L232.08 166.953L233.429 168.429L231.953 169.778ZM229.255 166.825L227.905 165.349L229.382 164L230.731 165.476L229.255 166.825Z"                    fill="black"/>
<path d="M233.703 188.592L233.135 186.674L235.053 186.106L235.621 188.024L233.703 188.592ZM232.567 184.756L232 182.839L233.917 182.271L234.485 184.189L232.567 184.756ZM237.538 187.456L236.971 185.538L238.888 184.971L239.456 186.888L237.538 187.456ZM236.403 183.621L235.835 181.703L237.753 181.135L238.321 183.053L236.403 183.621ZM241.374 186.32L240.806 184.403L242.724 183.835L243.292 185.753L241.374 186.32ZM240.238 182.485L239.67 180.567L241.588 180L242.156 181.917L240.238 182.485Z"          fill="black"/>
<path d="M244.838 199.185L244.595 201.171L242.61 200.929L242.852 198.943L244.838 199.185ZM244.353 203.156L244.11 205.141L242.125 204.9L242.368 202.914L244.353 203.156ZM240.867 198.701L240.624 200.686L238.639 200.444L238.882 198.459L240.867 198.701ZM240.382 202.671L240.14 204.657L238.155 204.415L238.397 202.43L240.382 202.671ZM236.896 198.216L236.654 200.201L234.669 199.96L234.911 197.974L236.896 198.216ZM236.412 202.187L236.17 204.172L234.185 203.93L234.426 201.945L236.412 202.187Z"        fill="black"/>
<path d="M229.631 219.617L230.377 217.761L232.233 218.508L231.486 220.364L229.631 219.617ZM231.124 215.906L231.871 214.051L233.726 214.798L232.979 216.653L231.124 215.906ZM233.341 221.111L234.088 219.256L235.944 220.003L235.196 221.858L233.341 221.111ZM234.834 217.4L235.582 215.545L237.437 216.292L236.69 218.148L234.834 217.4ZM237.052 222.604L237.799 220.749L239.654 221.496L238.907 223.351L237.052 222.604ZM238.545 218.894L239.292 217.039L241.147 217.786L240.4 219.641L238.545 218.894Z"      fill="black"/>
<path d="M230.859 237.805L229.467 239.24L228.031 237.848L229.424 236.412L230.859 237.805ZM228.074 240.675L226.681 242.111L225.245 240.718L226.638 239.283L228.074 240.675ZM227.989 235.019L226.596 236.455L225.161 235.062L226.553 233.627L227.989 235.019ZM225.203 237.891L223.811 239.325L222.375 237.933L223.768 236.497L225.203 237.891ZM225.118 232.234L223.725 233.669L222.29 232.277L223.683 230.841L225.118 232.234ZM222.332 235.105L220.939 236.54L219.505 235.147L220.897 233.712L222.332 235.105Z"  fill="black"/>
<path d="M215.331 251.536L213.624 252.578L212.582 250.87L214.289 249.829L215.331 251.536ZM211.917 253.619L210.209 254.661L209.167 252.954L210.875 251.912L211.917 253.619ZM213.247 248.121L211.54 249.163L210.498 247.456L212.206 246.414L213.247 248.121ZM209.833 250.205L208.126 251.247L207.084 249.54L208.791 248.498L209.833 250.205ZM211.164 244.707L209.457 245.749L208.415 244.041L210.122 243L211.164 244.707ZM207.749 246.791L206.042 247.832L205 246.125L206.707 245.083L207.749 246.791Z"          fill="black"/>
<path d="M196.543 260.867L194.57 261.192L194.245 259.219L196.219 258.894L196.543 260.867ZM192.596 261.517L190.623 261.841L190.298 259.868L192.272 259.543L192.596 261.517ZM195.894 256.92L193.921 257.245L193.596 255.272L195.57 254.947L195.894 256.92ZM191.947 257.57L189.974 257.894L189.649 255.921L191.623 255.596L191.947 257.57ZM195.245 252.973L193.272 253.298L192.947 251.325L194.92 251L195.245 252.973ZM191.298 253.623L189.325 253.947L189 251.974L190.973 251.649L191.298 253.623Z"              fill="black"/>
<path d="M175.918 261.852L173.945 261.523L174.275 259.55L176.248 259.88L175.918 261.852ZM171.973 261.193L170 260.863L170.33 258.891L172.302 259.22L171.973 261.193ZM176.577 257.907L174.605 257.577L174.935 255.605L176.907 255.935L176.577 257.907ZM172.632 257.248L170.66 256.918L170.989 254.945L172.962 255.275L172.632 257.248ZM177.237 253.962L175.264 253.632L175.594 251.66L177.567 251.989L177.237 253.962ZM173.292 253.302L171.319 252.973L171.649 251L173.621 251.33L173.292 253.302Z"              fill="black"/>
<path d="M154.305 255.645L152.537 254.711L153.471 252.942L155.239 253.876L154.305 255.645ZM150.768 253.776L149 252.842L149.934 251.074L151.703 252.008L150.768 253.776ZM156.174 252.108L154.405 251.174L155.339 249.405L157.108 250.339L156.174 252.108ZM152.637 250.239L150.868 249.305L151.802 247.537L153.571 248.471L152.637 250.239ZM158.042 248.571L156.273 247.637L157.207 245.868L158.976 246.802L158.042 248.571ZM154.505 246.703L152.736 245.768L153.671 244L155.439 244.934L154.505 246.703Z"       fill="black"/>
<path d="M136.735 244.474L135.325 243.056L136.742 241.646L138.153 243.064L136.735 244.474ZM133.914 241.638L132.504 240.22L133.921 238.81L135.332 240.228L133.914 241.638ZM139.571 241.653L138.16 240.235L139.578 238.825L140.989 240.243L139.571 241.653ZM136.75 238.817L135.339 237.399L136.757 235.989L138.168 237.407L136.75 238.817ZM142.407 238.832L140.996 237.414L142.414 236.004L143.825 237.422L142.407 238.832ZM139.586 235.996L138.175 234.578L139.593 233.168L141.004 234.586L139.586 235.996Z"    fill="black"/>
<path d="M124.399 228.065L123.526 226.265L125.326 225.392L126.199 227.191L124.399 228.065ZM122.654 224.466L121.781 222.666L123.58 221.793L124.453 223.592L122.654 224.466ZM127.998 226.318L127.125 224.519L128.925 223.646L129.798 225.445L127.998 226.318ZM126.252 222.719L125.379 220.921L127.179 220.047L128.051 221.847L126.252 222.719ZM131.597 224.573L130.724 222.773L132.524 221.9L133.397 223.699L131.597 224.573ZM129.851 220.973L128.978 219.174L130.777 218.301L131.65 220.1L129.851 220.973Z"     fill="black"/>
<path d="M117.514 208.153L117.294 206.166L119.282 205.946L119.501 207.934L117.514 208.153ZM117.075 204.177L116.855 202.19L118.844 201.971L119.062 203.958L117.075 204.177ZM121.489 207.715L121.27 205.727L123.258 205.507L123.477 207.495L121.489 207.715ZM121.051 203.738L120.831 201.751L122.819 201.532L123.039 203.52L121.051 203.738ZM125.465 207.276L125.246 205.288L127.234 205.069L127.453 207.057L125.465 207.276ZM125.026 203.3L124.808 201.312L126.795 201.093L127.014 203.081L125.026 203.3Z"      fill="black"/>
<path d="M129.13 181.816L128.774 183.785L126.805 183.428L127.162 181.461L129.13 181.816ZM128.417 185.752L128.062 187.721L126.093 187.364L126.45 185.397L128.417 185.752ZM125.193 181.104L124.838 183.073L122.869 182.716L123.226 180.748L125.193 181.104ZM124.481 185.04L124.126 187.009L122.157 186.652L122.514 184.685L124.481 185.04ZM121.257 180.392L120.902 182.36L118.933 182.004L119.29 180.036L121.257 180.392ZM120.545 184.328L120.19 186.296L118.221 185.94L118.578 183.972L120.545 184.328Z"        fill="black"/>
<path d="M135.123 163.764L134.23 165.554L132.44 164.661L133.333 162.871L135.123 163.764ZM133.336 167.343L132.443 169.133L130.654 168.239L131.547 166.449L133.336 167.343ZM131.545 161.978L130.651 163.767L128.861 162.874L129.755 161.085L131.545 161.978ZM129.758 165.557L128.864 167.346L127.075 166.452L127.968 164.664L129.758 165.557ZM127.966 160.191L127.072 161.98L125.282 161.087L126.176 159.298L127.966 160.191ZM126.179 163.77L125.285 165.559L123.497 164.665L124.389 162.877L126.179 163.77Z"    fill="black"/>
<path d="M145.542 148.196L144.159 149.64L142.714 148.258L144.097 146.814L145.542 148.196ZM142.776 151.086L141.393 152.531L139.948 151.147L141.332 149.703L142.776 151.086ZM142.652 145.43L141.269 146.875L139.825 145.493L141.207 144.048L142.652 145.43ZM139.886 148.321L138.504 149.765L137.058 148.382L138.441 146.937L139.886 148.321ZM139.762 142.665L138.379 144.109L136.934 142.727L138.317 141.281L139.762 142.665ZM136.997 145.555L135.613 147L134.169 145.616L135.551 144.172L136.997 145.555Z"      fill="black"/>
<path d="M160.357 135.987L158.75 137.178L157.559 135.571L159.167 134.38L160.357 135.987ZM157.142 138.368L155.535 139.558L154.345 137.951L155.953 136.76L157.142 138.368ZM157.977 132.772L156.369 133.963L155.179 132.356L156.786 131.165L157.977 132.772ZM154.762 135.153L153.154 136.343L151.965 134.736L153.572 133.545L154.762 135.153ZM155.597 129.558L153.989 130.748L152.799 129.141L154.406 127.951L155.597 129.558ZM152.382 131.939L150.774 133.128L149.585 131.521L151.192 130.331L152.382 131.939Z"  fill="black"/>
<path d="M178.734 128.535L176.827 129.138L176.224 127.231L178.131 126.628L178.734 128.535ZM174.92 129.74L173.013 130.343L172.41 128.436L174.317 127.833L174.92 129.74ZM177.529 124.721L175.622 125.324L175.019 123.417L176.926 122.814L177.529 124.721ZM173.715 125.926L171.808 126.529L171.205 124.622L173.112 124.019L173.715 125.926ZM176.324 120.907L174.417 121.51L173.814 119.603L175.721 119L176.324 120.907ZM172.51 122.112L170.603 122.715L170 120.808L171.907 120.205L172.51 122.112Z"               fill="black"/>
<path d="M197.675 125.976L195.68 126.114L195.542 124.119L197.537 123.981L197.675 125.976ZM193.685 126.252L191.689 126.39L191.551 124.395L193.547 124.257L193.685 126.252ZM197.399 121.986L195.404 122.124L195.266 120.128L197.261 119.99L197.399 121.986ZM193.409 122.261L191.414 122.399L191.276 120.404L193.271 120.266L193.409 122.261ZM197.124 117.995L195.128 118.133L194.99 116.138L196.986 116L197.124 117.995ZM193.133 118.271L191.138 118.409L191 116.414L192.995 116.276L193.133 118.271Z"           fill="black"/>
<path d="M215.901 126.92L213.934 126.558L214.296 124.591L216.263 124.953L215.901 126.92ZM211.967 126.197L210 125.835L210.362 123.868L212.329 124.23L211.967 126.197ZM216.624 122.986L214.657 122.624L215.019 120.657L216.986 121.019L216.624 122.986ZM212.69 122.263L210.723 121.901L211.085 119.934L213.052 120.296L212.69 122.263ZM217.348 119.052L215.381 118.69L215.742 116.723L217.709 117.085L217.348 119.052ZM213.414 118.329L211.447 117.967L211.808 116L213.775 116.362L213.414 118.329Z"             fill="black"/>
<path d="M233.454 133.591L231.636 132.757L232.47 130.939L234.288 131.773L233.454 133.591ZM229.818 131.924L228 131.09L228.833 129.272L230.652 130.106L229.818 131.924ZM235.121 129.955L233.303 129.121L234.137 127.303L235.955 128.137L235.121 129.955ZM231.485 128.288L229.667 127.454L230.5 125.636L232.318 126.47L231.485 128.288ZM236.788 126.318L234.97 125.485L235.803 123.667L237.621 124.5L236.788 126.318ZM233.152 124.652L231.334 123.818L232.167 122L233.985 122.833L233.152 124.652Z"               fill="black"/>
<path d="M248.725 143.573L247.15 142.34L248.383 140.765L249.958 141.998L248.725 143.573ZM245.575 141.108L244 139.875L245.233 138.3L246.808 139.533L245.575 141.108ZM251.19 140.423L249.615 139.19L250.848 137.615L252.423 138.848L251.19 140.423ZM248.04 137.958L246.465 136.725L247.698 135.15L249.273 136.383L248.04 137.958ZM253.655 137.273L252.08 136.04L253.313 134.465L254.888 135.698L253.655 137.273ZM250.505 134.808L248.93 133.575L250.163 132L251.738 133.233L250.505 134.808Z"                    fill="black"/>
<path d="M261.021 157.704L259.916 156.037L261.584 154.932L262.688 156.599L261.021 157.704ZM258.812 154.369L257.707 152.702L259.375 151.597L260.48 153.264L258.812 154.369ZM264.356 155.495L263.251 153.828L264.918 152.723L266.023 154.39L264.356 155.495ZM262.147 152.161L261.042 150.493L262.71 149.388L263.814 151.056L262.147 152.161ZM267.691 153.286L266.586 151.618L268.253 150.514L269.358 152.181L267.691 153.286ZM265.482 149.951L264.377 148.283L266.044 147.179L267.148 148.847L265.482 149.951Z"  fill="black"/>
<path d="M268.804 174.554L268.268 172.627L270.195 172.091L270.73 174.018L268.804 174.554ZM267.732 170.7L267.196 168.773L269.122 168.237L269.659 170.164L267.732 170.7ZM272.658 173.481L272.121 171.555L274.048 171.018L274.584 172.946L272.658 173.481ZM271.585 169.628L271.05 167.701L272.976 167.166L273.513 169.092L271.585 169.628ZM276.511 172.409L275.975 170.483L277.902 169.947L278.438 171.874L276.511 172.409ZM275.439 168.556L274.904 166.629L276.83 166.093L277.366 168.02L275.439 168.556Z"       fill="black"/>
<path d="M271.489 193.91L271.478 191.91L273.479 191.899L273.49 193.899L271.489 193.91ZM271.467 189.91L271.456 187.911L273.456 187.899L273.468 189.899L271.467 189.91ZM275.49 193.887L275.478 191.888L277.478 191.877L277.489 193.876L275.49 193.887ZM275.467 189.888L275.456 187.888L277.456 187.877L277.467 189.877L275.467 189.888ZM279.489 193.865L279.479 191.865L281.478 191.854L281.49 193.854L279.489 193.865ZM279.467 189.866L279.456 187.865L281.456 187.855L281.467 189.855L279.467 189.866Z"        fill="black"/>
<path d="M270.523 213.492L270.878 211.523L272.846 211.878L272.492 213.846L270.523 213.492ZM271.232 209.555L271.587 207.586L273.555 207.942L273.2 209.909L271.232 209.555ZM274.46 214.201L274.814 212.232L276.782 212.586L276.429 214.555L274.46 214.201ZM275.169 210.264L275.523 208.296L277.492 208.65L277.137 210.618L275.169 210.264ZM278.397 214.91L278.751 212.941L280.719 213.295L280.364 215.264L278.397 214.91ZM279.106 210.973L279.46 209.004L281.428 209.359L281.073 211.327L279.106 210.973Z"       fill="black"/>
<path d="M264.295 232.134L264.976 230.254L266.856 230.934L266.176 232.815L264.295 232.134ZM265.656 228.372L266.336 226.492L268.217 227.172L267.537 229.053L265.656 228.372ZM268.057 233.495L268.737 231.614L270.618 232.294L269.938 234.175L268.057 233.495ZM269.417 229.734L270.097 227.853L271.978 228.533L271.298 230.414L269.417 229.734ZM271.818 234.855L272.498 232.974L274.379 233.656L273.698 235.536L271.818 234.855ZM273.178 231.094L273.86 229.214L275.74 229.894L275.06 231.774L273.178 231.094Z"  fill="black"/>
<path d="M266.388 251.185L265.209 252.8L263.593 251.621L264.773 250.006L266.388 251.185ZM264.03 254.416L262.851 256.031L261.235 254.853L262.415 253.236L264.03 254.416ZM263.157 248.826L261.978 250.442L260.363 249.263L261.542 247.647L263.157 248.826ZM260.799 252.057L259.62 253.673L258.005 252.494L259.183 250.879L260.799 252.057ZM259.927 246.469L258.747 248.084L257.132 246.905L258.311 245.289L259.927 246.469ZM257.568 249.699L256.39 251.315L254.773 250.135L255.953 248.52L257.568 249.699Z"      fill="black"/>
<path d="M255.109 269.509L253.607 270.83L252.287 269.328L253.789 268.007L255.109 269.509ZM252.106 272.151L250.604 273.471L249.283 271.97L250.785 270.649L252.106 272.151ZM252.468 266.505L250.966 267.826L249.645 266.324L251.147 265.004L252.468 266.505ZM249.464 269.147L247.962 270.468L246.641 268.966L248.143 267.645L249.464 269.147ZM249.826 263.502L248.324 264.823L247.004 263.321L248.505 262L249.826 263.502ZM246.822 266.143L245.321 267.464L244 265.962L245.502 264.641L246.822 266.143Z"         fill="black"/>
<path d="M236.721 282.653L235.054 283.758L233.949 282.09L235.617 280.985L236.721 282.653ZM233.387 284.862L231.72 285.967L230.615 284.3L232.282 283.195L233.387 284.862ZM234.511 279.318L232.844 280.423L231.739 278.756L233.406 277.651L234.511 279.318ZM231.177 281.528L229.51 282.633L228.406 280.966L230.072 279.861L231.177 281.528ZM232.301 275.984L230.634 277.089L229.529 275.422L231.196 274.317L232.301 275.984ZM228.968 278.194L227.301 279.299L226.196 277.632L227.863 276.527L228.968 278.194Z"    fill="black"/>
<path d="M217.837 294.494L215.938 295.122L215.31 293.223L217.209 292.595L217.837 294.494ZM214.039 295.75L212.14 296.378L211.512 294.479L213.411 293.851L214.039 295.75ZM216.581 290.697L214.682 291.325L214.054 289.426L215.953 288.798L216.581 290.697ZM212.783 291.953L210.884 292.581L210.256 290.682L212.155 290.054L212.783 291.953ZM215.325 286.899L213.426 287.527L212.798 285.628L214.697 285L215.325 286.899ZM211.527 288.155L209.628 288.783L209 286.884L210.899 286.256L211.527 288.155Z"           fill="black"/>
<path d="M195.669 299.977L193.673 300.113L193.537 298.118L195.532 297.981L195.669 299.977ZM191.678 300.25L189.683 300.386L189.546 298.391L191.541 298.254L191.678 300.25ZM195.396 295.986L193.4 296.123L193.264 294.127L195.259 293.991L195.396 295.986ZM191.405 296.259L189.41 296.396L189.273 294.4L191.268 294.264L191.405 296.259ZM195.123 291.995L193.127 292.132L192.991 290.137L194.986 290L195.123 291.995ZM191.132 292.268L189.137 292.405L189 290.41L190.995 290.273L191.132 292.268Z"               fill="black"/>
<path d="M172.298 300.359L170.317 300.089L170.586 298.107L172.568 298.377L172.298 300.359ZM168.335 299.819L166.353 299.55L166.623 297.568L168.605 297.838L168.335 299.819ZM172.838 296.395L170.856 296.126L171.126 294.144L173.107 294.414L172.838 296.395ZM168.874 295.856L166.893 295.586L167.162 293.605L169.144 293.874L168.874 295.856ZM173.377 292.432L171.395 292.162L171.665 290.181L173.647 290.45L173.377 292.432ZM169.414 291.893L167.432 291.623L167.702 289.641L169.683 289.911L169.414 291.893Z" fill="black"/>
<path d="M149.979 296.494L148.089 295.841L148.742 293.951L150.632 294.604L149.979 296.494ZM146.198 295.187L144.308 294.534L144.961 292.644L146.852 293.297L146.198 295.187ZM151.286 292.714L149.395 292.06L150.049 290.17L151.939 290.823L151.286 292.714ZM147.505 291.407L145.615 290.754L146.268 288.863L148.158 289.517L147.505 291.407ZM152.592 288.933L150.702 288.28L151.355 286.389L153.246 287.043L152.592 288.933ZM148.812 287.626L146.922 286.973L147.575 285.083L149.465 285.736L148.812 287.626Z"  fill="black"/>
<path d="M130.096 287.66L128.398 286.605L129.453 284.906L131.152 285.962L130.096 287.66ZM126.699 285.549L125 284.494L126.056 282.795L127.754 283.851L126.699 285.549ZM132.207 284.263L130.509 283.207L131.564 281.509L133.263 282.564L132.207 284.263ZM128.81 282.152L127.111 281.096L128.167 279.398L129.865 280.453L128.81 282.152ZM134.319 280.865L132.62 279.81L133.675 278.111L135.374 279.167L134.319 280.865ZM130.921 278.754L129.222 277.699L130.278 276L131.977 277.056L130.921 278.754Z"             fill="black"/>
<path d="M112.23 273.306L110.82 271.887L112.238 270.477L113.648 271.896L112.23 273.306ZM109.41 270.469L108 269.05L109.418 267.64L110.828 269.059L109.41 270.469ZM115.067 270.486L113.657 269.067L115.075 267.657L116.485 269.076L115.067 270.486ZM112.247 267.649L110.837 266.23L112.255 264.82L113.665 266.239L112.247 267.649ZM117.904 267.666L116.494 266.247L117.912 264.837L119.322 266.256L117.904 267.666ZM115.084 264.829L113.674 263.41L115.092 262L116.502 263.419L115.084 264.829Z"                 fill="black"/>
<path d="M97.6443 256.84L96.4296 255.252L98.0184 254.037L99.2332 255.626L97.6443 256.84ZM95.2148 253.663L94 252.074L95.5888 250.859L96.8036 252.448L95.2148 253.663ZM100.822 254.411L99.6072 252.822L101.196 251.607L102.411 253.196L100.822 254.411ZM98.3924 251.233L97.1776 249.644L98.7664 248.43L99.9812 250.019L98.3924 251.233ZM104 251.981L102.785 250.393L104.374 249.178L105.588 250.767L104 251.981ZM101.57 248.804L100.355 247.215L101.944 246L103.159 247.589L101.57 248.804Z"                     fill="black"/>
<path d="M86.2539 237.361L85.5276 235.498L87.391 234.772L88.1172 236.636L86.2539 237.361ZM84.8013 233.634L84.075 231.771L85.9384 231.045L86.6647 232.909L84.8013 233.634ZM89.9807 235.909L89.2544 234.046L91.118 233.319L91.8443 235.182L89.9807 235.909ZM88.5282 232.182L87.802 230.319L89.6655 229.592L90.3918 231.455L88.5282 232.182ZM93.7077 234.457L92.9814 232.593L94.8449 231.867L95.5712 233.73L93.7077 234.457ZM92.2552 230.729L91.529 228.865L93.3923 228.14L94.1186 230.003L92.2552 230.729Z"      fill="black"/>
<path d="M78.9128 215.502L78.6395 213.52L80.6208 213.247L80.894 215.228L78.9128 215.502ZM78.3664 211.539L78.0932 209.558L80.0744 209.285L80.3476 211.266L78.3664 211.539ZM82.8752 214.955L82.6021 212.973L84.5833 212.701L84.8565 214.682L82.8752 214.955ZM82.3288 210.993L82.0557 209.011L84.037 208.738L84.3101 210.72L82.3288 210.993ZM86.8378 214.408L86.5645 212.428L88.5458 212.154L88.819 214.136L86.8378 214.408ZM86.2914 210.446L86.0182 208.465L87.9994 208.191L88.2727 210.173L86.2914 210.446Z"    fill="black"/>
<path d="M77.7856 192.597L77.9678 190.605L79.9595 190.786L79.7773 192.778L77.7856 192.597ZM78.1499 188.613L78.3321 186.621L80.3238 186.803L80.1417 188.794L78.1499 188.613ZM81.769 192.961L81.9511 190.969L83.9429 191.151L83.7607 193.142L81.769 192.961ZM82.1333 188.977L82.3156 186.985L84.3072 187.167L84.125 189.159L82.1333 188.977ZM85.7523 193.325L85.9346 191.333L87.9262 191.515L87.7441 193.507L85.7523 193.325ZM86.1168 189.341L86.2988 187.35L88.2906 187.531L88.1084 189.523L86.1168 189.341Z"   fill="black"/>
<path d="M81.3821 170.431L81.9011 168.5L83.8326 169.019L83.3136 170.95L81.3821 170.431ZM82.4201 166.568L82.9391 164.637L84.8706 165.156L84.3517 167.087L82.4201 166.568ZM85.2451 171.469L85.7641 169.538L87.6955 170.057L87.1766 171.988L85.2451 171.469ZM86.2831 167.607L86.8021 165.675L88.7336 166.194L88.2146 168.126L86.2831 167.607ZM89.1081 172.507L89.6271 170.576L91.5586 171.095L91.0395 173.027L89.1081 172.507ZM90.1461 168.645L90.665 166.713L92.5966 167.232L92.0775 169.163L90.1461 168.645Z"   fill="black"/>
<path d="M100.577 149.073L99.7617 150.899L97.9357 150.085L98.7497 148.258L100.577 149.073ZM98.9477 152.726L98.1327 154.552L96.3067 153.738L97.1207 151.911L98.9477 152.726ZM96.9237 147.443L96.1087 149.27L94.2824 148.455L95.0967 146.629L96.9237 147.443ZM95.2947 151.097L94.4797 152.923L92.6531 152.109L93.4678 150.282L95.2947 151.097ZM93.2705 145.814L92.4558 147.641L90.6293 146.826L91.4439 145L93.2705 145.814ZM91.6412 149.467L90.8266 151.294L89 150.479L89.8146 148.653L91.6412 149.467Z"         fill="black"/>
<path d="M111.456 129.692L110.224 131.267L108.648 130.035L109.881 128.459L111.456 129.692ZM108.991 132.842L107.759 134.418L106.183 133.185L107.416 131.609L108.991 132.842ZM108.306 127.227L107.073 128.802L105.499 127.57L106.73 125.994L108.306 127.227ZM105.841 130.378L104.609 131.952L103.033 130.721L104.266 129.145L105.841 130.378ZM105.156 124.763L103.923 126.337L102.347 125.105L103.58 123.53L105.156 124.763ZM102.69 127.912L101.458 129.488L99.8833 128.255L101.115 126.68L102.69 127.912Z"      fill="black"/>
<path d="M126.286 115.138L124.859 116.539L123.458 115.111L124.885 113.711L126.286 115.138ZM123.431 117.94L122.003 119.34L120.603 117.913L122.03 116.512L123.431 117.94ZM123.485 112.283L122.057 113.684L120.656 112.256L122.084 110.856L123.485 112.283ZM120.63 115.085L119.202 116.485L117.801 115.058L119.229 113.657L120.63 115.085ZM120.683 109.428L119.256 110.829L117.855 109.401L119.283 108L120.683 109.428ZM117.828 112.229L116.401 113.63L115 112.202L116.427 110.802L117.828 112.229Z"              fill="black"/>
<path d="M143.596 103.257L141.944 104.385L140.816 102.734L142.467 101.605L143.596 103.257ZM140.293 105.513L138.642 106.642L137.513 104.99L139.165 103.862L140.293 105.513ZM141.339 99.954L139.688 101.082L138.559 99.431L140.211 98.3027L141.339 99.954ZM138.036 102.211L136.385 103.339L135.257 101.688L136.908 100.559L138.036 102.211ZM139.082 96.6514L137.431 97.7797L136.303 96.1283L137.954 95L139.082 96.6514ZM135.78 98.908L134.128 100.036L133 98.3849L134.651 97.2566L135.78 98.908Z"                fill="black"/>
<path d="M162.54 94.1405L160.712 94.9517L159.901 93.1236L161.729 92.3124L162.54 94.1405ZM158.884 95.7629L157.056 96.5741L156.245 94.746L158.073 93.9348L158.884 95.7629ZM160.918 90.4843L159.09 91.2955L158.279 89.4674L160.107 88.6562L160.918 90.4843ZM157.262 92.1067L155.434 92.9179L154.622 91.0898L156.451 90.2786L157.262 92.1067ZM159.296 86.8281L157.467 87.6393L156.656 85.8112L158.484 85L159.296 86.8281ZM155.639 88.4505L153.811 89.2617L153 87.4336L154.828 86.6224L155.639 88.4505Z"            fill="black"/>
<path d="M181.603 87.5055L179.654 87.9564L179.203 86.0079L181.152 85.557L181.603 87.5055ZM177.706 88.4073L175.757 88.8582L175.306 86.9097L177.255 86.4588L177.706 88.4073ZM180.701 83.6085L178.752 84.0594L178.301 82.1109L180.25 81.6599L180.701 83.6085ZM176.804 84.5103L174.855 84.9612L174.404 83.0127L176.353 82.5618L176.804 84.5103ZM179.799 79.7114L177.851 80.1623L177.4 78.2138L179.348 77.7629L179.799 79.7114ZM175.902 80.6133L173.954 81.0642L173.503 79.1157L175.451 78.6648L175.902 80.6133Z"   fill="black"/>
<path d="M202 86H200V84H202V86ZM198 86H196V84H198V86ZM202 82H200V80H202V82ZM198 82H196V80H198V82ZM202 78H200V76H202V78ZM198 78H196V76H198V78Z"                                                                                                                                                                                                                                                                                                                                                                 fill="black"/>
<path d="M221.942 90.7381L219.961 90.4596L220.24 88.479L222.22 88.7575L221.942 90.7381ZM217.981 90.1811L216 89.9026L216.278 87.9221L218.259 88.2006L217.981 90.1811ZM222.499 86.777L220.518 86.4985L220.797 84.518L222.777 84.7965L222.499 86.777ZM218.538 86.22L216.557 85.9415L216.835 83.961L218.816 84.2395L218.538 86.22ZM223.056 82.816L221.075 82.5375L221.354 80.557L223.334 80.8355L223.056 82.816ZM219.094 82.259L217.114 81.9805L217.392 80L219.373 80.2785L219.094 82.259Z"                        fill="black"/>
<path d="M240.521 96.5506L238.681 95.7678L239.464 93.9273L241.304 94.7101L240.521 96.5506ZM236.84 94.9851L235 94.2023L235.783 92.3619L237.623 93.1446L236.84 94.9851ZM242.087 92.8696L240.246 92.0869L241.029 90.2464L242.87 91.0292L242.087 92.8696ZM238.406 91.3041L236.565 90.5214L237.348 88.6809L239.189 89.4637L238.406 91.3041ZM243.652 89.1887L241.812 88.406L242.595 86.5655L244.435 87.3482L243.652 89.1887ZM239.971 87.6232L238.131 86.8405L238.914 85L240.754 85.7827L239.971 87.6232Z"            fill="black"/>
<path d="M259.988 105.648L258.325 104.536L259.437 102.874L261.1 103.985L259.988 105.648ZM256.663 103.425L255 102.313L256.112 100.651L257.774 101.762L256.663 103.425ZM262.211 102.323L260.548 101.211L261.66 99.5484L263.323 100.66L262.211 102.323ZM258.886 100.1L257.223 98.988L258.335 97.3253L259.997 98.4369L258.886 100.1ZM264.434 98.9973L262.772 97.8858L263.883 96.2231L265.546 97.3347L264.434 98.9973ZM261.109 96.7742L259.446 95.6627L260.558 94L262.22 95.1116L261.109 96.7742Z"                  fill="black"/>
<path d="M275.583 118.511L274.055 117.22L275.346 115.692L276.874 116.983L275.583 118.511ZM272.528 115.929L271 114.639L272.291 113.111L273.818 114.402L272.528 115.929ZM278.165 115.455L276.637 114.165L277.928 112.637L279.455 113.928L278.165 115.455ZM275.109 112.874L273.581 111.583L274.872 110.055L276.4 111.346L275.109 112.874ZM280.746 112.4L279.218 111.109L280.509 109.581L282.037 110.872L280.746 112.4ZM277.691 109.818L276.163 108.528L277.454 107L278.981 108.291L277.691 109.818Z"              fill="black"/>
<path d="M288.466 133.679L287.31 132.047L288.943 130.891L290.098 132.524L288.466 133.679ZM286.155 130.415L284.999 128.782L286.632 127.627L287.787 129.259L286.155 130.415ZM291.731 131.368L290.575 129.736L292.207 128.58L293.363 130.213L291.731 131.368ZM289.419 128.104L288.264 126.471L289.896 125.316L291.052 126.948L289.419 128.104ZM294.995 129.057L293.84 127.425L295.472 126.269L296.628 127.902L294.995 129.057ZM292.684 125.792L291.529 124.16L293.161 123.004L294.317 124.637L292.684 125.792Z"   fill="black"/>
<path d="M299.761 152.122L298.844 150.344L300.622 149.427L301.538 151.205L299.761 152.122ZM297.928 148.566L297.012 146.788L298.789 145.871L299.705 147.649L297.928 148.566ZM303.316 150.289L302.4 148.511L304.178 147.594L305.094 149.372L303.316 150.289ZM301.483 146.733L300.567 144.955L302.345 144.039L303.261 145.816L301.483 146.733ZM306.871 148.456L305.956 146.678L307.733 145.761L308.649 147.539L306.871 148.456ZM305.039 144.901L304.123 143.123L305.901 142.206L306.816 143.984L305.039 144.901Z" fill="black"/>
<path d="M307.296 170.252L306.734 168.332L308.653 167.769L309.216 169.689L307.296 170.252ZM306.171 166.414L305.608 164.494L307.528 163.931L308.09 165.851L306.171 166.414ZM311.134 169.126L310.572 167.207L312.491 166.644L313.054 168.563L311.134 169.126ZM310.009 165.288L309.447 163.368L311.366 162.806L311.928 164.725L310.009 165.288ZM314.973 168.001L314.411 166.082L316.33 165.518L316.892 167.438L314.973 168.001ZM313.848 164.162L313.285 162.243L315.205 161.68L315.766 163.6L313.848 164.162Z"    fill="black"/>
<path d="M310.368 190.609L310.296 188.611L312.295 188.538L312.367 190.538L310.368 190.609ZM310.224 186.613L310.151 184.613L312.15 184.542L312.222 186.54L310.224 186.613ZM314.366 190.465L314.293 188.466L316.292 188.394L316.364 190.393L314.366 190.465ZM314.221 186.467L314.148 184.469L316.147 184.396L316.219 186.395L314.221 186.467ZM318.363 190.32L318.291 188.322L320.289 188.249L320.362 190.247L318.363 190.32ZM318.218 186.323L318.146 184.324L320.144 184.252L320.217 186.25L318.218 186.323Z"    fill="black"/>
<path d="M310.019 212.989L310.193 210.996L312.186 211.171L312.012 213.164L310.019 212.989ZM310.369 209.004L310.543 207.011L312.535 207.187L312.361 209.179L310.369 209.004ZM314.004 213.338L314.178 211.345L316.171 211.521L315.997 213.513L314.004 213.338ZM314.353 209.353L314.528 207.361L316.52 207.536L316.346 209.528L314.353 209.353ZM317.989 213.687L318.163 211.695L320.156 211.87L319.982 213.862L317.989 213.687ZM318.338 209.702L318.512 207.71L320.505 207.885L320.331 209.877L318.338 209.702Z"  fill="black"/>
<path d="M316.278 230.848L315.904 232.813L313.939 232.438L314.313 230.473L316.278 230.848ZM315.53 234.777L315.157 236.742L313.192 236.368L313.565 234.403L315.53 234.777ZM312.348 230.1L311.974 232.065L310.009 231.692L310.383 229.727L312.348 230.1ZM311.601 234.03L311.228 235.995L309.262 235.622L309.636 233.657L311.601 234.03ZM308.418 229.353L308.044 231.318L306.08 230.945L306.454 228.98L308.418 229.353ZM307.671 233.283L307.297 235.248L305.332 234.874L305.706 232.909L307.671 233.283Z"         fill="black"/>
<path d="M309.589 251.683L308.777 253.511L306.949 252.698L307.761 250.871L309.589 251.683ZM307.965 255.338L307.153 257.166L305.325 256.354L306.137 254.527L307.965 255.338ZM305.934 250.058L305.122 251.887L303.294 251.075L304.105 249.247L305.934 250.058ZM304.309 253.714L303.498 255.542L301.669 254.73L302.482 252.902L304.309 253.714ZM302.278 248.435L301.465 250.262L299.638 249.451L300.45 247.622L302.278 248.435ZM300.654 252.09L299.842 253.918L298.014 253.106L298.827 251.278L300.654 252.09Z"   fill="black"/>
<path d="M300.376 272.585L299.198 274.202L297.581 273.024L298.759 271.408L300.376 272.585ZM298.022 275.819L296.844 277.436L295.227 276.258L296.405 274.641L298.022 275.819ZM297.142 270.23L295.964 271.848L294.348 270.67L295.525 269.054L297.142 270.23ZM294.788 273.464L293.61 275.081L291.993 273.904L293.171 272.287L294.788 273.464ZM293.908 267.876L292.731 269.493L291.114 268.315L292.291 266.698L293.908 267.876ZM291.554 271.11L290.377 272.727L288.76 271.549L289.937 269.932L291.554 271.11Z"      fill="black"/>
<path d="M287.407 293.003L285.906 294.325L284.584 292.823L286.086 291.502L287.407 293.003ZM284.404 295.645L282.903 296.966L281.581 295.465L283.083 294.143L284.404 295.645ZM284.765 290L283.264 291.321L281.943 289.819L283.444 288.498L284.765 290ZM281.761 292.642L280.26 293.963L278.94 292.462L280.441 291.141L281.761 292.642ZM282.123 286.997L280.621 288.318L279.3 286.816L280.801 285.495L282.123 286.997ZM279.12 289.639L277.618 290.96L276.297 289.459L277.799 288.138L279.12 289.639Z"              fill="black"/>
<path d="M271.017 308.673L269.482 309.955L268.2 308.421L269.734 307.138L271.017 308.673ZM267.948 311.238L266.413 312.521L265.131 310.986L266.665 309.703L267.948 311.238ZM268.452 305.604L266.917 306.886L265.634 305.352L267.169 304.069L268.452 305.604ZM265.383 308.169L263.848 309.452L262.565 307.917L264.1 306.634L265.383 308.169ZM265.886 302.535L264.352 303.817L263.069 302.283L264.604 301L265.886 302.535ZM262.817 305.1L261.283 306.383L260 304.848L261.535 303.565L262.817 305.1Z"               fill="black"/>
<path d="M252.055 321.78L250.299 322.737L249.342 320.981L251.098 320.024L252.055 321.78ZM248.543 323.695L246.787 324.652L245.83 322.896L247.586 321.939L248.543 323.695ZM250.14 318.268L248.384 319.225L247.427 317.469L249.183 316.512L250.14 318.268ZM246.628 320.183L244.872 321.14L243.915 319.384L245.671 318.427L246.628 320.183ZM248.225 314.756L246.469 315.713L245.512 313.957L247.268 313L248.225 314.756ZM244.713 316.671L242.957 317.628L242 315.872L243.756 314.915L244.713 316.671Z"             fill="black"/>
<path d="M229.443 330.64L227.515 331.172L226.983 329.244L228.911 328.712L229.443 330.64ZM225.587 331.704L223.659 332.235L223.127 330.307L225.055 329.776L225.587 331.704ZM228.379 326.784L226.451 327.316L225.92 325.388L227.848 324.856L228.379 326.784ZM224.523 327.848L222.595 328.379L222.064 326.451L223.992 325.92L224.523 327.848ZM227.316 322.928L225.388 323.46L224.856 321.532L226.784 321L227.316 322.928ZM223.46 323.992L221.532 324.523L221 322.595L222.928 322.064L223.46 323.992Z"              fill="black"/>
<path d="M206.359 335.899L204.379 336.183L204.095 334.203L206.075 333.919L206.359 335.899ZM202.4 336.467L200.42 336.751L200.136 334.771L202.116 334.487L202.4 336.467ZM205.791 331.939L203.811 332.223L203.527 330.243L205.507 329.959L205.791 331.939ZM201.832 332.507L199.852 332.791L199.568 330.811L201.548 330.527L201.832 332.507ZM205.223 327.98L203.243 328.264L202.959 326.284L204.939 326L205.223 327.98ZM201.264 328.548L199.284 328.832L199 326.852L200.98 326.568L201.264 328.548Z"               fill="black"/>
<path d="M183 338H181V336H183V338ZM179 338H177V336H179V338ZM183 334H181V332H183V334ZM179 334H177V332H179V334ZM183 330H181V328H183V330ZM179 330H177V328H179V330Z"                                                                                                                                                                                                                                                                                                                                               fill="black"/>
<path d="M160.905 336.906L158.936 336.551L159.291 334.583L161.26 334.938L160.905 336.906ZM156.968 336.196L155 335.841L155.355 333.873L157.323 334.228L156.968 336.196ZM161.615 332.97L159.646 332.615L160.001 330.646L161.97 331.001L161.615 332.97ZM157.678 332.26L155.71 331.905L156.065 329.936L158.033 330.291L157.678 332.26ZM162.325 329.033L160.356 328.678L160.711 326.71L162.68 327.065L162.325 329.033ZM158.388 328.323L156.42 327.968L156.775 326L158.743 326.355L158.388 328.323Z"                 fill="black"/>
<path d="M138.579 331.506L136.719 330.77L137.455 328.911L139.315 329.647L138.579 331.506ZM134.86 330.034L133 329.298L133.736 327.438L135.596 328.174L134.86 330.034ZM140.051 327.787L138.192 327.051L138.928 325.192L140.787 325.928L140.051 327.787ZM136.332 326.315L134.472 325.579L135.209 323.719L137.068 324.455L136.332 326.315ZM141.523 324.068L139.664 323.332L140.4 321.472L142.26 322.209L141.523 324.068ZM137.804 322.596L135.945 321.86L136.681 320L138.541 320.736L137.804 322.596Z"              fill="black"/>
<path d="M117.261 323.653L115.507 322.692L116.469 320.938L118.223 321.899L117.261 323.653ZM113.754 321.73L112 320.769L112.962 319.015L114.715 319.976L113.754 321.73ZM119.184 320.146L117.43 319.184L118.392 317.43L120.146 318.392L119.184 320.146ZM115.677 318.223L113.923 317.261L114.885 315.507L116.638 316.469L115.677 318.223ZM121.107 316.638L119.353 315.677L120.315 313.923L122.069 314.885L121.107 316.638ZM117.6 314.715L115.846 313.754L116.808 312L118.561 312.962L117.6 314.715Z"               fill="black"/>
<path d="M97.8143 312.605L96.2095 311.411L97.4032 309.806L99.0079 311L97.8143 312.605ZM94.6048 310.217L93 309.024L94.1936 307.419L95.7984 308.613L94.6048 310.217ZM100.202 309.395L98.5968 308.202L99.7904 306.597L101.395 307.79L100.202 309.395ZM96.992 307.008L95.3872 305.814L96.5808 304.21L98.1856 305.403L96.992 307.008ZM102.589 306.186L100.984 304.992L102.178 303.387L103.782 304.581L102.589 306.186ZM99.3792 303.798L97.7744 302.605L98.968 301L100.573 302.194L99.3792 303.798Z"                 fill="black"/>
<path d="M79.8182 296.457L78.468 294.981L79.9433 293.632L81.2935 295.107L79.8182 296.457ZM77.1177 293.506L75.7675 292.031L77.243 290.68L78.593 292.157L77.1177 293.506ZM82.769 293.757L81.4187 292.281L82.8942 290.931L84.2444 292.406L82.769 293.757ZM80.0685 290.806L78.7182 289.331L80.1937 287.98L81.544 289.456L80.0685 290.806ZM85.7197 291.057L84.3697 289.58L85.845 288.231L87.1953 289.706L85.7197 291.057ZM83.0195 288.105L81.6692 286.63L83.1447 285.279L84.4947 286.756L83.0195 288.105Z"          fill="black"/>
<path d="M65.4523 277.661L64.3015 276.025L65.9373 274.875L67.088 276.51L65.4523 277.661ZM63.1507 274.39L62 272.754L63.6358 271.603L64.7865 273.239L63.1507 274.39ZM68.7238 275.36L67.573 273.724L69.2088 272.573L70.3596 274.209L68.7238 275.36ZM66.4223 272.088L65.2715 270.452L66.9073 269.301L68.0581 270.937L66.4223 272.088ZM71.9953 273.058L70.8446 271.422L72.4804 270.271L73.6311 271.907L71.9953 273.058ZM69.6938 269.786L68.5431 268.151L70.1789 267L71.3296 268.636L69.6938 269.786Z"               fill="black"/>
<path d="M53.5556 258.318L52.6785 256.521L54.476 255.644L55.3531 257.441L53.5556 258.318ZM51.8015 254.724L50.9244 252.926L52.7217 252.049L53.5988 253.846L51.8015 254.724ZM57.1504 256.564L56.2733 254.767L58.0708 253.89L58.9479 255.687L57.1504 256.564ZM55.3962 252.969L54.5191 251.172L56.3165 250.295L57.1937 252.092L55.3962 252.969ZM60.7452 254.81L59.8681 253.013L61.6656 252.135L62.5427 253.933L60.7452 254.81ZM58.991 251.215L58.1139 249.418L59.9114 248.541L60.7885 250.338L58.991 251.215Z"     fill="black"/>
<path d="M44.5434 236.552L44.0769 234.608L46.0217 234.142L46.4882 236.086L44.5434 236.552ZM43.6104 232.663L43.144 230.718L45.0888 230.251L45.5553 232.196L43.6104 232.663ZM48.4331 235.619L47.9666 233.675L49.9115 233.208L50.3779 235.154L48.4331 235.619ZM47.5001 231.73L47.0336 229.785L48.9785 229.319L49.445 231.263L47.5001 231.73ZM52.3228 234.687L51.8563 232.742L53.8012 232.275L54.2677 234.22L52.3228 234.687ZM51.3898 230.797L50.9233 228.853L52.8682 228.386L53.3347 230.33L51.3898 230.797Z"     fill="black"/>
<path d="M40.3227 213.529L40.2151 211.532L42.2122 211.424L42.3198 213.421L40.3227 213.529ZM40.1075 209.535L40 207.537L41.9971 207.43L42.1046 209.427L40.1075 209.535ZM44.3169 213.314L44.2093 211.317L46.2064 211.209L46.314 213.206L44.3169 213.314ZM44.1017 209.319L43.9942 207.322L45.9913 207.215L46.0989 209.212L44.1017 209.319ZM48.3111 213.098L48.2035 211.101L50.2006 210.994L50.3082 212.991L48.3111 213.098ZM48.096 209.104L47.9884 207.107L49.9855 207L50.0931 208.997L48.096 209.104Z"            fill="black"/>
<path d="M39.4447 190.709L39.6521 188.72L41.6414 188.927L41.434 190.917L39.4447 190.709ZM39.8594 186.73L40.0668 184.741L42.056 184.949L41.8487 186.938L39.8594 186.73ZM43.4231 191.123L43.6306 189.135L45.6198 189.342L45.4124 191.331L43.4231 191.123ZM43.8379 187.146L44.0453 185.157L46.0345 185.363L45.8271 187.353L43.8379 187.146ZM47.4016 191.539L47.609 189.55L49.5982 189.756L49.3909 191.746L47.4016 191.539ZM47.8163 187.56L48.0237 185.571L50.0129 185.778L49.8056 187.767L47.8163 187.56Z"        fill="black"/>
<path d="M53.394 165.153L52.8414 167.075L50.9193 166.523L51.4718 164.6L53.394 165.153ZM52.2888 168.997L51.7363 170.92L49.8141 170.367L50.3667 168.445L52.2888 168.997ZM49.5497 164.048L48.9971 165.97L47.0749 165.418L47.6275 163.496L49.5497 164.048ZM48.4446 167.893L47.892 169.814L45.9698 169.262L46.5223 167.339L48.4446 167.893ZM45.7053 162.942L45.1528 164.865L43.2307 164.312L43.7833 162.39L45.7053 162.942ZM44.6002 166.787L44.0476 168.709L42.1256 168.157L42.6781 166.234L44.6002 166.787Z"       fill="black"/>
<path d="M60.6196 145.396L59.7403 147.193L57.944 146.313L58.8232 144.517L60.6196 145.396ZM58.861 148.989L57.9818 150.785L56.1854 149.906L57.0647 148.11L58.861 148.989ZM57.0269 143.638L56.1476 145.434L54.3513 144.555L55.2305 142.758L57.0269 143.638ZM55.2683 147.23L54.3891 149.027L52.5927 148.147L53.472 146.351L55.2683 147.23ZM53.4342 141.879L52.5549 143.675L50.7586 142.796L51.6378 141L53.4342 141.879ZM51.6756 145.472L50.7964 147.268L49 146.389L49.8793 144.593L51.6756 145.472Z"               fill="black"/>
<path d="M70.6601 124.294L69.6012 125.991L67.9045 124.932L68.9634 123.235L70.6601 124.294ZM68.5423 127.687L67.4834 129.384L65.7867 128.325L66.8456 126.629L68.5423 127.687ZM67.2668 122.176L66.2078 123.873L64.5112 122.814L65.5701 121.117L67.2668 122.176ZM65.1489 125.57L64.09 127.266L62.3933 126.207L63.4523 124.511L65.1489 125.57ZM63.8734 120.058L62.8145 121.755L61.1178 120.696L62.1767 119L63.8734 120.058ZM61.7556 123.452L60.6967 125.148L59 124.09L60.0589 122.393L61.7556 123.452Z"             fill="black"/>
<path d="M82.6032 105.343L81.4578 106.983L79.8183 105.837L80.9636 104.197L82.6032 105.343ZM80.3124 108.622L79.1668 110.261L77.5275 109.117L78.6729 107.477L80.3124 108.622ZM79.3244 103.053L78.1787 104.691L76.5392 103.546L77.6849 101.907L79.3244 103.053ZM77.0334 106.331L75.888 107.971L74.2484 106.825L75.3939 105.186L77.0334 106.331ZM76.0453 100.761L74.9 102.401L73.2605 101.256L74.4058 99.6158L76.0453 100.761ZM73.7543 104.04L72.609 105.68L70.9695 104.534L72.1148 102.894L73.7543 104.04Z"       fill="black"/>
<path d="M97.4308 86.9876L96.1399 88.5153L94.6123 87.2245L95.9032 85.6968L97.4308 86.9876ZM94.8492 90.0429L93.5583 91.5706L92.0307 90.2797L93.3214 88.7521L94.8492 90.0429ZM94.3755 84.406L93.0847 85.9336L91.557 84.6427L92.8479 83.1151L94.3755 84.406ZM91.7938 87.4612L90.5029 88.9889L88.9753 87.698L90.2662 86.1704L91.7938 87.4612ZM91.3202 81.8242L90.0294 83.3519L88.5017 82.061L89.7926 80.5334L91.3202 81.8242ZM88.7385 84.8795L87.4477 86.4071L85.92 85.1163L87.2109 83.5886L88.7385 84.8795Z"      fill="black"/>
<path d="M116.302 74.0849L114.88 75.4924L113.473 74.0713L114.895 72.6639L116.302 74.0849ZM113.46 76.8995L112.038 78.3069L110.631 76.8858L112.052 75.4784L113.46 76.8995ZM113.487 71.2428L112.066 72.6502L110.659 71.2288L112.08 69.8217L113.487 71.2428ZM110.645 74.0574L109.223 75.4647L107.816 74.0437L109.237 72.6362L110.645 74.0574ZM110.672 68.4007L109.252 69.8077L107.844 68.3866L109.265 66.9796L110.672 68.4007ZM107.83 71.2152L106.409 72.6223L105.002 71.2012L106.423 69.7941L107.83 71.2152Z"     fill="black"/>
<path d="M135.087 63.7531L133.337 64.7202L132.37 62.9696L134.12 62.0025L135.087 63.7531ZM131.586 65.6873L129.836 66.6545L128.868 64.9038L130.619 63.9367L131.586 65.6873ZM133.153 60.2519L131.403 61.219L130.435 59.4684L132.186 58.5012L133.153 60.2519ZM129.652 62.1861L127.901 63.1532L126.934 61.4026L128.685 60.4355L129.652 62.1861ZM131.219 56.7506L129.468 57.7177L128.501 55.9671L130.252 55L131.219 56.7506ZM127.718 58.6849L125.967 59.652L125 57.9014L126.751 56.9342L127.718 58.6849Z"            fill="black"/>
<path d="M154.094 55.2478L152.235 55.9843L151.498 54.1249L153.357 53.3884L154.094 55.2478ZM150.375 56.7209L148.516 57.4574L147.779 55.598L149.639 54.8614L150.375 56.7209ZM152.621 51.5289L150.761 52.2655L150.025 50.406L151.884 49.6695L152.621 51.5289ZM148.902 53.002L147.043 53.7385L146.306 51.8791L148.166 51.1426L148.902 53.002ZM151.148 47.81L149.288 48.5466L148.552 46.6871L150.411 45.9506L151.148 47.81ZM147.429 49.2831L145.57 50.0197L144.833 48.1602L146.692 47.4237L147.429 49.2831Z"        fill="black"/>
<path d="M174.786 50.7127L172.829 51.1266L172.415 49.1699L174.372 48.756L174.786 50.7127ZM170.873 51.5405L168.916 51.9545L168.502 49.9978L170.459 49.5838L170.873 51.5405ZM173.958 46.7993L172.001 47.2132L171.588 45.2565L173.544 44.8426L173.958 46.7993ZM170.045 47.6271L168.088 48.0411L167.674 46.0844L169.631 45.6704L170.045 47.6271ZM173.13 42.8859L171.174 43.2998L170.76 41.3431L172.716 40.9292L173.13 42.8859ZM169.217 43.7137L167.26 44.1277L166.846 42.171L168.803 41.757L169.217 43.7137Z"      fill="black"/>
<path d="M196.625 47.9797L194.629 48.1071L194.501 46.1111L196.497 45.9838L196.625 47.9797ZM192.633 48.2344L190.637 48.3618L190.509 46.3658L192.505 46.2385L192.633 48.2344ZM196.37 43.9878L194.374 44.1152L194.247 42.1192L196.243 41.9919L196.37 43.9878ZM192.378 44.2425L190.382 44.3699L190.255 42.3739L192.251 42.2466L192.378 44.2425ZM196.115 39.996L194.119 40.1233L193.992 38.1274L195.988 38L196.115 39.996ZM192.123 40.2506L190.127 40.378L190 38.382L191.996 38.2547L192.123 40.2506Z"              fill="black"/>
</svg>
