<svg width="390" height="390" viewBox="0 0 390 390" fill="none" xmlns="http://www.w3.org/2000/svg">
<path d="M189.617 191.666L189.07 189.742L190.993 189.195L191.541 191.119L189.617 191.666ZM188.522 187.819L187.975 185.895L189.899 185.348L190.446 187.271L188.522 187.819ZM193.465 190.571L192.917 188.647L194.841 188.1L195.388 190.024L193.465 190.571ZM192.37 186.724L191.822 184.8L193.746 184.253L194.293 186.176L192.37 186.724ZM197.312 189.476L196.764 187.553L198.688 187.005L199.235 188.929L197.312 189.476ZM196.217 185.629L195.669 183.705L197.593 183.158L198.141 185.082L196.217 185.629ZZ"        fill="black"/>
<path d="M196.462 203.207L195.975 201.267L197.915 200.779L198.402 202.719L196.462 203.207ZM195.487 199.327L195 197.387L196.94 196.9L197.427 198.84L195.487 199.327ZM200.342 202.232L199.854 200.292L201.794 199.804L202.282 201.744L200.342 202.232ZM199.367 198.352L198.879 196.412L200.819 195.925L201.307 197.865L199.367 198.352ZM204.221 201.257L203.734 199.317L205.673 198.829L206.161 200.769L204.221 201.257ZM203.246 197.377L202.759 195.437L204.698 194.95L205.186 196.89L203.246 197.377ZZ"           fill="black"/>
<path d="M189.423 209.602L190.591 207.978L192.215 209.146L191.047 210.77L189.423 209.602ZM191.759 206.355L192.927 204.731L194.551 205.899L193.383 207.523L191.759 206.355ZM192.67 211.938L193.838 210.314L195.462 211.482L194.294 213.106L192.67 211.938ZM195.006 208.691L196.174 207.067L197.798 208.235L196.63 209.859L195.006 208.691ZM195.917 214.274L197.085 212.65L198.709 213.818L197.541 215.442L195.917 214.274ZM198.253 211.027L199.421 209.403L201.045 210.571L199.877 212.195L198.253 211.027ZZ"      fill="black"/>
<path d="M186 227L184 227L184 225L186 225L186 227ZM182 227L180 227L180 225L182 225L182 227ZM186 223L184 223L184 221L186 221L186 223ZM182 223L180 223L180 221L182 221L182 223ZM186 219L184 219L184 217L186 217L186 219ZM182 219L180 219L180 217L182 217L182 219ZZ"                                                                                                                                                                                                                                                 fill="black"/>
<path d="M166.894 227.25L165.185 226.212L166.222 224.503L167.932 225.541L166.894 227.25ZM163.475 225.175L161.765 224.137L162.803 222.427L164.513 223.465L163.475 225.175ZM168.97 223.831L167.26 222.793L168.298 221.083L170.008 222.121L168.97 223.831ZM165.551 221.755L163.841 220.717L164.879 219.008L166.588 220.046L165.551 221.755ZM171.046 220.412L169.336 219.374L170.374 217.664L172.083 218.702L171.046 220.412ZM167.626 218.336L165.917 217.298L166.954 215.588L168.664 216.626L167.626 218.336ZZ"      fill="black"/>
<path d="M153.057 210.464L152.227 208.645L154.046 207.815L154.876 209.634L153.057 210.464ZM151.397 206.825L150.567 205.005L152.386 204.175L153.216 205.995L151.397 206.825ZM156.696 208.804L155.866 206.985L157.686 206.155L158.516 207.974L156.696 208.804ZM155.036 205.165L154.206 203.345L156.026 202.516L156.856 204.335L155.036 205.165ZM160.335 207.144L159.505 205.325L161.325 204.495L162.155 206.314L160.335 207.144ZM158.675 203.505L157.845 201.686L159.665 200.856L160.495 202.675L158.675 203.505ZZ" fill="black"/>
<path d="M153.849 194.502L153.959 192.505L155.956 192.615L155.846 194.612L153.849 194.502ZM154.068 190.508L154.178 188.511L156.175 188.621L156.065 190.618L154.068 190.508ZM157.843 194.721L157.953 192.724L159.95 192.834L159.84 194.831L157.843 194.721ZM158.062 190.727L158.172 188.73L160.169 188.84L160.059 190.837L158.062 190.727ZM161.837 194.941L161.947 192.944L163.944 193.053L163.834 195.05L161.837 194.941ZM162.056 190.947L162.166 188.95L164.163 189.059L164.053 191.056L162.056 190.947ZZ"       fill="black"/>
<path d="M178.39 178.351L177.494 180.139L175.706 179.243L176.602 177.455L178.39 178.351ZM176.598 181.927L175.702 183.715L173.914 182.819L174.81 181.031L176.598 181.927ZM174.814 176.559L173.918 178.347L172.13 177.45L173.026 175.662L174.814 176.559ZM173.022 180.135L172.126 181.922L170.338 181.026L171.234 179.238L173.022 180.135ZM171.238 174.766L170.342 176.554L168.554 175.658L169.45 173.87L171.238 174.766ZM169.446 178.342L168.55 180.13L166.762 179.234L167.658 177.446L169.446 178.342ZZ"          fill="black"/>
<path d="M187.614 168.974L186.245 170.432L184.787 169.063L186.156 167.605L187.614 168.974ZM184.876 171.89L183.507 173.348L182.049 171.979L183.418 170.521L184.876 171.89ZM184.698 166.236L183.329 167.694L181.871 166.325L183.241 164.867L184.698 166.236ZM181.96 169.152L180.591 170.61L179.133 169.241L180.502 167.783L181.96 169.152ZM181.783 163.498L180.414 164.956L178.956 163.586L180.325 162.129L181.783 163.498ZM179.044 166.414L177.675 167.871L176.217 166.502L177.586 165.044L179.044 166.414ZZ"      fill="black"/>
<path d="M201 170L199 170L199 168L201 168L201 170ZM197 170L195 170L195 168L197 168L197 170ZM201 166L199 166L199 164L201 164L201 166ZM197 166L195 166L195 164L197 164L197 166ZM201 162L199 162L199 160L201 160L201 162ZM197 162L195 162L195 160L197 160L197 162ZZ"                                                                                                                                                                                                                                                 fill="black"/>
<path d="M216 171L214 171L214 169L216 169L216 171ZM212 171L210 171L210 169L212 169L212 171ZM216 167L214 167L214 165L216 165L216 167ZM212 167L210 167L210 165L212 165L212 167ZM216 163L214 163L214 161L216 161L216 163ZM212 163L210 163L210 161L212 161L212 163ZZ"                                                                                                                                                                                                                                                 fill="black"/>
<path d="M222.048 180.572L220.698 179.096L222.175 177.746L223.524 179.223L222.048 180.572ZM219.349 177.619L218 176.143L219.476 174.794L220.826 176.27L219.349 177.619ZM225 177.874L223.651 176.397L225.127 175.048L226.477 176.524L225 177.874ZM222.302 174.921L220.953 173.445L222.429 172.095L223.778 173.572L222.302 174.921ZM227.953 175.175L226.604 173.699L228.08 172.35L229.429 173.826L227.953 175.175ZM225.255 172.222L223.905 170.746L225.382 169.397L226.731 170.873L225.255 172.222ZZ"                fill="black"/>
<path d="M228.222 191.432L227.654 189.514L229.572 188.946L230.14 190.864L228.222 191.432ZM227.086 187.596L226.519 185.679L228.436 185.111L229.004 187.029L227.086 187.596ZM232.057 190.296L231.49 188.378L233.407 187.811L233.975 189.728L232.057 190.296ZM230.922 186.461L230.354 184.543L232.272 183.975L232.84 185.893L230.922 186.461ZM235.893 189.16L235.325 187.243L237.243 186.675L237.811 188.593L235.893 189.16ZM234.757 185.325L234.189 183.407L236.107 182.84L236.675 184.757L234.757 185.325ZZ"       fill="black"/>
<path d="M246.973 201.863L246.321 203.754L244.43 203.103L245.082 201.212L246.973 201.863ZM245.67 205.645L245.018 207.536L243.127 206.885L243.779 204.994L245.67 205.645ZM243.191 200.56L242.539 202.451L240.648 201.8L241.3 199.909L243.191 200.56ZM241.888 204.342L241.236 206.233L239.346 205.582L239.997 203.691L241.888 204.342ZM239.409 199.257L238.758 201.148L236.867 200.497L237.518 198.606L239.409 199.257ZM238.106 203.039L237.455 204.93L235.564 204.279L236.215 202.388L238.106 203.039ZZ"           fill="black"/>
<path d="M224.669 217.29L225.633 215.537L227.385 216.501L226.421 218.254L224.669 217.29ZM226.597 213.785L227.561 212.033L229.313 212.997L228.349 214.749L226.597 213.785ZM228.173 219.218L229.137 217.466L230.89 218.43L229.925 220.182L228.173 219.218ZM230.101 215.713L231.066 213.961L232.818 214.925L231.854 216.678L230.101 215.713ZM231.678 221.146L232.642 219.394L234.394 220.358L233.43 222.11L231.678 221.146ZM233.606 217.642L234.57 215.89L236.322 216.854L235.358 218.606L233.606 217.642ZZ"         fill="black"/>
<path d="M232.812 240.182L231.237 241.413L230.005 239.838L231.581 238.606L232.812 240.182ZM229.661 242.645L228.085 243.877L226.853 242.301L228.429 241.069L229.661 242.645ZM230.349 237.03L228.773 238.262L227.542 236.686L229.117 235.455L230.349 237.03ZM227.197 239.494L225.622 240.725L224.39 239.15L225.966 237.918L227.197 239.494ZM227.886 233.879L226.31 235.11L225.078 233.535L226.654 232.303L227.886 233.879ZM224.734 236.342L223.158 237.574L221.927 235.998L223.502 234.766L224.734 236.342ZZ"       fill="black"/>
<path d="M216.249 249.12L214.542 250.162L213.5 248.454L215.207 247.413L216.249 249.12ZM212.835 251.203L211.127 252.245L210.085 250.538L211.793 249.496L212.835 251.203ZM214.165 245.705L212.458 246.747L211.416 245.04L213.124 243.998L214.165 245.705ZM210.751 247.789L209.044 248.831L208.002 247.124L209.709 246.082L210.751 247.789ZM212.082 242.291L210.375 243.333L209.333 241.625L211.04 240.584L212.082 242.291ZM208.667 244.375L206.96 245.416L205.918 243.709L207.625 242.667L208.667 244.375ZZ"        fill="black"/>
<path d="M196 262L194 262L194 260L196 260L196 262ZM192 262L190 262L190 260L192 260L192 262ZM196 258L194 258L194 256L196 256L196 258ZM192 258L190 258L190 256L192 256L192 258ZM196 254L194 254L194 252L196 252L196 254ZM192 254L190 254L190 252L192 252L192 254ZZ"                                                                                                                                                                                                                                                 fill="black"/>
<path d="M177 262L175 262L175 260L177 260L177 262ZM173 262L171 262L171 260L173 260L173 262ZM177 258L175 258L175 256L177 256L177 258ZM173 258L171 258L171 256L173 256L173 258ZM177 254L175 254L175 252L177 252L177 254ZM173 254L171 254L171 252L173 252L173 254ZZ"                                                                                                                                                                                                                                                 fill="black"/>
<path d="M160 257L158 257L158 255L160 255L160 257ZM156 257L154 257L154 255L156 255L156 257ZM160 253L158 253L158 251L160 251L160 253ZM156 253L154 253L154 251L156 251L156 253ZM160 249L158 249L158 247L160 247L160 249ZM156 249L154 249L154 247L156 247L156 249ZZ"                                                                                                                                                                                                                                                 fill="black"/>
<path d="M136.735 244.474L135.325 243.056L136.742 241.646L138.153 243.064L136.735 244.474ZM133.914 241.638L132.504 240.22L133.921 238.81L135.332 240.228L133.914 241.638ZM139.571 241.653L138.16 240.235L139.578 238.825L140.989 240.243L139.571 241.653ZM136.75 238.817L135.339 237.399L136.757 235.989L138.168 237.407L136.75 238.817ZM142.407 238.832L140.996 237.414L142.414 236.004L143.825 237.422L142.407 238.832ZM139.586 235.996L138.175 234.578L139.593 233.168L141.004 234.586L139.586 235.996ZZ"      fill="black"/>
<path d="M126.351 227.622L125.203 225.984L126.841 224.836L127.989 226.474L126.351 227.622ZM124.056 224.346L122.908 222.708L124.546 221.56L125.694 223.198L124.056 224.346ZM129.627 225.326L128.479 223.688L130.117 222.541L131.265 224.178L129.627 225.326ZM127.331 222.05L126.184 220.413L127.822 219.265L128.969 220.903L127.331 222.05ZM132.903 223.031L131.755 221.393L133.393 220.245L134.541 221.883L132.903 223.031ZM130.607 219.755L129.459 218.117L131.097 216.969L132.245 218.607L130.607 219.755ZZ"    fill="black"/>
<path d="M118.679 212.404L117.786 210.615L119.575 209.722L120.468 211.512L118.679 212.404ZM116.893 208.825L116 207.036L117.79 206.143L118.682 207.932L116.893 208.825ZM122.258 210.619L121.365 208.829L123.155 207.936L124.047 209.726L122.258 210.619ZM120.472 207.039L119.579 205.25L121.369 204.357L122.262 206.147L120.472 207.039ZM125.837 208.833L124.944 207.043L126.734 206.151L127.627 207.94L125.837 208.833ZM124.051 205.254L123.159 203.464L124.948 202.571L125.841 204.361L124.051 205.254ZZ"        fill="black"/>
<path d="M136.913 188.043L136.13 189.884L134.289 189.101L135.072 187.261L136.913 188.043ZM135.347 191.724L134.565 193.565L132.724 192.782L133.507 190.942L135.347 191.724ZM133.231 186.478L132.449 188.319L130.608 187.536L131.391 185.695L133.231 186.478ZM131.666 190.159L130.884 192L129.043 191.217L129.826 189.377L131.666 190.159ZM129.55 184.913L128.768 186.753L126.927 185.971L127.71 184.13L129.55 184.913ZM127.985 188.594L127.203 190.434L125.362 189.652L126.145 187.811L127.985 188.594ZZ"          fill="black"/>
<path d="M141.774 167.163L141.423 169.132L139.454 168.781L139.805 166.812L141.774 167.163ZM141.071 171.101L140.72 173.07L138.751 172.718L139.102 170.749L141.071 171.101ZM137.837 166.46L137.485 168.429L135.516 168.078L135.868 166.109L137.837 166.46ZM137.134 170.398L136.782 172.367L134.813 172.015L135.165 170.047L137.134 170.398ZM133.899 165.757L133.547 167.726L131.578 167.375L131.93 165.406L133.899 165.757ZM133.196 169.695L132.844 171.664L130.876 171.312L131.227 169.344L133.196 169.695ZZ"      fill="black"/>
<path d="M148.405 151.4L146.965 152.787L145.577 151.347L147.017 149.96L148.405 151.4ZM145.524 154.175L144.084 155.563L142.696 154.122L144.137 152.735L145.524 154.175ZM145.63 148.519L144.189 149.907L142.802 148.467L144.242 147.079L145.63 148.519ZM142.749 151.295L141.309 152.682L139.921 151.242L141.361 149.854L142.749 151.295ZM142.854 145.639L141.414 147.026L140.026 145.586L141.467 144.198L142.854 145.639ZM139.974 148.414L138.533 149.802L137.146 148.361L138.586 146.974L139.974 148.414ZZ"        fill="black"/>
<path d="M168.782 140.29L167.528 141.848L165.97 140.594L167.225 139.036L168.782 140.29ZM166.273 143.406L165.019 144.963L163.461 143.709L164.716 142.151L166.273 143.406ZM165.667 137.781L164.412 139.339L162.855 138.085L164.109 136.527L165.667 137.781ZM163.158 140.897L161.903 142.454L160.346 141.2L161.6 139.642L163.158 140.897ZM162.552 135.272L161.297 136.83L159.74 135.576L160.994 134.018L162.552 135.272ZM160.043 138.388L158.788 139.945L157.231 138.691L158.485 137.133L160.043 138.388ZZ"          fill="black"/>
<path d="M179 138L177 138L177 136L179 136L179 138ZM175 138L173 138L173 136L175 136L175 138ZM179 134L177 134L177 132L179 132L179 134ZM175 134L173 134L173 132L175 132L175 134ZM179 130L177 130L177 128L179 128L179 130ZM175 130L173 130L173 128L175 128L175 130ZZ"                                                                                                                                                                                                                                                 fill="black"/>
<path d="M196 132L194 132L194 130L196 130L196 132ZM192 132L190 132L190 130L192 130L192 132ZM196 128L194 128L194 126L196 126L196 128ZM192 128L190 128L190 126L192 126L192 128ZM196 124L194 124L194 122L196 122L196 124ZM192 124L190 124L190 122L192 122L192 124ZZ"                                                                                                                                                                                                                                                 fill="black"/>
<path d="M214 133L212 133L212 131L214 131L214 133ZM210 133L208 133L208 131L210 131L210 133ZM214 129L212 129L212 127L214 127L214 129ZM210 129L208 129L208 127L210 127L210 129ZM214 125L212 125L212 123L214 123L214 125ZM210 125L208 125L208 123L210 123L210 125ZZ"                                                                                                                                                                                                                                                 fill="black"/>
<path d="M232 141L230 141L230 139L232 139L232 141ZM228 141L226 141L226 139L228 139L228 141ZM232 137L230 137L230 135L232 135L232 137ZM228 137L226 137L226 135L228 135L228 137ZM232 133L230 133L230 131L232 131L232 133ZM228 133L226 133L226 131L228 131L228 133ZZ"                                                                                                                                                                                                                                                 fill="black"/>
<path d="M253 148L251 148L251 146L253 146L253 148ZM249 148L247 148L247 146L249 146L249 148ZM253 144L251 144L251 142L253 142L253 144ZM249 144L247 144L247 142L249 142L249 144ZM253 140L251 140L251 138L253 138L253 140ZM249 140L247 140L247 138L249 138L249 140ZZ"                                                                                                                                                                                                                                                 fill="black"/>
<path d="M258.429 161.313L257.071 159.845L258.54 158.487L259.897 159.955L258.429 161.313ZM255.713 158.376L254.355 156.908L255.824 155.55L257.182 157.018L255.713 158.376ZM261.366 158.597L260.008 157.129L261.476 155.771L262.834 157.239L261.366 158.597ZM258.65 155.661L257.292 154.192L258.761 152.834L260.118 154.303L258.65 155.661ZM264.303 155.882L262.945 154.413L264.413 153.055L265.771 154.524L264.303 155.882ZM261.587 152.945L260.229 151.476L261.697 150.118L263.055 151.587L261.587 152.945ZZ"     fill="black"/>
<path d="M265.437 178.229L264.291 176.589L265.931 175.444L267.076 177.083L265.437 178.229ZM263.146 174.95L262 173.31L263.639 172.165L264.785 173.804L263.146 174.95ZM268.716 175.937L267.57 174.298L269.209 173.152L270.355 174.792L268.716 175.937ZM266.424 172.659L265.279 171.019L266.918 169.874L268.064 171.513L266.424 172.659ZM271.994 173.646L270.849 172.007L272.488 170.861L273.634 172.501L271.994 173.646ZM269.703 170.367L268.558 168.728L270.197 167.582L271.343 169.222L269.703 170.367ZZ"         fill="black"/>
<path d="M265.72 194.631L265.346 192.666L267.311 192.292L267.685 194.257L265.72 194.631ZM264.972 190.701L264.598 188.737L266.562 188.363L266.937 190.327L264.972 190.701ZM269.65 193.882L269.275 191.918L271.24 191.544L271.614 193.508L269.65 193.882ZM268.901 189.953L268.527 187.988L270.492 187.614L270.866 189.579L268.901 189.953ZM273.579 193.134L273.205 191.169L275.169 190.795L275.544 192.76L273.579 193.134ZM272.831 189.205L272.456 187.24L274.421 186.866L274.795 188.831L272.831 189.205ZZ"        fill="black"/>
<path d="M264 209.268L264.958 207.512L266.713 208.469L265.756 210.225L264 209.268ZM265.915 205.756L266.873 204L268.628 204.958L267.671 206.713L265.915 205.756ZM267.512 211.183L268.469 209.427L270.225 210.384L269.268 212.14L267.512 211.183ZM269.427 207.671L270.384 205.915L272.14 206.873L271.183 208.628L269.427 207.671ZM271.024 213.098L271.981 211.342L273.737 212.299L272.779 214.055L271.024 213.098ZM272.939 209.586L273.896 207.83L275.652 208.788L274.694 210.543L272.939 209.586ZZ"                fill="black"/>
<path d="M259.32 233.953L259.214 231.956L261.211 231.849L261.318 233.846L259.32 233.953ZM259.107 229.958L259 227.961L260.997 227.854L261.104 229.852L259.107 229.958ZM263.315 233.739L263.208 231.742L265.205 231.635L265.312 233.632L263.315 233.739ZM263.101 229.745L262.994 227.748L264.991 227.641L265.098 229.638L263.101 229.745ZM267.309 233.525L267.202 231.528L269.199 231.422L269.306 233.419L267.309 233.525ZM267.095 229.531L266.989 227.534L268.986 227.427L269.093 229.424L267.095 229.531ZZ"       fill="black"/>
<path d="M269.33 255.54L267.867 256.903L266.503 255.44L267.967 254.077L269.33 255.54ZM266.403 258.267L264.94 259.63L263.576 258.167L265.04 256.803L266.403 258.267ZM266.603 252.613L265.14 253.977L263.777 252.513L265.24 251.15L266.603 252.613ZM263.677 255.34L262.213 256.703L260.85 255.24L262.313 253.877L263.677 255.34ZM263.877 249.687L262.413 251.05L261.05 249.587L262.513 248.223L263.877 249.687ZM260.95 252.413L259.487 253.777L258.123 252.313L259.587 250.95L260.95 252.413ZZ"                     fill="black"/>
<path d="M258.196 269.777L256.694 271.098L255.374 269.596L256.876 268.275L258.196 269.777ZM255.193 272.419L253.691 273.739L252.37 272.238L253.872 270.917L255.193 272.419ZM255.555 266.773L254.053 268.094L252.732 266.592L254.234 265.272L255.555 266.773ZM252.551 269.415L251.049 270.736L249.728 269.234L251.23 267.913L252.551 269.415ZM252.913 263.77L251.411 265.091L250.091 263.589L251.592 262.268L252.913 263.77ZM249.909 266.411L248.408 267.732L247.087 266.23L248.589 264.909L249.909 266.411ZZ"      fill="black"/>
<path d="M239.449 280.524L238.391 282.221L236.693 281.163L237.752 279.465L239.449 280.524ZM237.332 283.918L236.274 285.615L234.577 284.557L235.635 282.86L237.332 283.918ZM236.054 278.407L234.996 280.104L233.299 279.046L234.357 277.349L236.054 278.407ZM233.938 281.802L232.88 283.499L231.183 282.44L232.241 280.743L233.938 281.802ZM232.66 276.291L231.602 277.988L229.905 276.93L230.963 275.233L232.66 276.291ZM230.544 279.685L229.486 281.382L227.789 280.324L228.847 278.627L230.544 279.685ZZ"       fill="black"/>
<path d="M214 292L212 292L212 290L214 290L214 292ZM210 292L208 292L208 290L210 290L210 292ZM214 288L212 288L212 286L214 286L214 288ZM210 288L208 288L208 286L210 286L210 288ZM214 284L212 284L212 282L214 282L214 284ZM210 284L208 284L208 282L210 282L210 284ZZ"                                                                                                                                                                                                                                                 fill="black"/>
<path d="M194 301L192 301L192 299L194 299L194 301ZM190 301L188 301L188 299L190 299L190 301ZM194 297L192 297L192 295L194 295L194 297ZM190 297L188 297L188 295L190 295L190 297ZM194 293L192 293L192 291L194 291L194 293ZM190 293L188 293L188 291L190 291L190 293ZZ"                                                                                                                                                                                                                                                 fill="black"/>
<path d="M170 300L168 300L168 298L170 298L170 300ZM166 300L164 300L164 298L166 298L166 300ZM170 296L168 296L168 294L170 294L170 296ZM166 296L164 296L164 294L166 294L166 296ZM170 292L168 292L168 290L170 290L170 292ZM166 292L164 292L164 290L166 290L166 292ZZ"                                                                                                                                                                                                                                                 fill="black"/>
<path d="M154 297L152 297L152 295L154 295L154 297ZM150 297L148 297L148 295L150 295L150 297ZM154 293L152 293L152 291L154 291L154 293ZM150 293L148 293L148 291L150 291L150 293ZM154 289L152 289L152 287L154 287L154 289ZM150 289L148 289L148 287L150 287L150 289ZZ"                                                                                                                                                                                                                                                 fill="black"/>
<path d="M135 287L133 287L133 285L135 285L135 287ZM131 287L129 287L129 285L131 285L131 287ZM135 283L133 283L133 281L135 281L135 283ZM131 283L129 283L129 281L131 281L131 283ZM135 279L133 279L133 277L135 277L135 279ZM131 279L129 279L129 277L131 277L131 279ZZ"                                                                                                                                                                                                                                                 fill="black"/>
<path d="M111.732 276.473L110.322 275.054L111.74 273.644L113.15 275.063L111.732 276.473ZM108.912 273.636L107.502 272.217L108.92 270.807L110.33 272.226L108.912 273.636ZM114.569 273.653L113.159 272.234L114.577 270.824L115.987 272.243L114.569 273.653ZM111.749 270.816L110.339 269.397L111.757 267.987L113.167 269.406L111.749 270.816ZM117.406 270.833L115.996 269.414L117.414 268.004L118.824 269.423L117.406 270.833ZM114.586 267.996L113.176 266.577L114.594 265.167L116.004 266.586L114.586 267.996ZZ"     fill="black"/>
<path d="M95.6443 260.699L94.4296 259.111L96.0184 257.896L97.2332 259.485L95.6443 260.699ZM93.2148 257.522L92 255.933L93.5888 254.718L94.8036 256.307L93.2148 257.522ZM98.822 258.27L97.6072 256.681L99.196 255.466L100.411 257.055L98.822 258.27ZM96.3924 255.092L95.1776 253.503L96.7664 252.289L97.9812 253.878L96.3924 255.092ZM102 255.84L100.785 254.252L102.374 253.037L103.588 254.626L102 255.84ZM99.57 252.663L98.3552 251.074L99.944 249.859L101.159 251.448L99.57 252.663ZZ"                          fill="black"/>
<path d="M86.8161 237.746L85.8774 235.98L87.6434 235.042L88.5821 236.808L86.8161 237.746ZM84.9387 234.214L84 232.448L85.766 231.51L86.7047 233.276L84.9387 234.214ZM90.3481 235.869L89.4094 234.103L91.1755 233.164L92.1142 234.93L90.3481 235.869ZM88.4707 232.337L87.5321 230.571L89.2981 229.632L90.2368 231.398L88.4707 232.337ZM93.8802 233.992L92.9415 232.226L94.7075 231.287L95.6462 233.053L93.8802 233.992ZM92.0028 230.459L91.0641 228.693L92.8301 227.755L93.7688 229.521L92.0028 230.459ZZ"          fill="black"/>
<path d="M76.0736 218.124L75.7157 216.156L77.6834 215.798L78.0413 217.766L76.0736 218.124ZM75.3579 214.188L75 212.221L76.9677 211.863L77.3256 213.831L75.3579 214.188ZM80.009 217.408L79.6512 215.44L81.6189 215.083L81.9767 217.05L80.009 217.408ZM79.2933 213.473L78.9355 211.505L80.9032 211.147L81.261 213.115L79.2933 213.473ZM83.9445 216.692L83.5866 214.725L85.5543 214.367L85.9122 216.335L83.9445 216.692ZM83.2288 212.757L82.8709 210.789L84.8386 210.431L85.1965 212.399L83.2288 212.757ZZ"           fill="black"/>
<path d="M74 193L74.0257 191L76.0255 191.025L75.9998 193.025L74 193ZM74.0513 189L74.077 187L76.0768 187.026L76.0512 189.025L74.0513 189ZM77.9997 193.051L78.0253 191.051L80.0252 191.077L79.9995 193.076L77.9997 193.051ZM78.051 189.051L78.0767 187.051L80.0765 187.077L80.0508 189.077L78.051 189.051ZM81.9993 193.102L82.025 191.102L84.0248 191.128L83.9992 193.128L81.9993 193.102ZM82.0507 189.102L82.0763 187.103L84.0762 187.128L84.0505 189.128L82.0507 189.102ZZ"                                       fill="black"/>
<path d="M78 170.676L78.6478 168.784L80.54 169.432L79.8922 171.324L78 170.676ZM79.2957 166.892L79.9435 165L81.8357 165.648L81.1879 167.54L79.2957 166.892ZM81.7843 171.972L82.4322 170.08L84.3243 170.728L83.6765 172.62L81.7843 171.972ZM83.08 168.188L83.7279 166.296L85.62 166.944L84.9722 168.836L83.08 168.188ZM85.5687 173.268L86.2165 171.376L88.1087 172.024L87.4608 173.916L85.5687 173.268ZM86.8644 169.484L87.5122 167.591L89.4044 168.239L88.7565 170.131L86.8644 169.484ZZ"                          fill="black"/>
<path d="M105.883 152.332L105.068 154.158L103.242 153.344L104.056 151.517L105.883 152.332ZM104.254 155.985L103.439 157.811L101.613 156.997L102.427 155.17L104.254 155.985ZM102.23 150.702L101.415 152.529L99.5887 151.714L100.403 149.888L102.23 150.702ZM100.601 154.356L99.786 156.182L97.9594 155.368L98.7741 153.541L100.601 154.356ZM98.5768 149.073L97.7621 150.9L95.9356 150.085L96.7502 148.259L98.5768 149.073ZM96.9475 152.726L96.1329 154.553L94.3063 153.738L95.1209 151.912L96.9475 152.726ZZ"       fill="black"/>
<path d="M116.776 131.089L115.878 132.875L114.091 131.977L114.99 130.19L116.776 131.089ZM114.979 134.662L114.08 136.449L112.293 135.55L113.192 133.763L114.979 134.662ZM113.203 129.291L112.304 131.078L110.518 130.179L111.416 128.392L113.203 129.291ZM111.406 132.865L110.507 134.651L108.72 133.753L109.619 131.966L111.406 132.865ZM109.63 127.494L108.731 129.28L106.944 128.382L107.843 126.595L109.63 127.494ZM107.832 131.067L106.933 132.854L105.147 131.955L106.045 130.168L107.832 131.067ZZ"         fill="black"/>
<path d="M129.889 118.848L128.462 120.249L127.061 118.821L128.488 117.421L129.889 118.848ZM127.034 121.65L125.606 123.05L124.206 121.623L125.633 120.222L127.034 121.65ZM127.088 115.993L125.66 117.394L124.259 115.966L125.687 114.566L127.088 115.993ZM124.233 118.795L122.805 120.195L121.404 118.768L122.832 117.367L124.233 118.795ZM124.286 113.138L122.859 114.539L121.458 113.111L122.886 111.71L124.286 113.138ZM121.431 115.939L120.004 117.34L118.603 115.912L120.03 114.512L121.431 115.939ZZ"        fill="black"/>
<path d="M142 110L140 110L140 108L142 108L142 110ZM138 110L136 110L136 108L138 108L138 110ZM142 106L140 106L140 104L142 104L142 106ZM138 106L136 106L136 104L138 104L138 106ZM142 102L140 102L140 100L142 100L142 102ZM138 102L136 102L136 100L138 100L138 102ZZ"                                                                                                                                                                                                                                                 fill="black"/>
<path d="M160 99L158 99L158 97L160 97L160 99ZM156 99L154 99L154 97L156 97L156 99ZM160 95L158 95L158 93L160 93L160 95ZM156 95L154 95L154 93L156 93L156 95ZM160 91L158 91L158 89L160 89L160 91ZM156 91L154 91L154 89L156 89L156 91ZZ"                                                                                                                                                                                                                                                                               fill="black"/>
<path d="M182 96L180 96L180 94L182 94L182 96ZM178 96L176 96L176 94L178 94L178 96ZM182 92L180 92L180 90L182 90L182 92ZM178 92L176 92L176 90L178 90L178 92ZM182 88L180 88L180 86L182 86L182 88ZM178 88L176 88L176 86L178 86L178 88ZZ"                                                                                                                                                                                                                                                                               fill="black"/>
<path d="M200 88L198 88L198 86L200 86L200 88ZM196 88L194 88L194 86L196 86L196 88ZM200 84L198 84L198 82L200 82L200 84ZM196 84L194 84L194 82L196 82L196 84ZM200 80L198 80L198 78L200 78L200 80ZM196 80L194 80L194 78L196 78L196 80ZZ"                                                                                                                                                                                                                                                                               fill="black"/>
<path d="M224 93L222 93L222 91L224 91L224 93ZM220 93L218 93L218 91L220 91L220 93ZM224 89L222 89L222 87L224 87L224 89ZM220 89L218 89L218 87L220 87L220 89ZM224 85L222 85L222 83L224 83L224 85ZM220 85L218 85L218 83L220 83L220 85ZZ"                                                                                                                                                                                                                                                                               fill="black"/>
<path d="M245 98L243 98L243 96L245 96L245 98ZM241 98L239 98L239 96L241 96L241 98ZM245 94L243 94L243 92L245 92L245 94ZM241 94L239 94L239 92L241 92L241 94ZM245 90L243 90L243 88L245 88L245 90ZM241 90L239 90L239 88L241 88L241 90ZZ"                                                                                                                                                                                                                                                                               fill="black"/>
<path d="M264 110L262 110L262 108L264 108L264 110ZM260 110L258 110L258 108L260 108L260 110ZM264 106L262 106L262 104L264 104L264 106ZM260 106L258 106L258 104L260 104L260 106ZM264 102L262 102L262 100L264 100L264 102ZM260 102L258 102L258 100L260 100L260 102ZZ"                                                                                                                                                                                                                                                 fill="black"/>
<path d="M278 122L276 122L276 120L278 120L278 122ZM274 122L272 122L272 120L274 120L274 122ZM278 118L276 118L276 116L278 116L278 118ZM274 118L272 118L272 116L274 116L274 118ZM278 114L276 114L276 112L278 112L278 114ZM274 114L272 114L272 112L274 112L274 114ZZ"                                                                                                                                                                                                                                                 fill="black"/>
<path d="M295 137L293 137L293 135L295 135L295 137ZM291 137L289 137L289 135L291 135L291 137ZM295 133L293 133L293 131L295 131L295 133ZM291 133L289 133L289 131L291 131L291 133ZM295 129L293 129L293 127L295 127L295 129ZM291 129L289 129L289 127L291 127L291 129ZZ"                                                                                                                                                                                                                                                 fill="black"/>
<path d="M295.876 155.246L294.835 153.538L296.543 152.497L297.584 154.205L295.876 155.246ZM293.794 151.83L292.754 150.122L294.461 149.081L295.502 150.789L293.794 151.83ZM299.292 153.164L298.251 151.456L299.959 150.415L301 152.123L299.292 153.164ZM297.21 149.748L296.169 148.04L297.877 147L298.918 148.707L297.21 149.748ZM302.707 151.082L301.667 149.374L303.374 148.333L304.415 150.041L302.707 151.082ZM300.626 147.667L299.585 145.959L301.293 144.918L302.333 146.626L300.626 147.667ZZ"              fill="black"/>
<path d="M307.491 171.354L306.328 169.727L307.954 168.563L309.118 170.19L307.491 171.354ZM305.164 168.101L304 166.474L305.627 165.31L306.79 166.937L305.164 168.101ZM310.744 169.026L309.581 167.4L311.207 166.236L312.371 167.862L310.744 169.026ZM308.417 165.773L307.253 164.146L308.88 162.983L310.043 164.609L308.417 165.773ZM313.997 166.699L312.834 165.072L314.46 163.908L315.624 165.535L313.997 166.699ZM311.67 163.445L310.506 161.819L312.133 160.655L313.296 162.282L311.67 163.445ZZ"              fill="black"/>
<path d="M303.927 191.772L303.978 189.773L305.977 189.823L305.927 191.823L303.927 191.772ZM304.028 187.774L304.078 185.774L306.078 185.825L306.027 187.824L304.028 187.774ZM307.926 191.873L307.976 189.874L309.976 189.924L309.925 191.924L307.926 191.873ZM308.027 187.874L308.077 185.875L310.076 185.925L310.026 187.925L308.027 187.874ZM311.925 191.974L311.975 189.975L313.974 190.025L313.924 192.024L311.925 191.974ZM312.025 187.975L312.076 185.976L314.075 186.026L314.025 188.025L312.025 187.975ZZ" fill="black"/>
<path d="M302.888 210.642L302.967 208.643L304.966 208.722L304.887 210.721L302.888 210.642ZM303.047 206.645L303.126 204.646L305.124 204.726L305.045 206.724L303.047 206.645ZM306.885 210.8L306.964 208.801L308.963 208.881L308.884 210.879L306.885 210.8ZM307.043 206.803L307.123 204.805L309.121 204.884L309.042 206.882L307.043 206.803ZM310.882 210.958L310.961 208.96L312.96 209.039L312.881 211.037L310.882 210.958ZM311.04 206.961L311.119 204.963L313.118 205.042L313.039 207.04L311.04 206.961ZZ"          fill="black"/>
<path d="M317.415 235.169L316.553 236.974L314.748 236.112L315.61 234.307L317.415 235.169ZM315.692 238.779L314.831 240.584L313.026 239.722L313.887 237.917L315.692 238.779ZM313.805 233.446L312.943 235.251L311.138 234.39L312 232.585L313.805 233.446ZM312.082 237.056L311.221 238.861L309.415 238L310.277 236.195L312.082 237.056ZM310.195 231.723L309.333 233.528L307.528 232.667L308.39 230.862L310.195 231.723ZM308.472 235.333L307.61 237.138L305.805 236.277L306.667 234.472L308.472 235.333ZZ"             fill="black"/>
<path d="M309.008 257.976L307.812 259.579L306.209 258.383L307.405 256.78L309.008 257.976ZM306.617 261.182L305.421 262.785L303.818 261.59L305.013 259.987L306.617 261.182ZM305.802 255.584L304.606 257.188L303.003 255.992L304.198 254.389L305.802 255.584ZM303.41 258.791L302.215 260.394L300.611 259.198L301.807 257.595L303.41 258.791ZM302.595 253.193L301.399 254.796L299.796 253.601L300.992 251.997L302.595 253.193ZM300.204 256.399L299.008 258.003L297.405 256.807L298.601 255.204L300.204 256.399ZZ"     fill="black"/>
<path d="M300.078 273.975L298.544 275.259L297.26 273.725L298.794 272.442L300.078 273.975ZM297.011 276.543L295.477 277.827L294.193 276.293L295.727 275.009L297.011 276.543ZM297.51 270.908L295.976 272.192L294.693 270.658L296.226 269.375L297.51 270.908ZM294.443 273.476L292.909 274.76L291.625 273.226L293.159 271.942L294.443 273.476ZM294.942 267.841L293.409 269.125L292.125 267.591L293.658 266.307L294.942 267.841ZM291.875 270.409L290.342 271.693L289.058 270.159L290.591 268.875L291.875 270.409ZZ"     fill="black"/>
<path d="M287.772 291.44L286.166 292.632L284.974 291.026L286.58 289.834L287.772 291.44ZM284.56 293.823L282.954 295.015L281.762 293.409L283.368 292.217L284.56 293.823ZM285.389 288.228L283.783 289.419L282.591 287.813L284.197 286.621L285.389 288.228ZM282.176 290.611L280.57 291.803L279.379 290.197L280.985 289.005L282.176 290.611ZM283.005 285.015L281.399 286.207L280.207 284.601L281.813 283.409L283.005 285.015ZM279.793 287.399L278.187 288.591L276.995 286.985L278.601 285.793L279.793 287.399ZZ"       fill="black"/>
<path d="M265 313L263 313L263 311L265 311L265 313ZM261 313L259 313L259 311L261 311L261 313ZM265 309L263 309L263 307L265 307L265 309ZM261 309L259 309L259 307L261 307L261 309ZM265 305L263 305L263 303L265 303L265 305ZM261 305L259 305L259 303L261 303L261 305ZZ"                                                                                                                                                                                                                                                 fill="black"/>
<path d="M249 326L247 326L247 324L249 324L249 326ZM245 326L243 326L243 324L245 324L245 326ZM249 322L247 322L247 320L249 320L249 322ZM245 322L243 322L243 320L245 320L245 322ZM249 318L247 318L247 316L249 316L249 318ZM245 318L243 318L243 316L245 316L245 318ZZ"                                                                                                                                                                                                                                                 fill="black"/>
<path d="M225 332L223 332L223 330L225 330L225 332ZM221 332L219 332L219 330L221 330L221 332ZM225 328L223 328L223 326L225 326L225 328ZM221 328L219 328L219 326L221 326L221 328ZM225 324L223 324L223 322L225 322L225 324ZM221 324L219 324L219 322L221 322L221 324ZZ"                                                                                                                                                                                                                                                 fill="black"/>
<path d="M207 337L205 337L205 335L207 335L207 337ZM203 337L201 337L201 335L203 335L203 337ZM207 333L205 333L205 331L207 331L207 333ZM203 333L201 333L201 331L203 331L203 333ZM207 329L205 329L205 327L207 327L207 329ZM203 329L201 329L201 327L203 327L203 329ZZ"                                                                                                                                                                                                                                                 fill="black"/>
<path d="M181 338L179 338L179 336L181 336L181 338ZM177 338L175 338L175 336L177 336L177 338ZM181 334L179 334L179 332L181 332L181 334ZM177 334L175 334L175 332L177 332L177 334ZM181 330L179 330L179 328L181 328L181 330ZM177 330L175 330L175 328L177 328L177 330ZZ"                                                                                                                                                                                                                                                 fill="black"/>
<path d="M166 336L164 336L164 334L166 334L166 336ZM162 336L160 336L160 334L162 334L162 336ZM166 332L164 332L164 330L166 330L166 332ZM162 332L160 332L160 330L162 330L162 332ZM166 328L164 328L164 326L166 326L166 328ZM162 328L160 328L160 326L162 326L162 328ZZ"                                                                                                                                                                                                                                                 fill="black"/>
<path d="M140 333L138 333L138 331L140 331L140 333ZM136 333L134 333L134 331L136 331L136 333ZM140 329L138 329L138 327L140 327L140 329ZM136 329L134 329L134 327L136 327L136 329ZM140 325L138 325L138 323L140 323L140 325ZM136 325L134 325L134 323L136 323L136 325ZZ"                                                                                                                                                                                                                                                 fill="black"/>
<path d="M121 324L119 324L119 322L121 322L121 324ZM117 324L115 324L115 322L117 322L117 324ZM121 320L119 320L119 318L121 318L121 320ZM117 320L115 320L115 318L117 318L117 320ZM121 316L119 316L119 314L121 314L121 316ZM117 316L115 316L115 314L117 314L117 316ZZ"                                                                                                                                                                                                                                                 fill="black"/>
<path d="M103 312L101 312L101 310L103 310L103 312ZM99 312L97 312L97 310L99 310L99 312ZM103 308L101 308L101 306L103 306L103 308ZM99 308L97 308L97 306L99 306L99 308ZM103 304L101 304L101 302L103 302L103 304ZM99 304L97 304L97 302L99 302L99 304ZZ"                                                                                                                                                                                                                                                                fill="black"/>
<path d="M81.3786 297.117L79.7299 295.985L80.862 294.337L82.5107 295.469L81.3786 297.117ZM78.0811 294.853L76.4324 293.721L77.5645 292.072L79.2132 293.205L78.0811 294.853ZM83.6428 293.82L81.9941 292.688L83.1262 291.039L84.7749 292.171L83.6428 293.82ZM80.3454 291.556L78.6966 290.424L79.8287 288.775L81.4775 289.907L80.3454 291.556ZM85.907 290.523L84.2583 289.39L85.3904 287.742L87.0392 288.874L85.907 290.523ZM82.6096 288.258L80.9608 287.126L82.093 285.477L83.7417 286.61L82.6096 288.258ZZ"         fill="black"/>
<path d="M62.3652 280.632L61.2144 278.996L62.8502 277.846L64.0009 279.481L62.3652 280.632ZM60.0636 277.361L58.9129 275.725L60.5487 274.574L61.6994 276.21L60.0636 277.361ZM65.6367 278.331L64.4859 276.695L66.1217 275.544L67.2725 277.18L65.6367 278.331ZM63.3352 275.059L62.1844 273.423L63.8202 272.272L64.971 273.908L63.3352 275.059ZM68.9082 276.029L67.7575 274.393L69.3933 273.242L70.544 274.878L68.9082 276.029ZM66.6067 272.757L65.456 271.122L67.0918 269.971L68.2425 271.607L66.6067 272.757ZZ"      fill="black"/>
<path d="M52.6392 260.827L51.4312 259.233L53.0252 258.025L54.2332 259.619L52.6392 260.827ZM50.2232 257.639L49.0152 256.045L50.6091 254.837L51.8171 256.431L50.2232 257.639ZM55.8271 258.411L54.6191 256.817L56.2131 255.609L57.4211 257.203L55.8271 258.411ZM53.4111 255.223L52.2031 253.629L53.797 252.421L55.0051 254.015L53.4111 255.223ZM59.015 255.995L57.807 254.401L59.401 253.193L60.609 254.787L59.015 255.995ZM56.599 252.807L55.391 251.213L56.985 250.005L58.193 251.599L56.599 252.807ZZ"            fill="black"/>
<path d="M43.4745 236.776L42.8209 234.886L44.7111 234.233L45.3647 236.123L43.4745 236.776ZM42.1673 232.996L41.5138 231.106L43.4039 230.452L44.0575 232.342L42.1673 232.996ZM47.2549 235.469L46.6013 233.579L48.4915 232.925L49.1451 234.816L47.2549 235.469ZM45.9477 231.689L45.2941 229.799L47.1843 229.145L47.8379 231.035L45.9477 231.689ZM51.0353 234.162L50.3817 232.272L52.2719 231.618L52.9255 233.508L51.0353 234.162ZM49.7281 230.382L49.0745 228.492L50.9647 227.838L51.6183 229.728L49.7281 230.382ZZ" fill="black"/>
<path d="M35.1744 209.48L35.0668 207.483L37.0639 207.375L37.1715 209.372L35.1744 209.48ZM34.9592 205.486L34.8517 203.488L36.8488 203.381L36.9563 205.378L34.9592 205.486ZM39.1686 209.265L39.061 207.268L41.0581 207.16L41.1657 209.157L39.1686 209.265ZM38.9534 205.27L38.8459 203.273L40.843 203.166L40.9506 205.163L38.9534 205.27ZM43.1628 209.049L43.0552 207.052L45.0523 206.945L45.1599 208.942L43.1628 209.049ZM42.9477 205.055L42.8401 203.058L44.8372 202.951L44.9448 204.948L42.9477 205.055ZZ"        fill="black"/>
<path d="M31.6093 192.347L31.9659 190.379L33.9339 190.736L33.5773 192.704L31.6093 192.347ZM32.3225 188.411L32.6791 186.443L34.647 186.8L34.2905 188.768L32.3225 188.411ZM35.5452 193.06L35.9018 191.093L37.8698 191.449L37.5132 193.417L35.5452 193.06ZM36.2584 189.125L36.615 187.157L38.583 187.513L38.2264 189.481L36.2584 189.125ZM39.4811 193.774L39.8377 191.806L41.8057 192.162L41.4491 194.13L39.4811 193.774ZM40.1943 189.838L40.5509 187.87L42.5189 188.226L42.1623 190.194L40.1943 189.838ZZ"          fill="black"/>
<path d="M58.4684 165.591L57.719 167.445L55.8647 166.696L56.6141 164.841L58.4684 165.591ZM56.9696 169.299L56.2202 171.154L54.3659 170.404L55.1153 168.55L56.9696 169.299ZM54.7598 164.092L54.0104 165.946L52.1561 165.197L52.9055 163.343L54.7598 164.092ZM53.261 167.801L52.5116 169.655L50.6573 168.906L51.4067 167.051L53.261 167.801ZM51.0512 162.593L50.3018 164.448L48.4476 163.698L49.197 161.844L51.0512 162.593ZM49.5524 166.302L48.803 168.156L46.9488 167.407L47.6982 165.552L49.5524 166.302ZZ"       fill="black"/>
<path d="M63.4025 147.262L62.5232 149.059L60.7269 148.179L61.6061 146.383L63.4025 147.262ZM61.6439 150.855L60.7647 152.651L58.9683 151.772L59.8476 149.976L61.6439 150.855ZM59.8098 145.504L58.9305 147.3L57.1342 146.421L58.0134 144.624L59.8098 145.504ZM58.0512 149.096L57.172 150.893L55.3756 150.013L56.2549 148.217L58.0512 149.096ZM56.2171 143.745L55.3378 145.541L53.5415 144.662L54.4207 142.866L56.2171 143.745ZM54.4585 147.338L53.5793 149.134L51.7829 148.255L52.6622 146.459L54.4585 147.338ZZ"    fill="black"/>
<path d="M75.2234 131.22L74.1645 132.917L72.4678 131.858L73.5267 130.161L75.2234 131.22ZM73.1056 134.613L72.0467 136.31L70.35 135.251L71.4089 133.555L73.1056 134.613ZM71.8301 129.102L70.7711 130.799L69.0745 129.74L70.1334 128.043L71.8301 129.102ZM69.7122 132.496L68.6533 134.192L66.9566 133.133L68.0156 131.437L69.7122 132.496ZM68.4367 126.984L67.3778 128.681L65.6811 127.622L66.74 125.926L68.4367 126.984ZM66.3189 130.378L65.26 132.074L63.5633 131.016L64.6222 129.319L66.3189 130.378ZZ"           fill="black"/>
<path d="M86.1448 108.864L84.629 110.169L83.3243 108.653L84.8401 107.348L86.1448 108.864ZM83.1131 111.474L81.5973 112.778L80.2926 111.263L81.8084 109.958L83.1131 111.474ZM83.5355 105.833L82.0196 107.137L80.7149 105.621L82.2308 104.317L83.5355 105.833ZM80.5038 108.442L78.9879 109.747L77.6832 108.231L79.1991 106.926L80.5038 108.442ZM80.9261 102.801L79.4103 104.106L78.1056 102.59L79.6214 101.285L80.9261 102.801ZM77.8944 105.41L76.3786 106.715L75.0739 105.199L76.5897 103.894L77.8944 105.41ZZ"     fill="black"/>
<path d="M96.5 86.8094L94.8381 87.9222L93.7254 86.2603L95.3873 85.1476L96.5 86.8094ZM93.1763 89.0349L91.5144 90.1476L90.4017 88.4857L92.0635 87.373L93.1763 89.0349ZM94.2746 83.4857L92.6127 84.5984L91.5 82.9365L93.1619 81.8238L94.2746 83.4857ZM90.9508 85.7111L89.2889 86.8238L88.1762 85.1619L89.8381 84.0492L90.9508 85.7111ZM92.0492 80.1619L90.3873 81.2746L89.2746 79.6127L90.9365 78.5L92.0492 80.1619ZM88.7254 82.3873L87.0635 83.5L85.9508 81.8381L87.6127 80.7254L88.7254 82.3873ZZ"                 fill="black"/>
<path d="M115.449 75.9581L113.627 76.784L112.801 74.9624L114.623 74.1366L115.449 75.9581ZM111.806 77.6098L109.984 78.4357L109.158 76.6141L110.98 75.7883L111.806 77.6098ZM113.797 72.315L111.975 73.1409L111.15 71.3194L112.971 70.4935L113.797 72.315ZM110.154 73.9668L108.332 74.7926L107.506 72.9711L109.328 72.1452L110.154 73.9668ZM112.145 68.672L110.324 69.4978L109.498 67.6763L111.319 66.8505L112.145 68.672ZM108.502 70.3237L106.681 71.1496L105.855 69.328L107.676 68.5022L108.502 70.3237ZZ"         fill="black"/>
<path d="M132 67L130 67L130 65L132 65L132 67ZM128 67L126 67L126 65L128 65L128 67ZM132 63L130 63L130 61L132 61L132 63ZM128 63L126 63L126 61L128 61L128 63ZM132 59L130 59L130 57L132 57L132 59ZM128 59L126 59L126 57L128 57L128 59ZZ"                                                                                                                                                                                                                                                                               fill="black"/>
<path d="M153 60L151 60L151 58L153 58L153 60ZM149 60L147 60L147 58L149 58L149 60ZM153 56L151 56L151 54L153 54L153 56ZM149 56L147 56L147 54L149 54L149 56ZM153 52L151 52L151 50L153 50L153 52ZM149 52L147 52L147 50L149 50L149 52ZZ"                                                                                                                                                                                                                                                                               fill="black"/>
<path d="M175 56L173 56L173 54L175 54L175 56ZM171 56L169 56L169 54L171 54L171 56ZM175 52L173 52L173 50L175 50L175 52ZM171 52L169 52L169 50L171 50L171 52ZM175 48L173 48L173 46L175 46L175 48ZM171 48L169 48L169 46L171 46L171 48ZZ"                                                                                                                                                                                                                                                                               fill="black"/>
<path d="M200 55L198 55L198 53L200 53L200 55ZM196 55L194 55L194 53L196 53L196 55ZM200 51L198 51L198 49L200 49L200 51ZM196 51L194 51L194 49L196 49L196 51ZM200 47L198 47L198 45L200 45L200 47ZM196 47L194 47L194 45L196 45L196 47ZZ"                                                                                                                                                                                                                                                                               fill="black"/>
</svg>
