<svg width="320" height="340" viewBox="0 0 320 340" fill="none" xmlns="http://www.w3.org/2000/svg">
<path d="M167.576 167.432C168.16 167.432 168.66 167.608 169.076 167.96C169.5 168.312 169.824 168.816 170.048 169.472C170.28 170.12 170.396 170.896 170.396 171.8C170.396 172.704 170.28 173.484 170.048 174.14C169.824 174.788 169.5 175.288 169.076 175.64C168.66 175.992 168.16 176.168 167.576 176.168C166.992 176.168 166.488 175.992 166.064 175.64C165.648 175.288 165.324 174.788 165.092 174.14C164.868 173.484 164.756 172.704 164.756 171.8C164.756 170.896 164.868 170.12 165.092 169.472C165.324 168.816 165.648 168.312 166.064 167.96C166.488 167.608 166.992 167.432 167.576 167.432ZM167.576 167.792C166.968 167.792 166.484 168.152 166.124 168.872C165.772 169.584 165.596 170.56 165.596 171.8C165.596 173.04 165.772 174.02 166.124 174.74C166.484 175.452 166.968 175.808 167.576 175.808C168.192 175.808 168.676 175.452 169.028 174.74C169.38 174.02 169.556 173.04 169.556 171.8C169.556 170.56 169.38 169.584 169.028 168.872C168.676 168.152 168.192 167.792 167.576 167.792Z" fill="black"/>
<path d="M155.408 210H152.804L152.816 209.88H153.068C153.252 209.88 153.408 209.816 153.536 209.688C153.664 209.56 153.728 209.408 153.728 209.232V202.908C153.728 202.716 153.68 202.572 153.584 202.476C153.496 202.372 153.36 202.32 153.176 202.32H152.72V202.2C152.88 202.176 153.032 202.148 153.176 202.116C153.328 202.084 153.472 202.044 153.608 201.996C153.744 201.94 153.876 201.868 154.004 201.78C154.132 201.684 154.256 201.568 154.376 201.432H154.496V209.244C154.496 209.42 154.56 209.572 154.688 209.7C154.824 209.82 154.98 209.88 155.156 209.88H155.408V210Z" fill="black"/>
<path d="M154.104 142.568L153.888 141.212C154.04 141.06 154.236 140.928 154.476 140.816C154.716 140.696 154.972 140.604 155.244 140.54C155.516 140.468 155.78 140.432 156.036 140.432C156.564 140.432 157.024 140.528 157.416 140.72C157.816 140.912 158.124 141.184 158.34 141.536C158.556 141.888 158.664 142.312 158.664 142.808C158.664 143.216 158.572 143.632 158.388 144.056C158.212 144.472 157.98 144.884 157.692 145.292C157.404 145.692 157.092 146.08 156.756 146.456C156.42 146.824 156.092 147.168 155.772 147.488C155.452 147.8 155.172 148.08 154.932 148.328H157.692C157.932 148.328 158.128 148.296 158.28 148.232C158.44 148.168 158.58 148.06 158.7 147.908C158.828 147.756 158.96 147.556 159.096 147.308H159.216L158.652 149H153.72V148.88C154 148.624 154.316 148.312 154.668 147.944C155.028 147.568 155.388 147.164 155.748 146.732C156.108 146.3 156.44 145.856 156.744 145.4C157.048 144.944 157.292 144.5 157.476 144.068C157.668 143.628 157.764 143.224 157.764 142.856C157.764 142.208 157.608 141.7 157.296 141.332C156.992 140.956 156.572 140.776 156.036 140.792C155.476 140.8 155.032 140.956 154.704 141.26C154.376 141.564 154.216 142 154.224 142.568H154.104Z" fill="black"/>
<path d="M219.604 152.456C220.092 152.432 220.512 152.5 220.864 152.66C221.216 152.812 221.488 153.028 221.68 153.308C221.872 153.58 221.968 153.892 221.968 154.244C221.968 154.532 221.904 154.808 221.776 155.072C221.648 155.336 221.48 155.564 221.272 155.756C221.072 155.948 220.852 156.088 220.612 156.176C220.38 156.256 220.156 156.268 219.94 156.212C220.204 156.212 220.468 156.26 220.732 156.356C220.996 156.444 221.24 156.58 221.464 156.764C221.688 156.948 221.864 157.18 221.992 157.46C222.128 157.732 222.196 158.048 222.196 158.408C222.196 158.784 222.116 159.14 221.956 159.476C221.804 159.812 221.588 160.116 221.308 160.388C221.036 160.652 220.712 160.872 220.336 161.048C219.96 161.232 219.548 161.352 219.1 161.408C218.66 161.472 218.2 161.464 217.72 161.384L217.744 161.264C218.224 161.272 218.676 161.208 219.1 161.072C219.524 160.936 219.9 160.74 220.228 160.484C220.564 160.228 220.824 159.92 221.008 159.56C221.2 159.2 221.296 158.804 221.296 158.372C221.296 157.916 221.188 157.544 220.972 157.256C220.764 156.96 220.476 156.744 220.108 156.608C219.74 156.464 219.316 156.392 218.836 156.392L218.86 156.272C219.22 156.272 219.572 156.192 219.916 156.032C220.26 155.872 220.54 155.64 220.756 155.336C220.98 155.032 221.08 154.66 221.056 154.22C221.048 153.98 220.988 153.756 220.876 153.548C220.772 153.332 220.612 153.156 220.396 153.02C220.188 152.884 219.916 152.816 219.58 152.816C219.084 152.816 218.7 152.968 218.428 153.272C218.156 153.568 218.032 153.952 218.056 154.424H217.936L217.732 153.308C217.924 153.092 218.164 152.904 218.452 152.744C218.748 152.576 219.132 152.48 219.604 152.456Z" fill="black"/>
<path d="M201.212 225.632L201.872 224.432H201.992V232.988H201.212V225.632ZM201.872 224.432L201.992 224.876L198.38 229.352H202.508C202.732 229.352 202.88 229.332 202.952 229.292C203.024 229.252 203.096 229.192 203.168 229.112H203.288L203.036 230.012H197.48V229.892L201.872 224.432ZM201.992 232.232C201.992 232.408 202.056 232.56 202.184 232.688C202.32 232.816 202.476 232.88 202.652 232.88H202.784V233H200.408L200.42 232.88H200.54C200.724 232.88 200.88 232.82 201.008 232.7C201.144 232.572 201.212 232.416 201.212 232.232H201.992Z" fill="black"/>
<path d="M126.668 223.512L123.848 223.692L123.296 225.588C123.8 225.46 124.28 225.416 124.736 225.456C125.2 225.488 125.612 225.604 125.972 225.804C126.332 226.004 126.612 226.284 126.812 226.644C127.012 226.996 127.1 227.432 127.076 227.952C127.052 228.536 126.916 229.036 126.668 229.452C126.42 229.86 126.108 230.2 125.732 230.472C125.364 230.736 124.976 230.94 124.568 231.084C124.16 231.228 123.78 231.32 123.428 231.36C123.076 231.4 122.8 231.404 122.6 231.372L122.624 231.252C122.824 231.26 123.068 231.224 123.356 231.144C123.644 231.064 123.944 230.94 124.256 230.772C124.576 230.604 124.872 230.392 125.144 230.136C125.424 229.88 125.656 229.58 125.84 229.236C126.032 228.884 126.144 228.488 126.176 228.048C126.216 227.504 126.088 227.068 125.792 226.74C125.496 226.404 125.084 226.196 124.556 226.116C124.036 226.036 123.448 226.108 122.792 226.332L122.684 226.284L123.62 223.032L125.996 222.852C126.252 222.852 126.452 222.796 126.596 222.684C126.74 222.572 126.856 222.428 126.944 222.252H127.064L126.668 223.512Z" fill="black"/>
<path d="M103.812 150.192L103.86 150.276C103.292 150.46 102.804 150.732 102.396 151.092C101.996 151.444 101.668 151.864 101.412 152.352C101.164 152.832 100.98 153.36 100.86 153.936C100.74 154.512 100.68 155.112 100.68 155.736C100.68 156.336 100.748 156.868 100.884 157.332C101.028 157.796 101.236 158.16 101.508 158.424C101.788 158.688 102.132 158.82 102.54 158.82C102.924 158.82 103.232 158.712 103.464 158.496C103.704 158.28 103.88 158.004 103.992 157.668C104.112 157.324 104.168 156.96 104.16 156.576C104.152 156.176 104.084 155.828 103.956 155.532C103.836 155.236 103.656 155.008 103.416 154.848C103.176 154.68 102.884 154.596 102.54 154.596C102.292 154.596 102.048 154.648 101.808 154.752C101.576 154.856 101.38 155.012 101.22 155.22L101.148 155.112C101.356 154.864 101.592 154.664 101.856 154.512C102.12 154.352 102.392 154.248 102.672 154.2C102.96 154.144 103.236 154.148 103.5 154.212C103.772 154.268 104.02 154.384 104.244 154.56C104.468 154.736 104.652 154.98 104.796 155.292C104.94 155.596 105.028 155.968 105.06 156.408C105.092 156.872 105.008 157.316 104.808 157.74C104.616 158.156 104.324 158.5 103.932 158.772C103.548 159.036 103.084 159.172 102.54 159.18C102.004 159.188 101.524 159.056 101.1 158.784C100.684 158.512 100.356 158.12 100.116 157.608C99.884 157.088 99.772 156.464 99.78 155.736C99.788 155.112 99.872 154.492 100.032 153.876C100.2 153.252 100.448 152.68 100.776 152.16C101.104 151.632 101.52 151.192 102.024 150.84C102.528 150.488 103.124 150.272 103.812 150.192Z" fill="black"/>
<path d="M159.42 98.98L159.756 97.624L164.556 97.6L163.26 101.08C163.204 101.24 163.12 101.468 163.008 101.764C162.904 102.06 162.784 102.396 162.648 102.772C162.52 103.148 162.392 103.536 162.264 103.936C162.136 104.328 162.016 104.704 161.904 105.064C161.8 105.424 161.716 105.736 161.652 106H160.812C160.908 105.752 161.02 105.468 161.148 105.148C161.276 104.82 161.412 104.472 161.556 104.104C161.708 103.736 161.856 103.368 162 103C162.144 102.624 162.28 102.268 162.408 101.932C162.544 101.596 162.664 101.296 162.768 101.032L163.824 98.26H160.44C160.2 98.26 160.012 98.32 159.876 98.44C159.74 98.56 159.628 98.74 159.54 98.98H159.42Z" fill="black"/>
<path d="M239.152 120.436C239.152 120.06 239.236 119.724 239.404 119.428C239.58 119.124 239.828 118.884 240.148 118.708C240.476 118.532 240.864 118.44 241.312 118.432C241.728 118.424 242.096 118.5 242.416 118.66C242.744 118.82 243 119.052 243.184 119.356C243.376 119.66 243.472 120.028 243.472 120.46C243.472 120.812 243.404 121.136 243.268 121.432C243.132 121.72 242.932 121.968 242.668 122.176C242.404 122.376 242.08 122.524 241.696 122.62L241.372 122.44C241.676 122.24 241.912 122.028 242.08 121.804C242.256 121.58 242.38 121.348 242.452 121.108C242.532 120.86 242.572 120.612 242.572 120.364C242.572 119.884 242.46 119.504 242.236 119.224C242.012 118.936 241.708 118.792 241.324 118.792C240.916 118.792 240.6 118.94 240.376 119.236C240.16 119.532 240.052 119.88 240.052 120.28C240.052 120.544 240.1 120.792 240.196 121.024C240.292 121.256 240.432 121.468 240.616 121.66C240.8 121.844 241.024 122.012 241.288 122.164C241.512 122.292 241.772 122.428 242.068 122.572C242.364 122.708 242.652 122.876 242.932 123.076C243.212 123.268 243.444 123.512 243.628 123.808C243.812 124.096 243.904 124.46 243.904 124.9C243.904 125.348 243.796 125.744 243.58 126.088C243.372 126.424 243.072 126.688 242.68 126.88C242.296 127.072 241.84 127.168 241.312 127.168C240.92 127.168 240.56 127.112 240.232 127C239.904 126.888 239.624 126.732 239.392 126.532C239.168 126.324 238.996 126.076 238.876 125.788C238.756 125.5 238.704 125.18 238.72 124.828C238.728 124.612 238.76 124.412 238.816 124.228C238.88 124.036 238.964 123.86 239.068 123.7C239.18 123.532 239.312 123.38 239.464 123.244C239.624 123.1 239.804 122.968 240.004 122.848C240.212 122.72 240.44 122.604 240.688 122.5L240.976 122.728C240.608 122.952 240.292 123.244 240.028 123.604C239.764 123.956 239.628 124.404 239.62 124.948C239.612 125.516 239.76 125.968 240.064 126.304C240.368 126.64 240.788 126.808 241.324 126.808C241.716 126.808 242.032 126.724 242.272 126.556C242.52 126.388 242.704 126.172 242.824 125.908C242.944 125.644 243.004 125.364 243.004 125.068C243.004 124.756 242.948 124.496 242.836 124.288C242.732 124.08 242.592 123.904 242.416 123.76C242.24 123.616 242.048 123.492 241.84 123.388C241.64 123.284 241.444 123.184 241.252 123.088C240.956 122.928 240.68 122.76 240.424 122.584C240.168 122.4 239.944 122.2 239.752 121.984C239.56 121.76 239.412 121.52 239.308 121.264C239.204 121.008 239.152 120.732 239.152 120.436Z" fill="black"/>
<path d="M255.908 209.444L255.872 209.36C256.44 209.2 256.924 208.944 257.324 208.592C257.724 208.24 258.048 207.82 258.296 207.332C258.552 206.844 258.74 206.316 258.86 205.748C258.98 205.172 259.04 204.584 259.04 203.984C259.04 203.336 258.972 202.776 258.836 202.304C258.7 201.824 258.496 201.456 258.224 201.2C257.952 200.944 257.608 200.816 257.192 200.816C256.816 200.816 256.504 200.92 256.256 201.128C256.016 201.336 255.84 201.612 255.728 201.956C255.616 202.292 255.564 202.66 255.572 203.06C255.58 203.444 255.644 203.788 255.764 204.092C255.892 204.396 256.076 204.632 256.316 204.8C256.556 204.968 256.848 205.048 257.192 205.04C257.44 205.032 257.68 204.98 257.912 204.884C258.152 204.78 258.352 204.624 258.512 204.416L258.572 204.524C258.372 204.78 258.14 204.984 257.876 205.136C257.612 205.288 257.336 205.388 257.048 205.436C256.76 205.484 256.476 205.476 256.196 205.412C255.924 205.34 255.672 205.216 255.44 205.04C255.216 204.856 255.036 204.616 254.9 204.32C254.764 204.016 254.688 203.652 254.672 203.228C254.656 202.66 254.756 202.172 254.972 201.764C255.188 201.356 255.488 201.04 255.872 200.816C256.264 200.584 256.704 200.464 257.192 200.456C258.024 200.44 258.688 200.736 259.184 201.344C259.688 201.944 259.94 202.8 259.94 203.912C259.94 204.512 259.86 205.124 259.7 205.748C259.54 206.364 259.292 206.944 258.956 207.488C258.628 208.024 258.212 208.468 257.708 208.82C257.204 209.172 256.604 209.38 255.908 209.444Z" fill="black"/>
<path d="M200.408 274H197.804L197.816 273.88H198.068C198.252 273.88 198.408 273.816 198.536 273.688C198.664 273.56 198.728 273.408 198.728 273.232V266.908C198.728 266.716 198.68 266.572 198.584 266.476C198.496 266.372 198.36 266.32 198.176 266.32H197.72V266.2C197.88 266.176 198.032 266.148 198.176 266.116C198.328 266.084 198.472 266.044 198.608 265.996C198.744 265.94 198.876 265.868 199.004 265.78C199.132 265.684 199.256 265.568 199.376 265.432H199.496V273.244C199.496 273.42 199.56 273.572 199.688 273.7C199.824 273.82 199.98 273.88 200.156 273.88H200.408V274ZM204.701 265.432C205.285 265.432 205.785 265.608 206.201 265.96C206.625 266.312 206.949 266.816 207.173 267.472C207.405 268.12 207.521 268.896 207.521 269.8C207.521 270.704 207.405 271.484 207.173 272.14C206.949 272.788 206.625 273.288 206.201 273.64C205.785 273.992 205.285 274.168 204.701 274.168C204.117 274.168 203.613 273.992 203.189 273.64C202.773 273.288 202.449 272.788 202.217 272.14C201.993 271.484 201.881 270.704 201.881 269.8C201.881 268.896 201.993 268.12 202.217 267.472C202.449 266.816 202.773 266.312 203.189 265.96C203.613 265.608 204.117 265.432 204.701 265.432ZM204.701 265.792C204.093 265.792 203.609 266.152 203.249 266.872C202.897 267.584 202.721 268.56 202.721 269.8C202.721 271.04 202.897 272.02 203.249 272.74C203.609 273.452 204.093 273.808 204.701 273.808C205.317 273.808 205.801 273.452 206.153 272.74C206.505 272.02 206.681 271.04 206.681 269.8C206.681 268.56 206.505 267.584 206.153 266.872C205.801 266.152 205.317 265.792 204.701 265.792Z" fill="black"/>
<path d="M117.408 274H114.804L114.816 273.88H115.068C115.252 273.88 115.408 273.816 115.536 273.688C115.664 273.56 115.728 273.408 115.728 273.232V266.908C115.728 266.716 115.68 266.572 115.584 266.476C115.496 266.372 115.36 266.32 115.176 266.32H114.72V266.2C114.88 266.176 115.032 266.148 115.176 266.116C115.328 266.084 115.472 266.044 115.608 265.996C115.744 265.94 115.876 265.868 116.004 265.78C116.132 265.684 116.256 265.568 116.376 265.432H116.496V273.244C116.496 273.42 116.56 273.572 116.688 273.7C116.824 273.82 116.98 273.88 117.156 273.88H117.408V274ZM121.955 274H119.351L119.363 273.88H119.615C119.799 273.88 119.955 273.816 120.083 273.688C120.211 273.56 120.275 273.408 120.275 273.232V266.908C120.275 266.716 120.227 266.572 120.131 266.476C120.043 266.372 119.907 266.32 119.723 266.32H119.267V266.2C119.427 266.176 119.579 266.148 119.723 266.116C119.875 266.084 120.019 266.044 120.155 265.996C120.291 265.94 120.423 265.868 120.551 265.78C120.679 265.684 120.803 265.568 120.923 265.432H121.043V273.244C121.043 273.42 121.107 273.572 121.235 273.7C121.371 273.82 121.527 273.88 121.703 273.88H121.955V274Z" fill="black"/>
<path d="M60.408 209H57.804L57.816 208.88H58.068C58.252 208.88 58.408 208.816 58.536 208.688C58.664 208.56 58.728 208.408 58.728 208.232V201.908C58.728 201.716 58.68 201.572 58.584 201.476C58.496 201.372 58.36 201.32 58.176 201.32H57.72V201.2C57.88 201.176 58.032 201.148 58.176 201.116C58.328 201.084 58.472 201.044 58.608 200.996C58.744 200.94 58.876 200.868 59.004 200.78C59.132 200.684 59.256 200.568 59.376 200.432H59.496V208.244C59.496 208.42 59.56 208.572 59.688 208.7C59.824 208.82 59.98 208.88 60.156 208.88H60.408V209ZM62.229 202.568L62.013 201.212C62.165 201.06 62.361 200.928 62.601 200.816C62.841 200.696 63.097 200.604 63.369 200.54C63.641 200.468 63.905 200.432 64.161 200.432C64.689 200.432 65.149 200.528 65.541 200.72C65.941 200.912 66.249 201.184 66.465 201.536C66.681 201.888 66.789 202.312 66.789 202.808C66.789 203.216 66.697 203.632 66.513 204.056C66.337 204.472 66.105 204.884 65.817 205.292C65.529 205.692 65.217 206.08 64.881 206.456C64.545 206.824 64.217 207.168 63.897 207.488C63.577 207.8 63.297 208.08 63.057 208.328H65.817C66.057 208.328 66.253 208.296 66.405 208.232C66.565 208.168 66.705 208.06 66.825 207.908C66.953 207.756 67.085 207.556 67.221 207.308H67.341L66.777 209H61.845V208.88C62.125 208.624 62.441 208.312 62.793 207.944C63.153 207.568 63.513 207.164 63.873 206.732C64.233 206.3 64.565 205.856 64.869 205.4C65.173 204.944 65.417 204.5 65.601 204.068C65.793 203.628 65.889 203.224 65.889 202.856C65.889 202.208 65.733 201.7 65.421 201.332C65.117 200.956 64.697 200.776 64.161 200.792C63.601 200.8 63.157 200.956 62.829 201.26C62.501 201.564 62.341 202 62.349 202.568H62.229Z" fill="black"/>
<path d="M75.408 124H72.804L72.816 123.88H73.068C73.252 123.88 73.408 123.816 73.536 123.688C73.664 123.56 73.728 123.408 73.728 123.232V116.908C73.728 116.716 73.68 116.572 73.584 116.476C73.496 116.372 73.36 116.32 73.176 116.32H72.72V116.2C72.88 116.176 73.032 116.148 73.176 116.116C73.328 116.084 73.472 116.044 73.608 115.996C73.744 115.94 73.876 115.868 74.004 115.78C74.132 115.684 74.256 115.568 74.376 115.432H74.496V123.244C74.496 123.42 74.56 123.572 74.688 123.7C74.824 123.82 74.98 123.88 75.156 123.88H75.408V124ZM78.729 115.456C79.217 115.432 79.637 115.5 79.989 115.66C80.341 115.812 80.613 116.028 80.805 116.308C80.997 116.58 81.093 116.892 81.093 117.244C81.093 117.532 81.029 117.808 80.901 118.072C80.773 118.336 80.605 118.564 80.397 118.756C80.197 118.948 79.977 119.088 79.737 119.176C79.505 119.256 79.281 119.268 79.065 119.212C79.329 119.212 79.593 119.26 79.857 119.356C80.121 119.444 80.365 119.58 80.589 119.764C80.813 119.948 80.989 120.18 81.117 120.46C81.253 120.732 81.321 121.048 81.321 121.408C81.321 121.784 81.241 122.14 81.081 122.476C80.929 122.812 80.713 123.116 80.433 123.388C80.161 123.652 79.837 123.872 79.461 124.048C79.085 124.232 78.673 124.352 78.225 124.408C77.785 124.472 77.325 124.464 76.845 124.384L76.869 124.264C77.349 124.272 77.801 124.208 78.225 124.072C78.649 123.936 79.025 123.74 79.353 123.484C79.689 123.228 79.949 122.92 80.133 122.56C80.325 122.2 80.421 121.804 80.421 121.372C80.421 120.916 80.313 120.544 80.097 120.256C79.889 119.96 79.601 119.744 79.233 119.608C78.865 119.464 78.441 119.392 77.961 119.392L77.985 119.272C78.345 119.272 78.697 119.192 79.041 119.032C79.385 118.872 79.665 118.64 79.881 118.336C80.105 118.032 80.205 117.66 80.181 117.22C80.173 116.98 80.113 116.756 80.001 116.548C79.897 116.332 79.737 116.156 79.521 116.02C79.313 115.884 79.041 115.816 78.705 115.816C78.209 115.816 77.825 115.968 77.553 116.272C77.281 116.568 77.157 116.952 77.181 117.424H77.061L76.857 116.308C77.049 116.092 77.289 115.904 77.577 115.744C77.873 115.576 78.257 115.48 78.729 115.456Z" fill="black"/>
<path d="M144.408 71H141.804L141.816 70.88H142.068C142.252 70.88 142.408 70.816 142.536 70.688C142.664 70.56 142.728 70.408 142.728 70.232V63.908C142.728 63.716 142.68 63.572 142.584 63.476C142.496 63.372 142.36 63.32 142.176 63.32H141.72V63.2C141.88 63.176 142.032 63.148 142.176 63.116C142.328 63.084 142.472 63.044 142.608 62.996C142.744 62.94 142.876 62.868 143.004 62.78C143.132 62.684 143.256 62.568 143.376 62.432H143.496V70.244C143.496 70.42 143.56 70.572 143.688 70.7C143.824 70.82 143.98 70.88 144.156 70.88H144.408V71ZM149.161 63.632L149.821 62.432H149.941V70.988H149.161V63.632ZM149.821 62.432L149.941 62.876L146.329 67.352H150.457C150.681 67.352 150.829 67.332 150.901 67.292C150.973 67.252 151.045 67.192 151.117 67.112H151.237L150.985 68.012H145.429V67.892L149.821 62.432ZM149.941 70.232C149.941 70.408 150.005 70.56 150.133 70.688C150.269 70.816 150.425 70.88 150.601 70.88H150.733V71H148.357L148.369 70.88H148.489C148.673 70.88 148.829 70.82 148.957 70.7C149.093 70.572 149.161 70.416 149.161 70.232H149.941Z" fill="black"/>
<path d="M231.408 76H228.804L228.816 75.88H229.068C229.252 75.88 229.408 75.816 229.536 75.688C229.664 75.56 229.728 75.408 229.728 75.232V68.908C229.728 68.716 229.68 68.572 229.584 68.476C229.496 68.372 229.36 68.32 229.176 68.32H228.72V68.2C228.88 68.176 229.032 68.148 229.176 68.116C229.328 68.084 229.472 68.044 229.608 67.996C229.744 67.94 229.876 67.868 230.004 67.78C230.132 67.684 230.256 67.568 230.376 67.432H230.496V75.244C230.496 75.42 230.56 75.572 230.688 75.7C230.824 75.82 230.98 75.88 231.156 75.88H231.408V76ZM236.793 68.512L233.973 68.692L233.421 70.588C233.925 70.46 234.405 70.416 234.861 70.456C235.325 70.488 235.737 70.604 236.097 70.804C236.457 71.004 236.737 71.284 236.937 71.644C237.137 71.996 237.225 72.432 237.201 72.952C237.177 73.536 237.041 74.036 236.793 74.452C236.545 74.86 236.233 75.2 235.857 75.472C235.489 75.736 235.101 75.94 234.693 76.084C234.285 76.228 233.905 76.32 233.553 76.36C233.201 76.4 232.925 76.404 232.725 76.372L232.749 76.252C232.949 76.26 233.193 76.224 233.481 76.144C233.769 76.064 234.069 75.94 234.381 75.772C234.701 75.604 234.997 75.392 235.269 75.136C235.549 74.88 235.781 74.58 235.965 74.236C236.157 73.884 236.269 73.488 236.301 73.048C236.341 72.504 236.213 72.068 235.917 71.74C235.621 71.404 235.209 71.196 234.681 71.116C234.161 71.036 233.573 71.108 232.917 71.332L232.809 71.284L233.745 68.032L236.121 67.852C236.377 67.852 236.577 67.796 236.721 67.684C236.865 67.572 236.981 67.428 237.069 67.252H237.189L236.793 68.512Z" fill="black"/>
<path d="M290.408 142H287.804L287.816 141.88H288.068C288.252 141.88 288.408 141.816 288.536 141.688C288.664 141.56 288.728 141.408 288.728 141.232V134.908C288.728 134.716 288.68 134.572 288.584 134.476C288.496 134.372 288.36 134.32 288.176 134.32H287.72V134.2C287.88 134.176 288.032 134.148 288.176 134.116C288.328 134.084 288.472 134.044 288.608 133.996C288.744 133.94 288.876 133.868 289.004 133.78C289.132 133.684 289.256 133.568 289.376 133.432H289.496V141.244C289.496 141.42 289.56 141.572 289.688 141.7C289.824 141.82 289.98 141.88 290.156 141.88H290.408V142ZM295.937 133.192L295.985 133.276C295.417 133.46 294.929 133.732 294.521 134.092C294.121 134.444 293.793 134.864 293.537 135.352C293.289 135.832 293.105 136.36 292.985 136.936C292.865 137.512 292.805 138.112 292.805 138.736C292.805 139.336 292.873 139.868 293.009 140.332C293.153 140.796 293.361 141.16 293.633 141.424C293.913 141.688 294.257 141.82 294.665 141.82C295.049 141.82 295.357 141.712 295.589 141.496C295.829 141.28 296.005 141.004 296.117 140.668C296.237 140.324 296.293 139.96 296.285 139.576C296.277 139.176 296.209 138.828 296.081 138.532C295.961 138.236 295.781 138.008 295.541 137.848C295.301 137.68 295.009 137.596 294.665 137.596C294.417 137.596 294.173 137.648 293.933 137.752C293.701 137.856 293.505 138.012 293.345 138.22L293.273 138.112C293.481 137.864 293.717 137.664 293.981 137.512C294.245 137.352 294.517 137.248 294.797 137.2C295.085 137.144 295.361 137.148 295.625 137.212C295.897 137.268 296.145 137.384 296.369 137.56C296.593 137.736 296.777 137.98 296.921 138.292C297.065 138.596 297.153 138.968 297.185 139.408C297.217 139.872 297.133 140.316 296.933 140.74C296.741 141.156 296.449 141.5 296.057 141.772C295.673 142.036 295.209 142.172 294.665 142.18C294.129 142.188 293.649 142.056 293.225 141.784C292.809 141.512 292.481 141.12 292.241 140.608C292.009 140.088 291.897 139.464 291.905 138.736C291.913 138.112 291.997 137.492 292.157 136.876C292.325 136.252 292.573 135.68 292.901 135.16C293.229 134.632 293.645 134.192 294.149 133.84C294.653 133.488 295.249 133.272 295.937 133.192Z" fill="black"/>
<path d="M289.408 229H286.804L286.816 228.88H287.068C287.252 228.88 287.408 228.816 287.536 228.688C287.664 228.56 287.728 228.408 287.728 228.232V221.908C287.728 221.716 287.68 221.572 287.584 221.476C287.496 221.372 287.36 221.32 287.176 221.32H286.72V221.2C286.88 221.176 287.032 221.148 287.176 221.116C287.328 221.084 287.472 221.044 287.608 220.996C287.744 220.94 287.876 220.868 288.004 220.78C288.132 220.684 288.256 220.568 288.376 220.432H288.496V228.244C288.496 228.42 288.56 228.572 288.688 228.7C288.824 228.82 288.98 228.88 289.156 228.88H289.408V229ZM290.545 221.98L290.881 220.624L295.681 220.6L294.385 224.08C294.329 224.24 294.245 224.468 294.133 224.764C294.029 225.06 293.909 225.396 293.773 225.772C293.645 226.148 293.517 226.536 293.389 226.936C293.261 227.328 293.141 227.704 293.029 228.064C292.925 228.424 292.841 228.736 292.777 229H291.937C292.033 228.752 292.145 228.468 292.273 228.148C292.401 227.82 292.537 227.472 292.681 227.104C292.833 226.736 292.981 226.368 293.125 226C293.269 225.624 293.405 225.268 293.533 224.932C293.669 224.596 293.789 224.296 293.893 224.032L294.949 221.26H291.565C291.325 221.26 291.137 221.32 291.001 221.44C290.865 221.56 290.753 221.74 290.665 221.98H290.545Z" fill="black"/>
<path d="M234.408 299H231.804L231.816 298.88H232.068C232.252 298.88 232.408 298.816 232.536 298.688C232.664 298.56 232.728 298.408 232.728 298.232V291.908C232.728 291.716 232.68 291.572 232.584 291.476C232.496 291.372 232.36 291.32 232.176 291.32H231.72V291.2C231.88 291.176 232.032 291.148 232.176 291.116C232.328 291.084 232.472 291.044 232.608 290.996C232.744 290.94 232.876 290.868 233.004 290.78C233.132 290.684 233.256 290.568 233.376 290.432H233.496V298.244C233.496 298.42 233.56 298.572 233.688 298.7C233.824 298.82 233.98 298.88 234.156 298.88H234.408V299ZM236.277 292.436C236.277 292.06 236.361 291.724 236.529 291.428C236.705 291.124 236.953 290.884 237.273 290.708C237.601 290.532 237.989 290.44 238.437 290.432C238.853 290.424 239.221 290.5 239.541 290.66C239.869 290.82 240.125 291.052 240.309 291.356C240.501 291.66 240.597 292.028 240.597 292.46C240.597 292.812 240.529 293.136 240.393 293.432C240.257 293.72 240.057 293.968 239.793 294.176C239.529 294.376 239.205 294.524 238.821 294.62L238.497 294.44C238.801 294.24 239.037 294.028 239.205 293.804C239.381 293.58 239.505 293.348 239.577 293.108C239.657 292.86 239.697 292.612 239.697 292.364C239.697 291.884 239.585 291.504 239.361 291.224C239.137 290.936 238.833 290.792 238.449 290.792C238.041 290.792 237.725 290.94 237.501 291.236C237.285 291.532 237.177 291.88 237.177 292.28C237.177 292.544 237.225 292.792 237.321 293.024C237.417 293.256 237.557 293.468 237.741 293.66C237.925 293.844 238.149 294.012 238.413 294.164C238.637 294.292 238.897 294.428 239.193 294.572C239.489 294.708 239.777 294.876 240.057 295.076C240.337 295.268 240.569 295.512 240.753 295.808C240.937 296.096 241.029 296.46 241.029 296.9C241.029 297.348 240.921 297.744 240.705 298.088C240.497 298.424 240.197 298.688 239.805 298.88C239.421 299.072 238.965 299.168 238.437 299.168C238.045 299.168 237.685 299.112 237.357 299C237.029 298.888 236.749 298.732 236.517 298.532C236.293 298.324 236.121 298.076 236.001 297.788C235.881 297.5 235.829 297.18 235.845 296.828C235.853 296.612 235.885 296.412 235.941 296.228C236.005 296.036 236.089 295.86 236.193 295.7C236.305 295.532 236.437 295.38 236.589 295.244C236.749 295.1 236.929 294.968 237.129 294.848C237.337 294.72 237.565 294.604 237.813 294.5L238.101 294.728C237.733 294.952 237.417 295.244 237.153 295.604C236.889 295.956 236.753 296.404 236.745 296.948C236.737 297.516 236.885 297.968 237.189 298.304C237.493 298.64 237.913 298.808 238.449 298.808C238.841 298.808 239.157 298.724 239.397 298.556C239.645 298.388 239.829 298.172 239.949 297.908C240.069 297.644 240.129 297.364 240.129 297.068C240.129 296.756 240.073 296.496 239.961 296.288C239.857 296.08 239.717 295.904 239.541 295.76C239.365 295.616 239.173 295.492 238.965 295.388C238.765 295.284 238.569 295.184 238.377 295.088C238.081 294.928 237.805 294.76 237.549 294.584C237.293 294.4 237.069 294.2 236.877 293.984C236.685 293.76 236.537 293.52 236.433 293.264C236.329 293.008 236.277 292.732 236.277 292.436Z" fill="black"/>
<path d="M146.408 319H143.804L143.816 318.88H144.068C144.252 318.88 144.408 318.816 144.536 318.688C144.664 318.56 144.728 318.408 144.728 318.232V311.908C144.728 311.716 144.68 311.572 144.584 311.476C144.496 311.372 144.36 311.32 144.176 311.32H143.72V311.2C143.88 311.176 144.032 311.148 144.176 311.116C144.328 311.084 144.472 311.044 144.608 310.996C144.744 310.94 144.876 310.868 145.004 310.78C145.132 310.684 145.256 310.568 145.376 310.432H145.496V318.244C145.496 318.42 145.56 318.572 145.688 318.7C145.824 318.82 145.98 318.88 146.156 318.88H146.408V319ZM149.033 319.444L148.997 319.36C149.565 319.2 150.049 318.944 150.449 318.592C150.849 318.24 151.173 317.82 151.421 317.332C151.677 316.844 151.865 316.316 151.985 315.748C152.105 315.172 152.165 314.584 152.165 313.984C152.165 313.336 152.097 312.776 151.961 312.304C151.825 311.824 151.621 311.456 151.349 311.2C151.077 310.944 150.733 310.816 150.317 310.816C149.941 310.816 149.629 310.92 149.381 311.128C149.141 311.336 148.965 311.612 148.853 311.956C148.741 312.292 148.689 312.66 148.697 313.06C148.705 313.444 148.769 313.788 148.889 314.092C149.017 314.396 149.201 314.632 149.441 314.8C149.681 314.968 149.973 315.048 150.317 315.04C150.565 315.032 150.805 314.98 151.037 314.884C151.277 314.78 151.477 314.624 151.637 314.416L151.697 314.524C151.497 314.78 151.265 314.984 151.001 315.136C150.737 315.288 150.461 315.388 150.173 315.436C149.885 315.484 149.601 315.476 149.321 315.412C149.049 315.34 148.797 315.216 148.565 315.04C148.341 314.856 148.161 314.616 148.025 314.32C147.889 314.016 147.813 313.652 147.797 313.228C147.781 312.66 147.881 312.172 148.097 311.764C148.313 311.356 148.613 311.04 148.997 310.816C149.389 310.584 149.829 310.464 150.317 310.456C151.149 310.44 151.813 310.736 152.309 311.344C152.813 311.944 153.065 312.8 153.065 313.912C153.065 314.512 152.985 315.124 152.825 315.748C152.665 316.364 152.417 316.944 152.081 317.488C151.753 318.024 151.337 318.468 150.833 318.82C150.329 319.172 149.729 319.38 149.033 319.444Z" fill="black"/>
<path d="M61.104 280.568L60.888 279.212C61.04 279.06 61.236 278.928 61.476 278.816C61.716 278.696 61.972 278.604 62.244 278.54C62.516 278.468 62.78 278.432 63.036 278.432C63.564 278.432 64.024 278.528 64.416 278.72C64.816 278.912 65.124 279.184 65.34 279.536C65.556 279.888 65.664 280.312 65.664 280.808C65.664 281.216 65.572 281.632 65.388 282.056C65.212 282.472 64.98 282.884 64.692 283.292C64.404 283.692 64.092 284.08 63.756 284.456C63.42 284.824 63.092 285.168 62.772 285.488C62.452 285.8 62.172 286.08 61.932 286.328H64.692C64.932 286.328 65.128 286.296 65.28 286.232C65.44 286.168 65.58 286.06 65.7 285.908C65.828 285.756 65.96 285.556 66.096 285.308H66.216L65.652 287H60.72V286.88C61 286.624 61.316 286.312 61.668 285.944C62.028 285.568 62.388 285.164 62.748 284.732C63.108 284.3 63.44 283.856 63.744 283.4C64.048 282.944 64.292 282.5 64.476 282.068C64.668 281.628 64.764 281.224 64.764 280.856C64.764 280.208 64.608 279.7 64.296 279.332C63.992 278.956 63.572 278.776 63.036 278.792C62.476 278.8 62.032 278.956 61.704 279.26C61.376 279.564 61.216 280 61.224 280.568H61.104ZM70.2088 278.432C70.7928 278.432 71.2928 278.608 71.7088 278.96C72.1328 279.312 72.4568 279.816 72.6808 280.472C72.9128 281.12 73.0288 281.896 73.0288 282.8C73.0288 283.704 72.9128 284.484 72.6808 285.14C72.4568 285.788 72.1328 286.288 71.7088 286.64C71.2928 286.992 70.7928 287.168 70.2088 287.168C69.6248 287.168 69.1208 286.992 68.6968 286.64C68.2808 286.288 67.9568 285.788 67.7248 285.14C67.5008 284.484 67.3888 283.704 67.3888 282.8C67.3888 281.896 67.5008 281.12 67.7248 280.472C67.9568 279.816 68.2808 279.312 68.6968 278.96C69.1208 278.608 69.6248 278.432 70.2088 278.432ZM70.2088 278.792C69.6008 278.792 69.1168 279.152 68.7568 279.872C68.4048 280.584 68.2288 281.56 68.2288 282.8C68.2288 284.04 68.4048 285.02 68.7568 285.74C69.1168 286.452 69.6008 286.808 70.2088 286.808C70.8248 286.808 71.3088 286.452 71.6608 285.74C72.0128 285.02 72.1888 284.04 72.1888 282.8C72.1888 281.56 72.0128 280.584 71.6608 279.872C71.3088 279.152 70.8248 278.792 70.2088 278.792Z" fill="black"/>
<path d="M18.104 201.568L17.888 200.212C18.04 200.06 18.236 199.928 18.476 199.816C18.716 199.696 18.972 199.604 19.244 199.54C19.516 199.468 19.78 199.432 20.036 199.432C20.564 199.432 21.024 199.528 21.416 199.72C21.816 199.912 22.124 200.184 22.34 200.536C22.556 200.888 22.664 201.312 22.664 201.808C22.664 202.216 22.572 202.632 22.388 203.056C22.212 203.472 21.98 203.884 21.692 204.292C21.404 204.692 21.092 205.08 20.756 205.456C20.42 205.824 20.092 206.168 19.772 206.488C19.452 206.8 19.172 207.08 18.932 207.328H21.692C21.932 207.328 22.128 207.296 22.28 207.232C22.44 207.168 22.58 207.06 22.7 206.908C22.828 206.756 22.96 206.556 23.096 206.308H23.216L22.652 208H17.72V207.88C18 207.624 18.316 207.312 18.668 206.944C19.028 206.568 19.388 206.164 19.748 205.732C20.108 205.3 20.44 204.856 20.744 204.4C21.048 203.944 21.292 203.5 21.476 203.068C21.668 202.628 21.764 202.224 21.764 201.856C21.764 201.208 21.608 200.7 21.296 200.332C20.992 199.956 20.572 199.776 20.036 199.792C19.476 199.8 19.032 199.956 18.704 200.26C18.376 200.564 18.216 201 18.224 201.568H18.104ZM27.0408 208H24.4368L24.4488 207.88H24.7008C24.8848 207.88 25.0408 207.816 25.1688 207.688C25.2968 207.56 25.3608 207.408 25.3608 207.232V200.908C25.3608 200.716 25.3128 200.572 25.2168 200.476C25.1288 200.372 24.9928 200.32 24.8088 200.32H24.3528V200.2C24.5128 200.176 24.6648 200.148 24.8088 200.116C24.9608 200.084 25.1048 200.044 25.2408 199.996C25.3768 199.94 25.5088 199.868 25.6368 199.78C25.7648 199.684 25.8888 199.568 26.0088 199.432H26.1288V207.244C26.1288 207.42 26.1928 207.572 26.3208 207.7C26.4568 207.82 26.6128 207.88 26.7888 207.88H27.0408V208Z" fill="black"/>
<path d="M30.104 112.568L29.888 111.212C30.04 111.06 30.236 110.928 30.476 110.816C30.716 110.696 30.972 110.604 31.244 110.54C31.516 110.468 31.78 110.432 32.036 110.432C32.564 110.432 33.024 110.528 33.416 110.72C33.816 110.912 34.124 111.184 34.34 111.536C34.556 111.888 34.664 112.312 34.664 112.808C34.664 113.216 34.572 113.632 34.388 114.056C34.212 114.472 33.98 114.884 33.692 115.292C33.404 115.692 33.092 116.08 32.756 116.456C32.42 116.824 32.092 117.168 31.772 117.488C31.452 117.8 31.172 118.08 30.932 118.328H33.692C33.932 118.328 34.128 118.296 34.28 118.232C34.44 118.168 34.58 118.06 34.7 117.908C34.828 117.756 34.96 117.556 35.096 117.308H35.216L34.652 119H29.72V118.88C30 118.624 30.316 118.312 30.668 117.944C31.028 117.568 31.388 117.164 31.748 116.732C32.108 116.3 32.44 115.856 32.744 115.4C33.048 114.944 33.292 114.5 33.476 114.068C33.668 113.628 33.764 113.224 33.764 112.856C33.764 112.208 33.608 111.7 33.296 111.332C32.992 110.956 32.572 110.776 32.036 110.792C31.476 110.8 31.032 110.956 30.704 111.26C30.376 111.564 30.216 112 30.224 112.568H30.104ZM36.7368 112.568L36.5208 111.212C36.6728 111.06 36.8688 110.928 37.1088 110.816C37.3488 110.696 37.6048 110.604 37.8768 110.54C38.1488 110.468 38.4128 110.432 38.6688 110.432C39.1968 110.432 39.6568 110.528 40.0488 110.72C40.4488 110.912 40.7568 111.184 40.9728 111.536C41.1888 111.888 41.2968 112.312 41.2968 112.808C41.2968 113.216 41.2048 113.632 41.0208 114.056C40.8448 114.472 40.6128 114.884 40.3248 115.292C40.0368 115.692 39.7248 116.08 39.3888 116.456C39.0528 116.824 38.7248 117.168 38.4048 117.488C38.0848 117.8 37.8048 118.08 37.5648 118.328H40.3248C40.5648 118.328 40.7608 118.296 40.9128 118.232C41.0728 118.168 41.2128 118.06 41.3328 117.908C41.4608 117.756 41.5928 117.556 41.7288 117.308H41.8488L41.2848 119H36.3528V118.88C36.6328 118.624 36.9488 118.312 37.3008 117.944C37.6608 117.568 38.0208 117.164 38.3808 116.732C38.7408 116.3 39.0728 115.856 39.3768 115.4C39.6808 114.944 39.9248 114.5 40.1088 114.068C40.3008 113.628 40.3968 113.224 40.3968 112.856C40.3968 112.208 40.2408 111.7 39.9288 111.332C39.6248 110.956 39.2048 110.776 38.6688 110.792C38.1088 110.8 37.6648 110.956 37.3368 111.26C37.0088 111.564 36.8488 112 36.8568 112.568H36.7368Z" fill="black"/>
<path d="M92.104 42.568L91.888 41.212C92.04 41.06 92.236 40.928 92.476 40.816C92.716 40.696 92.972 40.604 93.244 40.54C93.516 40.468 93.78 40.432 94.036 40.432C94.564 40.432 95.024 40.528 95.416 40.72C95.816 40.912 96.124 41.184 96.34 41.536C96.556 41.888 96.664 42.312 96.664 42.808C96.664 43.216 96.572 43.632 96.388 44.056C96.212 44.472 95.98 44.884 95.692 45.292C95.404 45.692 95.092 46.08 94.756 46.456C94.42 46.824 94.092 47.168 93.772 47.488C93.452 47.8 93.172 48.08 92.932 48.328H95.692C95.932 48.328 96.128 48.296 96.28 48.232C96.44 48.168 96.58 48.06 96.7 47.908C96.828 47.756 96.96 47.556 97.096 47.308H97.216L96.652 49H91.72V48.88C92 48.624 92.316 48.312 92.668 47.944C93.028 47.568 93.388 47.164 93.748 46.732C94.108 46.3 94.44 45.856 94.744 45.4C95.048 44.944 95.292 44.5 95.476 44.068C95.668 43.628 95.764 43.224 95.764 42.856C95.764 42.208 95.608 41.7 95.296 41.332C94.992 40.956 94.572 40.776 94.036 40.792C93.476 40.8 93.032 40.956 92.704 41.26C92.376 41.564 92.216 42 92.224 42.568H92.104ZM100.237 40.456C100.725 40.432 101.145 40.5 101.497 40.66C101.849 40.812 102.121 41.028 102.313 41.308C102.505 41.58 102.601 41.892 102.601 42.244C102.601 42.532 102.537 42.808 102.409 43.072C102.281 43.336 102.113 43.564 101.905 43.756C101.705 43.948 101.485 44.088 101.245 44.176C101.013 44.256 100.789 44.268 100.573 44.212C100.837 44.212 101.101 44.26 101.365 44.356C101.629 44.444 101.873 44.58 102.097 44.764C102.321 44.948 102.497 45.18 102.625 45.46C102.761 45.732 102.829 46.048 102.829 46.408C102.829 46.784 102.749 47.14 102.589 47.476C102.437 47.812 102.221 48.116 101.941 48.388C101.669 48.652 101.345 48.872 100.969 49.048C100.593 49.232 100.181 49.352 99.7328 49.408C99.2928 49.472 98.8328 49.464 98.3528 49.384L98.3768 49.264C98.8568 49.272 99.3088 49.208 99.7328 49.072C100.157 48.936 100.533 48.74 100.861 48.484C101.197 48.228 101.457 47.92 101.641 47.56C101.833 47.2 101.929 46.804 101.929 46.372C101.929 45.916 101.821 45.544 101.605 45.256C101.397 44.96 101.109 44.744 100.741 44.608C100.373 44.464 99.9488 44.392 99.4688 44.392L99.4928 44.272C99.8528 44.272 100.205 44.192 100.549 44.032C100.893 43.872 101.173 43.64 101.389 43.336C101.613 43.032 101.713 42.66 101.689 42.22C101.681 41.98 101.621 41.756 101.509 41.548C101.405 41.332 101.245 41.156 101.029 41.02C100.821 40.884 100.549 40.816 100.213 40.816C99.7168 40.816 99.3328 40.968 99.0608 41.272C98.7888 41.568 98.6648 41.952 98.6888 42.424H98.5688L98.3648 41.308C98.5568 41.092 98.7968 40.904 99.0848 40.744C99.3808 40.576 99.7648 40.48 100.237 40.456Z" fill="black"/>
<path d="M181.104 17.568L180.888 16.212C181.04 16.06 181.236 15.928 181.476 15.816C181.716 15.696 181.972 15.604 182.244 15.54C182.516 15.468 182.78 15.432 183.036 15.432C183.564 15.432 184.024 15.528 184.416 15.72C184.816 15.912 185.124 16.184 185.34 16.536C185.556 16.888 185.664 17.312 185.664 17.808C185.664 18.216 185.572 18.632 185.388 19.056C185.212 19.472 184.98 19.884 184.692 20.292C184.404 20.692 184.092 21.08 183.756 21.456C183.42 21.824 183.092 22.168 182.772 22.488C182.452 22.8 182.172 23.08 181.932 23.328H184.692C184.932 23.328 185.128 23.296 185.28 23.232C185.44 23.168 185.58 23.06 185.7 22.908C185.828 22.756 185.96 22.556 186.096 22.308H186.216L185.652 24H180.72V23.88C181 23.624 181.316 23.312 181.668 22.944C182.028 22.568 182.388 22.164 182.748 21.732C183.108 21.3 183.44 20.856 183.744 20.4C184.048 19.944 184.292 19.5 184.476 19.068C184.668 18.628 184.764 18.224 184.764 17.856C184.764 17.208 184.608 16.7 184.296 16.332C183.992 15.956 183.572 15.776 183.036 15.792C182.476 15.8 182.032 15.956 181.704 16.26C181.376 16.564 181.216 17 181.224 17.568H181.104ZM190.669 16.632L191.329 15.432H191.449V23.988H190.669V16.632ZM191.329 15.432L191.449 15.876L187.837 20.352H191.965C192.189 20.352 192.337 20.332 192.409 20.292C192.481 20.252 192.553 20.192 192.625 20.112H192.745L192.493 21.012H186.937V20.892L191.329 15.432ZM191.449 23.232C191.449 23.408 191.513 23.56 191.641 23.688C191.777 23.816 191.933 23.88 192.109 23.88H192.241V24H189.865L189.877 23.88H189.997C190.181 23.88 190.337 23.82 190.465 23.7C190.601 23.572 190.669 23.416 190.669 23.232H191.449Z" fill="black"/>
</svg>
