<svg width="320" height="340" viewBox="0 0 320 340" fill="none" xmlns="http://www.w3.org/2000/svg">
<defs><filter id="shadows">
    <feOffset dx='0' dy='0' />
    <feGaussianBlur stdDeviation='3' result='offset-blur' />
    <feComposite operator='out' in='SourceGraphic' in2='offset-blur' result='inverse' />
    <feFlood flood-color='black' flood-opacity='.95' result='color' />
    <feComposite operator='in' in='color' in2='inverse' result='shadow' />
    <feComposite operator='over' in='shadow' in2='SourceGraphic' />
</filter></defs>
<path d="M160.016 178.997C162.48 155.993 190.477 153.949 197.002 170.439L160.016 178.997Z" stroke="#000000" stroke-opacity="0.1" stroke-width="1"/>
<path d="M197.002 170.439L160.016 178.997L195.042 195.942C199.409 186.125 200.106 180.552 197.002 170.439Z" stroke="#000000" stroke-opacity="0.1" stroke-width="1"/>
<path d="M195.042 195.942L160.016 178.997L177.069 213.47C185.277 209.351 189.281 205.654 195.042 195.942Z" stroke="#000000" stroke-opacity="0.1" stroke-width="1"/>
<path d="M177.069 213.47C167.987 217.497 162.535 218.351 152.075 217.009L160.016 178.997L177.069 213.47Z" stroke="#000000" stroke-opacity="0.1" stroke-width="1"/>
<path d="M152.075 217.009L160.016 178.997L131.055 204.542C138.541 211.8 143.156 214.473 152.075 217.009Z" stroke="#000000" stroke-opacity="0.1" stroke-width="1"/>
<path d="M131.055 204.542C124.738 195.797 122.47 190.788 122.02 181.556L160.016 178.997L131.055 204.542Z" stroke="#000000" stroke-opacity="0.1" stroke-width="1"/>
<path d="M125.981 157.05C122.564 166.495 121.751 171.857 122.02 181.556L160.016 178.997C160.386 175.861 160.795 174.108 162.003 170.994L125.981 157.05Z" stroke="#000000" stroke-opacity="0.1" stroke-width="1"/>
<path d="M140.448 136.027C133.238 143.669 129.966 148.232 125.981 157.05L162.003 170.994C163.658 167.704 164.954 166.149 167.992 163.984L140.448 136.027Z" stroke="#000000" stroke-opacity="0.1" stroke-width="1"/>
<path d="M162.43 123.993C152.586 126.905 147.715 129.474 140.448 136.027L167.992 163.984C170.191 161.823 171.553 161.338 174.487 160.474L162.43 123.993Z" stroke="#000000" stroke-opacity="0.1" stroke-width="1"/>
<path d="M187.426 121.454C177.688 120.35 172.213 121.159 162.43 123.993L174.487 160.474C178.384 159.5 180.574 159.422 184.486 159.959L187.426 121.454Z" stroke="#000000" stroke-opacity="0.1" stroke-width="1"/>
<path d="M187.426 121.454L184.486 159.959L189.989 161.95L210.94 130.417C202.377 124.848 197.255 122.41 187.426 121.454Z" stroke="#000000" stroke-opacity="0.1" stroke-width="1"/>
<path d="M228.468 148.39C222.921 139.875 219.194 135.816 210.94 130.417L189.989 161.95C192.947 164.4 194.176 165.833 195.999 168.441L228.468 148.39Z" stroke="#000000" stroke-opacity="0.1" stroke-width="1"/>
<path d="M237.005 171.877C235.334 162.563 233.603 157.409 228.468 148.39L195.999 168.441C197.564 171.534 198.07 173.287 198.512 176.437L237.005 171.877Z" stroke="#000000" stroke-opacity="0.1" stroke-width="1"/>
<path d="M235.544 197.379C237.751 187.347 237.429 181.812 237.005 171.877L198.512 176.437C199.105 181.158 198.915 183.651 198.03 187.937L235.544 197.379Z" stroke="#000000" stroke-opacity="0.1" stroke-width="1"/>
<path d="M225.58 220.395C230.43 211.978 232.758 207.446 235.544 197.379L198.03 187.938C197.543 191.272 194.915 196.536 193.048 199.445L225.58 220.395Z" stroke="#000000" stroke-opacity="0.1" stroke-width="1"/>
<path d="M208.11 239.422C215.892 233.213 219.673 228.984 225.58 220.394L193.048 199.445C190.131 203.482 188.298 205.581 184.562 208.958L208.11 239.422Z" stroke="#000000" stroke-opacity="0.1" stroke-width="1"/>
<path d="M186.13 251.956C195.227 248.314 200.004 245.481 208.11 239.422L184.562 208.959C180.551 211.709 178.212 213.12 173.572 214.976L186.13 251.956Z" stroke="#000000" stroke-opacity="0.1" stroke-width="1"/>
<path d="M161.636 255.994C171.215 256.063 176.576 255.125 186.13 251.956L173.572 214.976C169.356 216.564 166.964 217.213 162.576 217.493L161.636 255.994Z" stroke="#000000" stroke-opacity="0.1" stroke-width="1"/>
<path d="M136.63 252.533C146.45 255.527 151.921 256.179 161.636 255.994L162.576 217.493C157.614 217.778 154.888 217.538 150.074 216.512L136.63 252.533Z" stroke="#000000" stroke-opacity="0.1" stroke-width="1"/>
<path d="M114.112 241.069C122.151 246.88 127.112 249.343 136.63 252.533L150.074 216.512C144.509 214.523 141.646 213.13 137.064 210.033L114.112 241.069Z" stroke="#000000" stroke-opacity="0.1" stroke-width="1"/>
<path d="M96.5844 223.096C102.28 231.18 106.152 235.087 114.112 241.069L137.064 210.033C133.134 207.019 131.371 205.166 129.051 201.545L96.5844 223.096Z" stroke="#000000" stroke-opacity="0.1" stroke-width="1"/>
<path d="M86.0485 200.112C88.788 209.372 91.2058 214.381 96.5844 223.096L129.051 201.545C126.164 197.703 124.902 195.332 123.534 190.554L86.0485 200.112Z" stroke="#000000" stroke-opacity="0.1" stroke-width="1"/>
<path d="M83.0103 175.617C82.8179 186.263 83.5812 191.55 86.0485 200.112L123.534 190.554C122.264 185.857 121.789 183.16 122.014 178.056L83.0103 175.617Z" stroke="#000000" stroke-opacity="0.1" stroke-width="1"/>
<path d="M86.9705 150.111C84.455 160.039 83.6367 165.625 83.0103 175.617L122.014 178.056C122.014 172.149 122.52 168.654 124.489 162.052L86.9705 150.111Z" stroke="#000000" stroke-opacity="0.1" stroke-width="1"/>
<path d="M97.936 128.094C92.4819 136.346 90.0034 141.141 86.9704 150.111L124.489 162.052C126.019 156.586 127.35 153.632 130.468 148.543L97.936 128.094Z" stroke="#000000" stroke-opacity="0.1" stroke-width="1"/>
<path d="M113.906 108.569C106.062 115.894 102.425 120.144 97.9361 128.094L130.468 148.543C133.68 143.459 135.973 140.89 140.449 136.527L113.906 108.569Z" stroke="#000000" stroke-opacity="0.1" stroke-width="1"/>
<path d="M134.883 94.0361C125.973 98.535 121.346 101.652 113.906 108.569L140.449 136.527C144.033 132.622 146.297 130.54 151.935 127.509L134.883 94.0361Z" stroke="#000000" stroke-opacity="0.1" stroke-width="1"/>
<path d="M158.869 84.9987C148.964 87.1881 143.705 89.1353 134.883 94.0361L151.935 127.51C158.111 125.228 161.496 124.116 167.427 122.485L158.869 84.9987Z" stroke="#000000" stroke-opacity="0.1" stroke-width="1"/>
<path d="M183.365 82.4604C173.352 82.334 167.96 82.8444 158.869 84.9986L167.427 122.485C172.975 121.296 176.161 121.044 181.925 120.963L183.365 82.4604Z" stroke="#000000" stroke-opacity="0.1" stroke-width="1"/>
<path d="M208.148 86.9216C198.787 83.9612 193.34 83.0517 183.365 82.4603L181.925 120.963C188.806 121.054 190.146 121.8 197.429 123.438L208.148 86.9216Z" stroke="#000000" stroke-opacity="0.1" stroke-width="1"/>
<path d="M230.888 97.3862C222.314 92.4975 217.338 89.9913 208.152 86.9216L197.429 123.438C203.052 125.561 205.982 127.136 210.94 130.417L230.888 97.3862Z" stroke="#000000" stroke-opacity="0.1" stroke-width="1"/>
<path d="M250.656 113.855C243.734 106.472 239.351 102.933 230.888 97.386L210.94 130.417C216.069 133.794 218.586 135.988 222.455 140.399L250.656 113.855Z" stroke="#000000" stroke-opacity="0.1" stroke-width="1"/>
<path d="M264.946 134.333C260.484 126.047 257.492 121.574 250.654 113.855L222.455 140.399C225.992 144.558 227.601 146.856 229.972 150.888L264.946 134.333Z" stroke="#000000" stroke-opacity="0.1" stroke-width="1"/>
<path d="M273.483 158.32C271.45 148.73 269.658 143.465 264.946 134.333L229.972 150.888C232.76 156.593 233.934 159.764 235.494 165.379L273.483 158.32Z" stroke="#000000" stroke-opacity="0.1" stroke-width="1"/>
<path d="M275.852 184.071C276.174 173.842 275.919 168.187 273.483 158.32L235.494 165.379C237.319 172.701 237.782 175.052 237.521 182.376L275.852 184.071Z" stroke="#000000" stroke-opacity="0.1" stroke-width="1"/>
<path d="M272.063 209.322C274.441 199.697 275.25 194.164 275.854 184.066L237.521 182.376C237.259 188.548 236.816 191.827 235.544 197.379L272.063 209.322Z" stroke="#000000" stroke-opacity="0.1" stroke-width="1"/>
<path d="M263.099 232.336C267.321 223.636 269.299 218.606 272.063 209.322L235.544 197.379C233.666 204.249 232.288 207.988 229.071 214.389L263.099 232.336Z" stroke="#000000" stroke-opacity="0.1" stroke-width="1"/>
<path d="M248.632 253.359C255.119 245.823 258.348 241.269 263.099 232.336L229.071 214.389C226.246 219.732 224.373 222.569 220.591 227.402L248.632 253.359Z" stroke="#000000" stroke-opacity="0.1" stroke-width="1"/>
<path d="M230.659 270.887C238.272 265.306 242.187 261.483 248.632 253.359L220.591 227.402C216.01 232.558 213.259 235.161 208.11 239.422L230.659 270.887Z" stroke="#000000" stroke-opacity="0.1" stroke-width="1"/>
<path d="M208.68 283.921C217.969 279.913 222.792 277.084 230.659 270.887L208.11 239.422C202.165 244.066 198.673 246.357 192.126 249.397L208.68 283.921Z" stroke="#000000" stroke-opacity="0.1" stroke-width="1"/>
<path d="M185.192 291.958C194.653 290.025 199.777 288.183 208.68 283.921L192.126 249.447C186.857 251.859 183.718 253.002 177.634 254.469L185.192 291.958Z" stroke="#000000" stroke-opacity="0.1" stroke-width="1"/>
<path d="M160.196 294.497C169.828 294.446 175.494 293.885 185.192 291.958L177.634 254.469C171.569 255.707 166.182 256.071 160.136 255.997L160.196 294.497Z" stroke="#000000" stroke-opacity="0.1" stroke-width="1"/>
<path d="M134.692 292.037C144.675 294.238 150.258 294.668 160.196 294.497L160.136 255.997C152.934 256.163 150.88 255.755 143.634 254.523L134.692 292.037Z" stroke="#000000" stroke-opacity="0.1" stroke-width="1"/>
<path d="M110.179 283.575C119.729 287.613 125.101 289.387 134.692 292.037L143.634 254.523C137.529 253.312 134.235 252.245 128.626 249.546L110.179 283.575Z" stroke="#000000" stroke-opacity="0.1" stroke-width="1"/>
<path d="M89.6586 270.607C96.6136 276.361 101.057 279.23 110.179 283.575L128.626 249.546C123.176 246.792 119.991 244.945 114.113 241.069L89.6586 270.607Z" stroke="#000000" stroke-opacity="0.1" stroke-width="1"/>
<path d="M71.1312 253.136C77.6983 260.367 81.7095 264.218 89.6585 270.607L114.112 241.069C108.22 236.904 105.401 234.268 101.094 229.089L71.1312 253.136Z" stroke="#000000" stroke-opacity="0.1" stroke-width="1"/>
<path d="M57.0985 232.158C61.9713 240.51 65.0268 245.109 71.1313 253.136L101.094 229.089C96.8459 224.074 94.9773 221.084 92.0727 215.603L57.0985 232.158Z" stroke="#000000" stroke-opacity="0.1" stroke-width="1"/>
<path d="M48.0611 208.172C50.9198 217.549 52.8782 222.801 57.0985 232.158L92.0727 215.603C89.1373 209.577 87.879 206.182 86.0485 200.112L48.0611 208.172Z" stroke="#000000" stroke-opacity="0.1" stroke-width="1"/>
<path d="M44.5227 183.677C45.2383 193.332 45.5893 198.7 48.061 208.172L86.0484 200.112C84.2008 193.327 83.5107 189.396 83.0203 182.117L44.5227 183.677Z" stroke="#000000" stroke-opacity="0.1" stroke-width="1"/>
<path d="M45.9834 158.485C44.6189 168.267 44.3699 173.788 44.5227 183.677L83.0204 182.117C82.7612 175.624 82.8076 172.003 83.7446 165.616L45.9834 158.485Z" stroke="#000000" stroke-opacity="0.1" stroke-width="1"/>
<path d="M51.9454 134.165C48.6401 143.613 47.354 148.975 45.9837 158.675L83.9946 165.615C84.8713 159.011 85.6674 155.285 87.468 148.61L51.9454 134.165Z" stroke="#000000" stroke-opacity="0.1" stroke-width="1"/>
<path d="M62.9095 111.148C57.6277 119.644 55.1882 124.675 51.9455 134.165L87.4681 148.61C90.0565 141.198 91.9421 137.771 95.9407 131.097L62.9095 111.148Z" stroke="#000000" stroke-opacity="0.1" stroke-width="1"/>
<path d="M106.917 115.58L77.3775 90.6258C70.933 98.5749 67.662 103.06 62.9096 111.148L95.9408 131.097C99.5232 124.972 101.89 121.575 106.917 115.58Z" stroke="#000000" stroke-opacity="0.1" stroke-width="1"/>
<path d="M95.8502 73.0968C88.0648 79.2308 83.9697 83.0124 77.3775 90.6257L106.917 115.58C111.738 110.23 114.695 107.493 120.397 103.059L95.8502 73.0968Z" stroke="#000000" stroke-opacity="0.1" stroke-width="1"/>
<path d="M116.829 59.5641C108.328 63.9557 103.727 66.8927 95.8502 73.0969L120.397 103.059C125.463 98.9617 128.591 96.9958 134.883 94.036L116.829 59.5641Z" stroke="#000000" stroke-opacity="0.1" stroke-width="1"/>
<path d="M140.814 49.7606C131.367 52.6426 126.121 54.8514 116.829 59.5642L134.883 94.036C141.91 90.1461 145.988 88.2477 153.371 86.2572L140.814 49.7606Z" stroke="#000000" stroke-opacity="0.1" stroke-width="1"/>
<path d="M164.806 44.9891C155.235 45.4835 150.001 46.4436 140.814 49.7566L153.371 86.257C159.183 84.86 162.475 83.9888 168.366 82.9836L164.806 44.9891Z" stroke="#000000" stroke-opacity="0.1" stroke-width="1"/>
<path d="M190.306 44.4495C180.351 43.8082 174.751 43.9114 164.806 44.9893L168.366 82.9838C175.928 82.296 180.164 82.3123 187.729 82.9535L190.306 44.4495Z" stroke="#000000" stroke-opacity="0.1" stroke-width="1"/>
<path d="M215.313 48.9104C205.819 46.1476 200.404 45.1615 190.306 44.4495L187.866 82.9533C194.808 83.2065 198.636 83.9175 205.37 85.926L215.313 48.9104Z" stroke="#000000" stroke-opacity="0.1" stroke-width="1"/>
<path d="M238.827 57.8737C229.99 53.7031 224.889 51.7296 215.312 48.9104L205.37 85.926C212.521 88.0978 216.619 89.6284 222.74 92.8989L238.827 57.8737Z" stroke="#000000" stroke-opacity="0.1" stroke-width="1"/>
<path d="M260.347 70.8401C252.78 64.9978 248.036 62.19 238.827 57.8737L222.881 92.8986C228.607 95.7887 231.795 97.7167 237.395 101.876L260.347 70.8401Z" stroke="#000000" stroke-opacity="0.1" stroke-width="1"/>
<path d="M278.873 87.8112C272.145 80.6133 268.11 76.8709 260.347 70.8401L237.395 101.876C242.888 106.028 245.715 108.477 249.913 113.235L278.873 87.8112Z" stroke="#000000" stroke-opacity="0.1" stroke-width="1"/>
<path d="M294.405 107.787C288.899 99.5195 285.575 95.0797 278.873 87.8112L249.913 113.119C255.764 119.681 258.567 123.026 261.938 128.968L294.405 107.787Z" stroke="#000000" stroke-opacity="0.1" stroke-width="1"/>
<path d="M305.687 130.769C302.432 121.893 300.058 116.87 294.405 107.787L261.937 128.838C265.405 134.945 267.082 137.837 269.461 143.826L305.687 130.769Z" stroke="#000000" stroke-opacity="0.1" stroke-width="1"/>
<path d="M312.479 155.259C310.656 145.726 309.436 140.365 305.666 130.769L269.461 143.826C271.658 150.477 272.707 153.7 273.987 160.319L312.479 155.259Z" stroke="#000000" stroke-opacity="0.1" stroke-width="1"/>
<path d="M314.519 181.256C314.642 171.108 314.144 165.416 312.479 155.259L273.987 160.319C275.609 168.616 276.091 173.218 276.019 181.316L314.519 181.256Z" stroke="#000000" stroke-opacity="0.1" stroke-width="1"/>
<path d="M312.058 206.259C313.565 196.681 314.066 191.193 314.519 181.256L276.019 181.316C275.761 189.383 275.385 193.704 274.05 200.819L312.058 206.259Z" stroke="#000000" stroke-opacity="0.1" stroke-width="1"/>
<path d="M305.597 231.27C308.66 221.612 310.097 216.138 312.058 206.26L274.05 200.819C272.628 207.56 271.649 211.284 269.576 217.826L305.597 231.27Z" stroke="#000000" stroke-opacity="0.1" stroke-width="1"/>
<path d="M295.133 253.786C299.463 245.755 301.776 240.878 305.597 231.27L269.576 217.826C267.126 224.033 265.603 227.434 262.601 233.337L295.133 253.786Z" stroke="#000000" stroke-opacity="0.1" stroke-width="1"/>
<path d="M281.165 274.808C287.499 266.574 290.465 261.973 295.133 253.786L262.601 233.337C258.691 240.185 256.202 244.021 251.128 250.855L281.165 274.808Z" stroke="#000000" stroke-opacity="0.1" stroke-width="1"/>
<path d="M264.194 293.334C271.395 286.031 275.105 281.973 281.165 274.808L251.128 250.855C246.223 256.613 243.396 259.703 238.15 264.875L264.194 293.334Z" stroke="#000000" stroke-opacity="0.1" stroke-width="1"/>
<path d="M243.718 308.866C252.164 303.406 256.67 300.023 264.194 293.334L238.15 264.875C233.149 269.445 230.133 271.885 224.167 275.897L243.718 308.866Z" stroke="#000000" stroke-opacity="0.1" stroke-width="1"/>
<path d="M221.736 320.401C230.456 316.621 235.253 314.078 243.718 308.866L224.167 275.897C217.489 279.733 213.682 281.752 206.681 284.924L221.736 320.401Z" stroke="#000000" stroke-opacity="0.1" stroke-width="1"/>
<path d="M197.749 328.438C207.295 326.211 212.514 324.446 221.737 320.401L206.681 284.924C199.568 287.953 195.538 289.453 188.191 291.453L197.749 328.438Z" stroke="#000000" stroke-opacity="0.1" stroke-width="1"/>
<path d="M172.755 332.477C184.132 331.607 189.656 330.745 197.749 328.438L188.191 291.453C180.666 292.874 175.905 293.552 168.196 294.484L172.755 332.477Z" stroke="#000000" stroke-opacity="0.1" stroke-width="1"/>
<path d="M146.755 332.518C157.015 333.25 162.703 333.204 172.755 332.477L168.196 294.484C159.962 294.465 155.704 294.473 148.696 294.515L146.755 332.518Z" stroke="#000000" stroke-opacity="0.1" stroke-width="1"/>
<path d="M122.749 328.555C132.098 331.095 137.354 331.945 146.755 332.518L148.696 294.515C142.684 293.708 139.297 293.109 133.191 291.539L122.749 328.555Z" stroke="#000000" stroke-opacity="0.1" stroke-width="1"/>
<path d="M98.7367 320.593C107.848 324.515 113.087 326.298 122.749 328.555L133.192 292.039C126.083 289.726 122.163 288.311 115.182 285.567L98.7367 320.593Z" stroke="#000000" stroke-opacity="0.1" stroke-width="1"/>
<path d="M76.7179 308.627C85.1988 314.357 90.0377 316.814 98.7366 320.593L115.182 285.567C108.552 282.783 104.815 281.119 98.1687 277.094L76.7179 308.627Z" stroke="#000000" stroke-opacity="0.1" stroke-width="1"/>
<path d="M56.1937 293.159C63.041 299.454 67.5076 302.847 76.7179 308.627L98.1694 277.594C91.6218 272.723 88.4377 270.103 83.6507 265.616L56.1937 293.159Z" stroke="#000000" stroke-opacity="0.1" stroke-width="1"/>
<path d="M39.1649 274.686C45.2937 282.422 48.9942 286.474 56.1938 293.159L83.6508 265.616C78.3263 260.839 75.3664 257.802 70.129 251.637L39.1649 274.686Z" stroke="#000000" stroke-opacity="0.1" stroke-width="1"/>
<path d="M25.6321 253.707C29.9089 262.039 32.8138 266.641 39.1649 274.686L70.1289 251.637C66.7369 246.958 64.5425 243.832 59.104 235.654L25.6321 253.707Z" stroke="#000000" stroke-opacity="0.1" stroke-width="1"/>
<path d="M14.5962 230.724C18.1893 239.66 20.512 244.687 25.6321 253.707L59.1039 235.655C55.3433 228.607 53.6198 224.791 51.0766 218.167L14.5962 230.724Z" stroke="#000000" stroke-opacity="0.1" stroke-width="1"/>
<path d="M8.55722 205.733C9.73871 215.651 11.1055 221.116 14.5963 230.724L51.0767 218.167C48.57 211.133 47.4258 207.098 46.0478 199.675L8.55722 205.733Z" stroke="#000000" stroke-opacity="0.1" stroke-width="1"/>
<path d="M6.01892 181.237C6.604 191.083 7.11958 196.449 8.55718 205.733L46.0478 199.675C44.87 192.865 44.6096 188.896 44.5197 181.677L6.01892 181.237Z" stroke="#000000" stroke-opacity="0.1" stroke-width="1"/>
<path d="M7.47986 156.235C6.42747 166.106 6.10562 171.579 6.0189 181.237L44.5196 181.677C44.3875 174.15 44.5496 169.889 45.4892 162.176L7.47986 156.235Z" stroke="#000000" stroke-opacity="0.1" stroke-width="1"/>
<path d="M12.9416 131.727C10.122 141.287 8.84465 146.652 7.47991 156.235L45.4892 162.176C46.1922 154.873 47.0224 150.828 48.9603 143.67L12.9416 131.727Z" stroke="#000000" stroke-opacity="0.1" stroke-width="1"/>
<path d="M55.4315 125.16L21.4042 107.713C17.1449 117.008 15.293 122.264 13.1152 131.726L48.9604 143.67C51.0639 136.506 52.4423 132.46 55.4315 125.16Z" stroke="#000000" stroke-opacity="0.1" stroke-width="1"/>
<path d="M33.3697 85.6946C27.7598 94.2084 25.1572 99.0295 21.4041 107.713L55.4314 125.16C58.5173 118.112 60.7301 114.168 65.4033 107.145L33.3697 85.6946Z" stroke="#000000" stroke-opacity="0.1" stroke-width="1"/>
<path d="M33.3698 85.6946C38.3178 77.6597 41.567 73.1669 48.3378 65.1712L78.8752 89.1235C72.8211 95.865 69.8542 99.8016 65.4033 107.145L33.8698 85.6938" stroke="#000000" stroke-opacity="0.1" stroke-width="1"/>
<path d="M66.3104 47.643C58.5574 54.3541 54.527 58.1751 48.3378 65.1711L78.8752 89.1235C83.5774 83.5201 86.6933 80.8368 93.0897 75.3281L93.3533 75.1008L66.3104 47.643Z" stroke="#000000" stroke-opacity="0.1" stroke-width="1"/>
<path d="M86.7861 32.1111C77.7317 38.0278 73.2948 41.435 66.3103 47.643L93.3532 75.1009C99.3169 70.3741 103.014 67.7385 110.334 63.0743L86.7861 32.1111Z" stroke="#000000" stroke-opacity="0.1" stroke-width="1"/>
<path d="M108.768 20.5767C99.7833 24.5071 95.0682 27.0194 86.7861 32.1111L110.335 63.0743C116.315 59.6682 120.02 57.8485 126.822 54.8174L108.768 20.5767Z" stroke="#000000" stroke-opacity="0.1" stroke-width="1"/>
<path d="M132.755 12.0392C123.244 14.3936 117.977 16.1602 108.768 20.5767L126.821 54.5485C134.022 51.9674 137.962 50.6386 144.812 48.5204L132.755 12.0392Z" stroke="#000000" stroke-opacity="0.1" stroke-width="1"/>
<path d="M157.247 7.00105C147.256 8.27495 141.916 9.41759 132.755 12.0393L144.812 48.5205C151.91 46.4424 155.851 45.6993 162.806 44.9924L157.247 7.00105Z" stroke="#000000" stroke-opacity="0.1" stroke-width="1"/>
<path d="M185.245 5.45718C174.387 5.22483 168.269 5.47949 157.247 7.0009L162.806 44.9923C171.211 44.0873 175.903 43.9533 184.306 44.4587L185.245 5.45718Z" stroke="#000000" stroke-opacity="0.1" stroke-width="1"/>
</svg>
