<svg width="320" height="340" viewBox="0 0 320 340" fill="none" xmlns="http://www.w3.org/2000/svg">
<path d="M198 179C198 168.507 189.493 160 179 160C168.507 160 160 168.507 160 179" stroke="black"/>
<path d="M122 179C122 200.539 139.013 218 160 218C180.987 218 198 200.539 198 179" stroke="black"/>
<path d="M237 179C237 146.967 211.256 121 179.5 121C147.744 121 122 146.967 122 179" stroke="black"/>
<path d="M84 179C84 221.526 118.25 256 160.5 256C202.75 256 237 221.526 237 179" stroke="black"/>
<path d="M276 179C276 125.981 233.019 83 180 83C126.981 83 84 125.981 84 179" stroke="black"/>
<path d="M44 179C44 243.065 95.935 295 160 295C224.065 295 276 243.065 276 179" stroke="black"/>
<path d="M314 179C314 104.442 253.558 44 179 44C104.442 44 44 104.442 44 179" stroke="black"/>
<path d="M6.00001 179C6.00001 264.052 74.9482 333 160 333C245.052 333 314 264.052 314 179" stroke="black"/>
<path d="M179 5.99999C83.4547 5.99999 6 83.4547 6 179" stroke="black"/>
</svg>
