<svg  class="circs" width="320" height="340" viewBox="0 0 320 340" fill="none" xmlns="http://www.w3.org/2000/svg">
<path d="M160 179C160 168.507 168.507 160 179 160C189.493 160 198 168.507 198 179" stroke="black"/>
<path d="M198 179C198 200.539 180.987 218 160 218C139.013 218 122 200.539 122 179" stroke="black"/>
<path d="M122 179C122 146.967 147.744 121 179.5 121C211.256 121 237 146.967 237 179" stroke="black"/>
<path d="M237 179C237 221.526 202.75 256 160.5 256C118.25 256 84 221.526 84 179" stroke="black"/>
<path d="M84 179C84 125.981 126.981 83 180 83C233.019 83 276 125.981 276 179" stroke="black"/>
<path d="M276 179C276 243.065 224.065 295 160 295C95.935 295 44 243.065 44 179" stroke="black"/>
<path d="M44 179C44 104.442 104.442 44 179 44C253.558 44 314 104.442 314 179" stroke="black"/>
<path d="M314 179C314 264.052 245.052 333 160 333C74.9482 333 6 264.052 6 179" stroke="black"/>
<path d="M6 179C6 83 80 5 185 6" stroke="black"/>
</svg>
