<svg class="ticks" width="320" height="340" viewBox="0 0 320 340" fill="none" xmlns="http://www.w3.org/2000/svg">
<path d="M161.172 175.309C163.477 175.3 166.213 177.819 166.213 178.831C166.213 179.843 163.477 182.383 161.172 182.392C158.866 182.402 159.335 180.814 159.335 178.858C159.335 176.902 158.866 175.318 161.172 175.309Z" fill="black"/>
<path d="M195.132 173.206C193.585 173.772 191.124 172.75 190.874 172.072C190.624 171.394 191.836 169.027 193.384 168.461C194.931 167.894 195.008 169.072 195.491 170.382C195.973 171.692 196.679 172.639 195.132 173.206Z" fill="black"/>
<path d="M192.088 197.196C190.676 196.347 189.927 193.79 190.298 193.17C190.669 192.55 193.272 192.007 194.684 192.856C196.096 193.705 195.228 194.504 194.511 195.702C193.795 196.901 193.501 198.045 192.088 197.196Z" fill="black"/>
<path d="M174.92 213.753C174.042 212.359 174.526 209.738 175.137 209.352C175.747 208.966 178.315 209.655 179.193 211.049C180.071 212.443 178.936 212.765 177.756 213.512C176.576 214.258 175.798 215.147 174.92 213.753Z" fill="black"/>
<path d="M149.802 214.98C150.162 212.703 153.087 210.405 154.086 210.568C155.085 210.73 157.154 213.838 156.793 216.115C156.433 218.392 154.941 217.675 153.01 217.362C151.08 217.048 149.441 217.257 149.802 214.98Z" fill="black"/>
<path d="M130.941 202.567C132.097 201.393 134.759 201.265 135.274 201.77C135.79 202.276 135.707 204.934 134.551 206.108C133.395 207.282 132.822 206.25 131.825 205.273C130.828 204.295 129.785 203.741 130.941 202.567Z" fill="black"/>
<path d="M123.336 180.303C124.978 180.165 127.082 181.799 127.145 182.519C127.207 183.239 125.414 185.202 123.772 185.341C122.131 185.48 122.367 184.324 122.246 182.933C122.126 181.542 121.694 180.442 123.336 180.303Z" fill="black"/>
<path d="M128.044 155.478C129.583 156.064 130.771 158.45 130.515 159.125C130.259 159.801 127.792 160.793 126.253 160.206C124.713 159.62 125.427 158.68 125.922 157.374C126.416 156.069 126.504 154.891 128.044 155.478Z" fill="black"/>
<path d="M144.24 135.286C145.92 136.865 146.172 140.576 145.475 141.31C144.779 142.044 141.045 142.005 139.366 140.425C137.687 138.845 139.12 138.016 140.466 136.597C141.812 135.177 142.561 133.706 144.24 135.286Z" fill="black"/>
<path d="M164.191 124.247C164.797 125.779 163.838 128.265 163.167 128.532C162.496 128.799 160.099 127.648 159.493 126.116C158.887 124.584 160.062 124.477 161.36 123.961C162.657 123.444 163.586 122.714 164.191 124.247Z" fill="black"/>
<path d="M189.235 122.541C189.201 124.188 187.355 126.11 186.633 126.097C185.91 126.083 184.145 124.095 184.179 122.448C184.213 120.8 185.338 121.156 186.734 121.182C188.13 121.208 189.269 120.894 189.235 122.541Z" fill="black"/>
<path d="M211.719 133.089C210.733 134.41 208.114 134.901 207.534 134.47C206.954 134.04 206.673 131.395 207.659 130.075C208.644 128.754 209.352 129.697 210.473 130.53C211.594 131.362 212.704 131.768 211.719 133.089Z" fill="black"/>
<path d="M227.967 152.04C225.998 153.239 222.353 152.497 221.83 151.63C221.307 150.764 222.337 147.175 224.306 145.976C226.275 144.777 226.694 146.378 227.705 148.052C228.716 149.727 229.936 150.841 227.967 152.04Z" fill="black"/>
<path d="M235.183 174.178C233.547 174.371 231.389 172.808 231.302 172.091C231.216 171.374 232.942 169.351 234.578 169.157C236.215 168.964 236.017 170.127 236.184 171.514C236.351 172.9 236.819 173.984 235.183 174.178Z" fill="black"/>
<path d="M233.53 198.678C231.916 198.348 230.358 196.186 230.501 195.478C230.644 194.77 232.918 193.392 234.533 193.722C236.147 194.052 235.594 195.094 235.317 196.463C235.041 197.832 235.144 199.008 233.53 198.678Z" fill="black"/>
<path d="M223.054 221.204C221.658 220.33 220.955 217.759 221.337 217.146C221.719 216.533 224.331 216.038 225.728 216.912C227.125 217.786 226.242 218.569 225.504 219.754C224.765 220.94 224.451 222.078 223.054 221.204Z" fill="black"/>
<path d="M204.233 240.389C202.755 238.62 202.948 234.906 203.727 234.26C204.506 233.614 208.208 234.1 209.686 235.869C211.165 237.638 209.643 238.29 208.138 239.538C206.632 240.787 205.712 242.158 204.233 240.389Z" fill="black"/>
<path d="M183.9 250.763C183.488 249.167 184.748 246.819 185.447 246.637C186.146 246.455 188.382 247.894 188.794 249.489C189.205 251.085 188.026 251.045 186.675 251.397C185.323 251.749 184.312 252.358 183.9 250.763Z" fill="black"/>
<path d="M159.255 254.963C159.138 253.319 160.801 251.237 161.522 251.184C162.242 251.132 164.182 252.951 164.298 254.594C164.415 256.238 163.262 255.986 161.869 256.088C160.477 256.19 159.372 256.606 159.255 254.963Z" fill="black"/>
<path d="M135.426 250.417C135.949 248.854 138.284 247.57 138.97 247.798C139.655 248.026 140.748 250.45 140.224 252.013C139.701 253.575 138.733 252.9 137.408 252.459C136.083 252.019 134.902 251.979 135.426 250.417Z" fill="black"/>
<path d="M113.11 237.064C114.475 235.206 118.127 234.505 118.941 235.107C119.754 235.709 120.168 239.42 118.803 241.279C117.439 243.137 116.442 241.816 114.87 240.652C113.298 239.488 111.746 238.923 113.11 237.064Z" fill="black"/>
<path d="M97.1228 219.969C98.5027 219.069 101.131 219.51 101.527 220.114C101.923 220.719 101.275 223.298 99.8951 224.198C98.5152 225.098 98.1752 223.969 97.4096 222.801C96.6441 221.633 95.7429 220.869 97.1228 219.969Z" fill="black"/>
<path d="M87.423 196.996C89.021 196.594 91.3616 197.868 91.5391 198.568C91.7167 199.269 90.2639 201.496 88.6659 201.897C87.068 202.299 87.1146 201.12 86.7714 199.767C86.4282 198.413 85.825 197.397 87.423 196.996Z" fill="black"/>
<path d="M85.384 172.003C87.0315 172.021 88.971 173.848 88.9646 174.571C88.9582 175.293 86.9866 177.077 85.3391 177.059C83.6915 177.041 84.0366 175.913 84.049 174.516C84.0614 173.12 83.7364 171.984 85.384 172.003Z" fill="black"/>
<path d="M90.6825 147.488C92.9085 148.089 94.8822 151.241 94.6149 152.217C94.3475 153.193 91.0372 154.92 88.8112 154.32C86.5852 153.72 87.4567 152.312 87.9735 150.426C88.4903 148.54 88.4566 146.888 90.6825 147.488Z" fill="black"/>
<path d="M100.808 125.711C102.205 126.584 102.909 129.154 102.528 129.767C102.146 130.381 99.5341 130.878 98.1369 130.004C96.7396 129.131 97.6216 128.348 98.3591 127.162C99.0966 125.976 99.4104 124.837 100.808 125.711Z" fill="black"/>
<path d="M117.524 106.951C118.683 108.122 118.778 110.785 118.266 111.295C117.754 111.804 115.097 111.688 113.938 110.517C112.779 109.346 113.817 108.786 114.808 107.801C115.798 106.817 116.365 105.78 117.524 106.951Z" fill="black"/>
<path d="M138.874 93.0853C139.841 94.419 139.53 97.0656 138.946 97.491C138.362 97.9164 135.755 97.3969 134.787 96.0631C133.82 94.7294 134.931 94.3339 136.06 93.5116C137.188 92.6893 137.907 91.7515 138.874 93.0853Z" fill="black"/>
<path d="M164.326 85.8327C164.818 88.0851 162.928 91.2885 161.939 91.5004C160.949 91.7124 157.892 89.5689 157.4 87.3165C156.908 85.064 158.559 85.1899 160.471 84.7801C162.384 84.3704 163.834 83.5803 164.326 85.8327Z" fill="black"/>
<path d="M188.158 84.4738C188.111 86.1207 186.25 88.0278 185.527 88.0087C184.805 87.9896 183.056 85.9871 183.103 84.3401C183.15 82.6931 184.272 83.0579 185.668 83.0948C187.064 83.1317 188.205 82.8268 188.158 84.4738Z" fill="black"/>
<path d="M212.828 89.6107C212.396 91.2006 210.139 92.6172 209.441 92.429C208.744 92.2409 207.513 89.8835 207.946 88.2936C208.379 86.7038 209.384 87.3219 210.732 87.6856C212.08 88.0493 213.261 88.0209 212.828 89.6107Z" fill="black"/>
<path d="M234.214 100.936C233.29 102.3 230.696 102.911 230.097 102.507C229.498 102.103 229.096 99.4746 230.02 98.1102C230.944 96.7458 231.695 97.6557 232.853 98.436C234.011 99.2163 235.137 99.5714 234.214 100.936Z" fill="black"/>
<path d="M253.372 119.679C251.592 121.144 247.879 120.923 247.239 120.139C246.6 119.355 247.113 115.657 248.893 114.192C250.674 112.727 251.314 114.253 252.551 115.769C253.788 117.284 255.153 118.214 253.372 119.679Z" fill="black"/>
<path d="M265.383 139.154C263.883 139.836 261.352 139.003 261.051 138.346C260.751 137.689 261.78 135.237 263.28 134.555C264.78 133.873 264.946 135.041 265.527 136.311C266.107 137.581 266.883 138.472 265.383 139.154Z" fill="black"/>
<path d="M273.151 163.173C271.514 163.355 269.366 161.777 269.285 161.059C269.204 160.341 270.944 158.33 272.581 158.148C274.219 157.966 274.013 159.128 274.171 160.515C274.328 161.903 274.789 162.991 273.151 163.173Z" fill="black"/>
<path d="M274.72 187.242C273.073 187.21 271.149 185.365 271.162 184.643C271.175 183.921 273.162 182.154 274.809 182.186C276.457 182.219 276.102 183.344 276.077 184.74C276.053 186.136 276.368 187.275 274.72 187.242Z" fill="black"/>
<path d="M268.884 213.106C266.651 212.534 264.637 209.407 264.892 208.427C265.147 207.448 268.435 205.679 270.669 206.251C272.902 206.823 272.049 208.241 271.556 210.134C271.063 212.027 271.118 213.678 268.884 213.106Z" fill="black"/>
<path d="M260.24 235.234C258.792 234.449 257.929 231.928 258.272 231.292C258.615 230.656 261.192 229.998 262.64 230.783C264.089 231.569 263.257 232.405 262.594 233.634C261.931 234.863 261.689 236.019 260.24 235.234Z" fill="black"/>
<path d="M245.544 255.13C244.381 253.963 244.276 251.3 244.787 250.789C245.297 250.278 247.954 250.385 249.117 251.552C250.281 252.719 249.244 253.283 248.257 254.27C247.271 255.258 246.707 256.297 245.544 255.13Z" fill="black"/>
<path d="M227.247 271.979C226.22 270.691 226.409 268.033 226.973 267.581C227.537 267.129 230.166 267.529 231.193 268.817C232.221 270.105 231.128 270.551 230.039 271.424C228.949 272.297 228.275 273.267 227.247 271.979Z" fill="black"/>
<path d="M203.173 284.577C202.18 282.497 203.287 278.947 204.202 278.514C205.116 278.081 208.583 279.469 209.577 281.549C210.571 283.63 208.935 283.885 207.167 284.721C205.399 285.557 204.167 286.658 203.173 284.577Z" fill="black"/>
<path d="M180.669 291.49C180.363 289.871 181.774 287.61 182.483 287.475C183.193 287.339 185.33 288.922 185.636 290.541C185.941 292.16 184.767 292.043 183.396 292.305C182.024 292.567 180.974 293.109 180.669 291.49Z" fill="black"/>
<path d="M156.061 293.699C156.033 292.052 157.806 290.062 158.528 290.048C159.25 290.034 161.089 291.955 161.117 293.603C161.144 295.25 160.007 294.937 158.611 294.963C157.215 294.99 156.088 295.346 156.061 293.699Z" fill="black"/>
<path d="M131.202 290.562C131.451 288.933 133.532 287.269 134.246 287.376C134.96 287.483 136.451 289.685 136.203 291.314C135.954 292.943 134.885 292.443 133.504 292.236C132.124 292.028 130.954 292.191 131.202 290.562Z" fill="black"/>
<path d="M106.782 280.374C107.85 278.331 111.355 277.087 112.25 277.559C113.145 278.032 114.114 281.638 113.046 283.681C111.977 285.724 110.792 284.568 109.063 283.655C107.333 282.742 105.713 282.417 106.782 280.374Z" fill="black"/>
<path d="M86.791 267.909C87.7631 266.579 90.3774 266.062 90.9616 266.487C91.5457 266.912 91.8523 269.554 90.8802 270.884C89.908 272.214 89.1903 271.278 88.0611 270.456C86.9319 269.635 85.8188 269.24 86.791 267.909Z" fill="black"/>
<path d="M69.9688 250.379C71.1969 249.28 73.8614 249.32 74.3442 249.857C74.827 250.394 74.5764 253.042 73.3483 254.14C72.1203 255.239 71.6135 254.173 70.6802 253.134C69.747 252.096 68.7408 251.477 69.9688 250.379Z" fill="black"/>
<path d="M56.1733 228.743C57.6153 227.946 60.2039 228.579 60.5548 229.21C60.9057 229.842 60.0713 232.366 58.6293 233.164C57.1874 233.961 56.9307 232.809 56.2525 231.588C55.5743 230.368 54.7313 229.54 56.1733 228.743Z" fill="black"/>
<path d="M47.802 204.401C50.0166 203.761 53.3387 205.433 53.6161 206.406C53.8935 207.379 51.9584 210.572 49.7437 211.213C47.5291 211.854 47.5447 210.199 47.0085 208.318C46.4723 206.437 45.5873 205.042 47.802 204.401Z" fill="black"/>
<path d="M45.3405 181.041C46.9881 181.022 48.9681 182.806 48.9779 183.528C48.9878 184.25 47.0568 186.079 45.4092 186.097C43.7617 186.116 44.0813 184.981 44.0623 183.584C44.0434 182.188 43.693 181.06 45.3405 181.041Z" fill="black"/>
<path d="M47.0281 155.189C48.6594 155.42 50.3452 157.484 50.2451 158.2C50.145 158.915 47.9585 160.428 46.3273 160.196C44.696 159.965 45.1846 158.891 45.3781 157.508C45.5716 156.125 45.3968 154.957 47.0281 155.189Z" fill="black"/>
<path d="M53.9709 131.456C55.5203 132.017 56.7484 134.382 56.5041 135.061C56.2597 135.741 53.81 136.775 52.2606 136.215C50.7113 135.654 51.4092 134.703 51.8814 133.389C52.3537 132.075 52.4215 130.895 53.9709 131.456Z" fill="black"/>
<path d="M65.7533 107.803C67.8368 108.79 69.2175 112.244 68.7807 113.156C68.3438 114.069 64.7787 115.179 62.6952 114.192C60.6117 113.205 61.7199 111.975 62.5644 110.211C63.4089 108.447 63.6698 106.816 65.7533 107.803Z" fill="black"/>
<path d="M80.2504 88.8497C81.5149 89.906 81.8609 92.5483 81.399 93.1037C80.937 93.6591 78.2814 93.7938 77.0169 92.7374C75.7524 91.6811 76.7334 91.0256 77.6263 89.952C78.5192 88.8784 78.986 87.7934 80.2504 88.8497Z" fill="black"/>
<path d="M98.687 72.011C99.7689 73.2537 99.6934 75.9175 99.1496 76.393C98.6058 76.8685 95.9621 76.5822 94.8803 75.3395C93.7984 74.0968 94.8706 73.6044 95.9218 72.6852C96.973 71.7661 97.6052 70.7683 98.687 72.011Z" fill="black"/>
<path d="M119.979 58.1485C120.886 59.5239 120.458 62.154 119.856 62.5531C119.253 62.9521 116.671 62.3173 115.764 60.9419C114.857 59.5665 115.985 59.2208 117.149 58.4494C118.313 57.6781 119.072 56.7731 119.979 58.1485Z" fill="black"/>
<path d="M144.331 49.7962C144.996 52.0037 143.36 55.3439 142.39 55.6319C141.42 55.9199 138.206 54.0198 137.541 51.8123C136.876 49.6048 138.531 49.6023 140.406 49.0456C142.281 48.4888 143.666 47.5887 144.331 49.7962Z" fill="black"/>
<path d="M168.146 45.3365C168.276 46.979 166.63 49.0748 165.91 49.1333C165.19 49.1918 163.236 47.3884 163.106 45.7459C162.976 44.1034 164.13 44.3457 165.522 44.2326C166.914 44.1196 168.016 43.694 168.146 45.3365Z" fill="black"/>
<path d="M193.239 45.5923C193.153 47.2377 191.247 49.1001 190.525 49.0639C189.804 49.0277 188.102 46.9842 188.188 45.3388C188.275 43.6934 189.388 44.0847 190.782 44.1547C192.177 44.2247 193.325 43.9469 193.239 45.5923Z" fill="black"/>
<path d="M217.826 50.4997C217.471 52.1088 215.287 53.6345 214.581 53.4808C213.875 53.3271 212.531 51.0329 212.885 49.4237C213.239 47.8145 214.273 48.3826 215.637 48.6797C217.002 48.9768 218.18 48.8905 217.826 50.4997Z" fill="black"/>
<path d="M241.557 61.7876C240.557 63.865 237.095 65.2245 236.185 64.782C235.275 64.3395 234.187 60.7676 235.187 58.6903C236.187 56.6129 237.409 57.7287 239.168 58.584C240.927 59.4393 242.557 59.7103 241.557 61.7876Z" fill="black"/>
<path d="M261.197 74.2691C260.138 75.5312 257.495 75.8714 256.94 75.4083C256.386 74.9451 256.257 72.2892 257.316 71.027C258.375 69.7648 259.029 70.7472 260.1 71.6425C261.172 72.5378 262.256 73.0069 261.197 74.2691Z" fill="black"/>
<path d="M280.039 91.6978C278.792 92.7739 276.128 92.6859 275.655 92.1399C275.182 91.5939 275.481 88.9516 276.729 87.8755C277.977 86.7995 278.464 87.8739 279.378 88.9294C280.292 89.9849 281.287 90.6218 280.039 91.6978Z" fill="black"/>
<path d="M294.531 112.103C293.067 112.859 290.497 112.153 290.165 111.512C289.832 110.871 290.738 108.371 292.202 107.615C293.666 106.859 293.89 108.018 294.533 109.257C295.176 110.496 295.995 111.347 294.531 112.103Z" fill="black"/>
<path d="M305.343 136.272C303.213 137.155 299.726 135.862 299.343 134.925C298.959 133.989 300.528 130.601 302.658 129.718C304.788 128.836 304.956 130.482 305.697 132.292C306.439 134.102 307.473 135.39 305.343 136.272Z" fill="black"/>
<path d="M311.358 158.202C309.73 158.459 307.513 156.98 307.399 156.266C307.285 155.553 308.932 153.465 310.559 153.209C312.187 152.952 312.035 154.122 312.255 155.501C312.476 156.88 312.985 157.946 311.358 158.202Z" fill="black"/>
<path d="M312.675 183.215C311.028 183.169 309.119 181.31 309.137 180.588C309.156 179.866 311.157 178.114 312.804 178.16C314.451 178.205 314.087 179.328 314.052 180.724C314.016 182.119 314.322 183.26 312.675 183.215Z" fill="black"/>
<path d="M309.565 208.528C307.935 208.289 306.259 206.217 306.362 205.502C306.466 204.787 308.659 203.284 310.289 203.524C311.919 203.763 311.426 204.835 311.226 206.217C311.026 207.599 311.195 208.768 309.565 208.528Z" fill="black"/>
<path d="M301.718 233.396C299.561 232.583 297.901 229.255 298.262 228.309C298.622 227.364 302.084 225.965 304.242 226.778C306.399 227.59 305.396 228.907 304.699 230.734C304.002 232.562 303.876 234.209 301.718 233.396Z" fill="black"/>
<path d="M292.154 255.174C290.712 254.377 289.87 251.849 290.218 251.216C290.566 250.583 293.148 249.946 294.59 250.743C296.032 251.54 295.194 252.37 294.521 253.593C293.848 254.817 293.596 255.971 292.154 255.174Z" fill="black"/>
<path d="M277.856 276.212C276.55 275.207 276.098 272.58 276.538 272.007C276.977 271.434 279.625 271.193 280.931 272.198C282.237 273.203 281.283 273.897 280.434 275.005C279.584 276.114 279.161 277.217 277.856 276.212Z" fill="black"/>
<path d="M260.378 294.053C259.291 292.815 259.354 290.151 259.896 289.673C260.438 289.195 263.083 289.469 264.17 290.707C265.257 291.945 264.187 292.442 263.14 293.366C262.093 294.29 261.465 295.29 260.378 294.053Z" fill="black"/>
<path d="M239.06 309.284C237.661 307.451 238.017 303.749 238.823 303.138C239.63 302.527 243.307 303.175 244.707 305.007C246.106 306.839 244.557 307.424 242.998 308.605C241.439 309.786 240.459 311.116 239.06 309.284Z" fill="black"/>
<path d="M217.645 320.524C216.893 319.058 217.605 316.49 218.247 316.159C218.889 315.828 221.387 316.74 222.139 318.206C222.891 319.672 221.732 319.893 220.491 320.533C219.25 321.173 218.397 321.99 217.645 320.524Z" fill="black"/>
<path d="M193.866 327.723C193.47 326.124 194.752 323.788 195.453 323.613C196.154 323.438 198.376 324.898 198.772 326.498C199.168 328.097 197.989 328.046 196.634 328.385C195.279 328.723 194.262 329.323 193.866 327.723Z" fill="black"/>
<path d="M169.6 331.746C169.556 330.099 171.31 328.093 172.032 328.072C172.754 328.052 174.611 329.955 174.655 331.602C174.698 333.249 173.558 332.946 172.162 332.986C170.766 333.026 169.643 333.393 169.6 331.746Z" fill="black"/>
<path d="M143.043 331.041C143.097 328.736 145.689 326.068 146.7 326.096C147.712 326.123 150.177 328.928 150.124 331.232C150.071 333.537 148.496 333.026 146.541 332.973C144.586 332.92 142.99 333.345 143.043 331.041Z" fill="black"/>
<path d="M119.286 326.52C119.638 324.91 121.821 323.382 122.527 323.535C123.233 323.687 124.581 325.98 124.229 327.589C123.877 329.199 122.842 328.632 121.477 328.337C120.112 328.042 118.934 328.13 119.286 326.52Z" fill="black"/>
<path d="M96.4974 318.346C97.1087 316.816 99.5128 315.666 100.184 315.933C100.856 316.2 101.809 318.682 101.197 320.212C100.586 321.742 99.6581 321.013 98.3603 320.498C97.0625 319.983 95.8861 319.876 96.4974 318.346Z" fill="black"/>
<path d="M74.7892 305.913C75.7592 304.581 78.3727 304.06 78.9575 304.484C79.5424 304.908 79.8532 307.549 78.8832 308.881C77.9133 310.213 77.194 309.277 76.0635 308.458C74.933 307.638 73.8193 307.245 74.7892 305.913Z" fill="black"/>
<path d="M54.3282 288.561C55.9605 286.932 59.6773 286.798 60.389 287.517C61.1008 288.237 60.9427 291.967 59.3103 293.595C57.678 295.224 56.8946 293.765 55.5188 292.375C54.143 290.985 52.6958 290.189 54.3282 288.561Z" fill="black"/>
<path d="M38.0191 271.341C39.2715 270.271 41.9345 270.37 42.405 270.918C42.8756 271.466 42.5654 274.107 41.313 275.178C40.0605 276.249 39.5778 275.172 38.6682 274.113C37.7586 273.053 36.7666 272.412 38.0191 271.341Z" fill="black"/>
<path d="M24.1067 249.708C25.5432 248.9 28.1361 249.515 28.4914 250.144C28.8466 250.773 28.0298 253.303 26.5934 254.111C25.1569 254.918 24.8923 253.768 24.2057 252.552C23.519 251.336 22.6703 250.515 24.1067 249.708Z" fill="black"/>
<path d="M14.2523 226.287C15.7913 225.698 18.2665 226.685 18.5259 227.36C18.7854 228.034 17.6072 230.418 16.0682 231.006C14.5292 231.594 14.4356 230.418 13.9341 229.115C13.4327 227.812 12.7132 226.875 14.2523 226.287Z" fill="black"/>
<path d="M8.84025 201.978C11.1019 201.531 14.2673 203.484 14.4597 204.477C14.6521 205.47 12.4486 208.485 10.187 208.932C7.92526 209.38 8.08366 207.732 7.71178 205.812C7.3399 203.891 6.57857 202.425 8.84025 201.978Z" fill="black"/>
<path d="M7.38463 177.518C9.03219 177.536 10.972 179.363 10.9657 180.086C10.9594 180.808 8.98812 182.593 7.34056 182.575C5.693 182.557 6.03786 181.428 6.05003 180.032C6.0622 178.636 5.73707 177.5 7.38463 177.518Z" fill="black"/>
<path d="M8.78642 152.123C10.4272 152.273 12.2134 154.251 12.1489 154.97C12.0844 155.69 9.97579 157.31 8.33503 157.159C6.69427 157.008 7.12893 155.912 7.25358 154.521C7.37823 153.13 7.14567 151.972 8.78642 152.123Z" fill="black"/>
<path d="M14.4978 128.32C16.0978 128.713 17.5699 130.934 17.3991 131.636C17.2282 132.338 14.902 133.626 13.3019 133.233C11.7019 132.84 12.2949 131.82 12.6251 130.463C12.9553 129.107 12.8977 127.927 14.4978 128.32Z" fill="black"/>
<path d="M24.2844 103.618C26.4017 104.531 27.9042 107.933 27.5 108.861C27.0958 109.788 23.5724 111.024 21.4552 110.112C19.338 109.199 20.4018 107.931 21.1831 106.138C21.9643 104.345 22.1672 102.706 24.2844 103.618Z" fill="black"/>
<path d="M35.6707 82.7329C37.068 83.6061 37.7725 86.1761 37.391 86.7896C37.0094 87.403 34.3972 87.9 33 87.0268C31.6028 86.1536 32.4847 85.3699 33.2222 84.1842C33.9597 82.9984 34.2735 81.8597 35.6707 82.7329Z" fill="black"/>
<path d="M51.0365 63.3069C52.2534 64.427 52.4851 67.0854 52 67.617C51.5149 68.1485 48.8578 68.148 47.6409 67.0279C46.4239 65.9077 47.4315 65.3025 48.3691 64.275C49.3068 63.2475 49.8195 62.1867 51.0365 63.3069Z" fill="black"/>
<path d="M69.3141 45.7296C70.3884 46.9929 70.3013 49.6604 69.7564 50.1276C69.2116 50.5947 66.5743 50.2633 65.5 49C64.4257 47.7366 65.498 47.2614 66.5512 46.3583C67.6044 45.4552 68.2398 44.4663 69.3141 45.7296Z" fill="black"/>
<path d="M91.5633 31.2483C92.8323 33.2058 92.2408 36.8892 91.4017 37.4332C90.5626 37.9771 86.9586 37.0137 85.6895 35.0561C84.4205 33.0986 85.9934 32.6442 87.6154 31.5927C89.2374 30.5412 90.2942 29.2908 91.5633 31.2483Z" fill="black"/>
<path d="M112.876 20.4653C113.594 21.9697 112.834 24.5232 112.19 24.8304C111.545 25.1376 109.082 24.1199 108.364 22.6155C107.646 21.1111 108.802 20.9356 110.048 20.3419C111.294 19.7481 112.159 18.9609 112.876 20.4653Z" fill="black"/>
<path d="M136.447 12.8717C136.935 14.4653 135.807 16.8786 135.124 17.0874C134.441 17.2962 132.155 15.9269 131.666 14.3333C131.178 12.7398 132.348 12.7366 133.668 12.333C134.988 11.9294 135.959 11.2782 136.447 12.8717Z" fill="black"/>
<path d="M161 8.63031C161.142 10.2906 159.532 12.4135 158.82 12.4744C158.108 12.5353 156.16 10.717 156.018 9.05668C155.876 7.39641 157.02 7.63854 158.396 7.5208C159.772 7.40306 160.858 6.97004 161 8.63031Z" fill="black"/>
<path d="M187.401 7.99999C187.401 10.3329 184.901 13.1018 183.901 13.1018C182.901 13.1018 180.401 10.3329 180.401 7.99999C180.401 5.66711 181.968 6.14145 183.901 6.14145C185.834 6.14145 187.401 5.66711 187.401 7.99999Z" fill="black"/>
</svg>
