<svg class="ticks" width="320" height="340" viewBox="0 0 320 340" fill="none" xmlns="http://www.w3.org/2000/svg">
<path d="M24.2844 103.618C26.4017 104.531 27.9042 107.933 27.5 108.861C27.0958 109.788 23.5724 111.024 21.4552 110.112C19.338 109.199 20.4018 107.931 21.1831 106.138C21.9643 104.345 22.1672 102.706 24.2844 103.618Z" fill="black"/>
<path d="M35.6707 82.7329C37.068 83.6061 37.7725 86.1761 37.391 86.7896C37.0094 87.403 34.3972 87.9 33 87.0268C31.6028 86.1536 32.4847 85.3699 33.2222 84.1842C33.9597 82.9984 34.2735 81.8597 35.6707 82.7329Z" fill="black"/>
<path d="M51.0365 63.3069C52.2534 64.427 52.4851 67.0854 52 67.617C51.5149 68.1485 48.8578 68.148 47.6409 67.0279C46.4239 65.9077 47.4315 65.3025 48.3691 64.275C49.3068 63.2475 49.8195 62.1867 51.0365 63.3069Z" fill="black"/>
<path d="M69.3141 45.7296C70.3884 46.9929 70.3013 49.6604 69.7564 50.1276C69.2116 50.5947 66.5743 50.2633 65.5 49C64.4257 47.7366 65.498 47.2614 66.5512 46.3583C67.6044 45.4552 68.2398 44.4663 69.3141 45.7296Z" fill="black"/>
<path d="M91.5633 31.2483C92.8323 33.2058 92.2408 36.8892 91.4017 37.4332C90.5626 37.9771 86.9586 37.0137 85.6895 35.0561C84.4205 33.0986 85.9934 32.6442 87.6154 31.5927C89.2374 30.5412 90.2942 29.2908 91.5633 31.2483Z" fill="black"/>
<path d="M112.876 20.4653C113.594 21.9697 112.834 24.5232 112.19 24.8304C111.545 25.1376 109.082 24.1199 108.364 22.6155C107.646 21.1111 108.802 20.9356 110.048 20.3419C111.294 19.7481 112.159 18.9609 112.876 20.4653Z" fill="black"/>
<path d="M136.447 12.8717C136.935 14.4653 135.807 16.8786 135.124 17.0874C134.441 17.2962 132.155 15.9269 131.666 14.3333C131.178 12.7398 132.348 12.7366 133.668 12.333C134.988 11.9294 135.959 11.2782 136.447 12.8717Z" fill="black"/>
<path d="M161 8.63031C161.142 10.2906 159.532 12.4135 158.82 12.4744C158.108 12.5353 156.16 10.717 156.018 9.05668C155.876 7.39641 157.02 7.63854 158.396 7.5208C159.772 7.40306 160.858 6.97004 161 8.63031Z" fill="black"/>
<path d="M187.401 7.99999C187.401 10.3329 184.901 13.1018 183.901 13.1018C182.901 13.1018 180.401 10.3329 180.401 7.99999C180.401 5.66711 181.968 6.14145 183.901 6.14145C185.834 6.14145 187.401 5.66711 187.401 7.99999Z" fill="black"/>
</svg>
