<svg width="43" height="28" viewBox="0 0 43 28" fill="none" xmlns="http://www.w3.org/2000/svg">
<path d="M2.5 0.499999C1.61063 4.91124 0.970388 11.0117 0.499989 14C0.499989 17.5 0.307055 22.3542 0.999991 27.2296L41.2533 27.2296C40.7925 25.1589 41.0938 21 41.2533 19C41.4561 16.4585 42.2263 11.4619 42.4998 10.5L2.5 0.499999Z" fill="#D9D9D9" fill-opacity="0.01"/>
<path d="M2.5 0.499999C1.61063 4.91124 0.970388 11.0117 0.499989 14C0.499989 17.5 0.307055 22.3542 0.999991 27.2296L41.2533 27.2296C40.7925 25.1589 41.0938 21 41.2533 19C41.4561 16.4585 42.2263 11.4619 42.4998 10.5L2.5 0.499999Z" fill="#D9D9D9" fill-opacity="0.01"/>
<path d="M2.5 0.499999C1.61063 4.91124 0.970388 11.0117 0.499989 14C0.499989 17.5 0.307055 22.3542 0.999991 27.2296L41.2533 27.2296C40.7925 25.1589 41.0938 21 41.2533 19C41.4561 16.4585 42.2263 11.4619 42.4998 10.5L2.5 0.499999Z" fill="#D9D9D9" fill-opacity="0.01"/>
<path d="M2.5 0.499999C1.61063 4.91124 0.970388 11.0117 0.499989 14C0.499989 17.5 0.307055 22.3542 0.999991 27.2296L41.2533 27.2296C40.7925 25.1589 41.0938 21 41.2533 19C41.4561 16.4585 42.2263 11.4619 42.4998 10.5L2.5 0.499999Z" fill="#D9D9D9" fill-opacity="0.01"/>
<path d="M2.5 0.499999C1.61063 4.91124 0.970388 11.0117 0.499989 14C0.499989 17.5 0.307055 22.3542 0.999991 27.2296L41.2533 27.2296C40.7925 25.1589 41.0938 21 41.2533 19C41.4561 16.4585 42.2263 11.4619 42.4998 10.5L2.5 0.499999Z" stroke="black" stroke-opacity="0.3" stroke-width="0.5"/>
</svg>
