<svg width="39" height="45" viewBox="0 0 39 45" fill="none" xmlns="http://www.w3.org/2000/svg">
<path d="M16 45C20.145 43.4655 25.5179 40.2293 28 38.5C31.3283 36.3885 35.7091 32.6014 39.0001 29.4999L10.5 0.5C8.93761 1.84497 7.49997 2.99997 5.99997 4.49997C4.49998 5.5 1.48535 7.47174 0.499969 7.99997L16 45Z" fill="#D9D9D9" fill-opacity="0.01"/>
<path d="M16 45C20.145 43.4655 25.5179 40.2293 28 38.5C31.3283 36.3885 35.7091 32.6014 39.0001 29.4999L10.5 0.5C8.93761 1.84497 7.49997 2.99997 5.99997 4.49997C4.49998 5.5 1.48535 7.47174 0.499969 7.99997L16 45Z" fill="#D9D9D9" fill-opacity="0.01"/>
<path d="M16 45C20.145 43.4655 25.5179 40.2293 28 38.5C31.3283 36.3885 35.7091 32.6014 39.0001 29.4999L10.5 0.5C8.93761 1.84497 7.49997 2.99997 5.99997 4.49997C4.49998 5.5 1.48535 7.47174 0.499969 7.99997L16 45Z" fill="#D9D9D9" fill-opacity="0.01"/>
<path d="M16 45C20.145 43.4655 25.5179 40.2293 28 38.5C31.3283 36.3885 35.7091 32.6014 39.0001 29.4999L10.5 0.5C8.93761 1.84497 7.49997 2.99997 5.99997 4.49997C4.49998 5.5 1.48535 7.47174 0.499969 7.99997L16 45Z" fill="#D9D9D9" fill-opacity="0.01"/>
<path d="M16 45C20.145 43.4655 25.5179 40.2293 28 38.5C31.3283 36.3885 35.7091 32.6014 39.0001 29.4999L10.5 0.5C8.93761 1.84497 7.49997 2.99997 5.99997 4.49997C4.49998 5.5 1.48535 7.47174 0.499969 7.99997L16 45Z" stroke="black" stroke-opacity="0.3" stroke-width="0.5"/>
</svg>
