<svg width="29" height="44" viewBox="0 0 29 44" fill="none" xmlns="http://www.w3.org/2000/svg">
<path d="M2.50018 44C6.91566 43.8019 14.0089 42.1075 16.9 41.217C20.7134 40.2205 24.9202 38.9507 28.9999 36.9999L13.5 -2.18963e-09C11.602 0.804781 8.95845 2.38652 7.00018 2.99996C5.00018 3.49996 0.997131 4.42197 0.000176937 4.49996L2.50018 44Z" fill="#D9D9D9" fill-opacity="0.01"/>
<path d="M2.50018 44C6.91566 43.8019 14.0089 42.1075 16.9 41.217C20.7134 40.2205 24.9202 38.9507 28.9999 36.9999L13.5 -2.18963e-09C11.602 0.804781 8.95845 2.38652 7.00018 2.99996C5.00018 3.49996 0.997131 4.42197 0.000176937 4.49996L2.50018 44Z" fill="#D9D9D9" fill-opacity="0.01"/>
<path d="M2.50018 44C6.91566 43.8019 14.0089 42.1075 16.9 41.217C20.7134 40.2205 24.9202 38.9507 28.9999 36.9999L13.5 -2.18963e-09C11.602 0.804781 8.95845 2.38652 7.00018 2.99996C5.00018 3.49996 0.997131 4.42197 0.000176937 4.49996L2.50018 44Z" fill="#D9D9D9" fill-opacity="0.01"/>
<path d="M2.50018 44C6.91566 43.8019 14.0089 42.1075 16.9 41.217C20.7134 40.2205 24.9202 38.9507 28.9999 36.9999L13.5 -2.18963e-09C11.602 0.804781 8.95845 2.38652 7.00018 2.99996C5.00018 3.49996 0.997131 4.42197 0.000176937 4.49996L2.50018 44Z" fill="#D9D9D9" fill-opacity="0.01"/>
<path d="M2.50018 44C6.91566 43.8019 14.0089 42.1075 16.9 41.217C20.7134 40.2205 24.9202 38.9507 28.9999 36.9999L13.5 -2.18963e-09C11.602 0.804781 8.95845 2.38652 7.00018 2.99996C5.00018 3.49996 0.997131 4.42197 0.000176937 4.49996L2.50018 44Z" stroke="black" stroke-opacity="0.3" stroke-width="0.5"/>
</svg>
