<svg width="45" height="32" viewBox="0 0 45 32" fill="none" xmlns="http://www.w3.org/2000/svg">
<path d="M36.0002 32C38.2083 28.1712 40.9566 20.1581 41.761 17.2419C42.9722 13.4911 43.9502 10.8387 44.5002 6.35018L5 2.82019e-07C4.65751 2.03291 3.86893 4.78212 3.00017 6.5C2.57968 7.53595 0.920655 10.9641 0.500165 12L36.0002 32Z" fill="#D9D9D9" fill-opacity="0.01"/>
<path d="M36.0002 32C38.2083 28.1712 40.9566 20.1581 41.761 17.2419C42.9722 13.4911 43.9502 10.8387 44.5002 6.35018L5 2.82019e-07C4.65751 2.03291 3.86893 4.78212 3.00017 6.5C2.57968 7.53595 0.920655 10.9641 0.500165 12L36.0002 32Z" fill="#D9D9D9" fill-opacity="0.01"/>
<path d="M36.0002 32C38.2083 28.1712 40.9566 20.1581 41.761 17.2419C42.9722 13.4911 43.9502 10.8387 44.5002 6.35018L5 2.82019e-07C4.65751 2.03291 3.86893 4.78212 3.00017 6.5C2.57968 7.53595 0.920655 10.9641 0.500165 12L36.0002 32Z" fill="#D9D9D9" fill-opacity="0.01"/>
<path d="M36.0002 32C38.2083 28.1712 40.9566 20.1581 41.761 17.2419C42.9722 13.4911 43.9502 10.8387 44.5002 6.35018L5 2.82019e-07C4.65751 2.03291 3.86893 4.78212 3.00017 6.5C2.57968 7.53595 0.920655 10.9641 0.500165 12L36.0002 32Z" fill="#D9D9D9" fill-opacity="0.01"/>
<path d="M36.0002 32C38.2083 28.1712 40.9566 20.1581 41.761 17.2419C42.9722 13.4911 43.9502 10.8387 44.5002 6.35018L5 2.82019e-07C4.65751 2.03291 3.86893 4.78212 3.00017 6.5C2.57968 7.53595 0.920655 10.9641 0.500165 12L36.0002 32Z" stroke="black" stroke-opacity="0.3" stroke-width="0.5"/>
</svg>
