<svg width="45" height="41" viewBox="0 0 45 41" fill="none" xmlns="http://www.w3.org/2000/svg">
<path d="M29.0029 40.5C32.4359 37.7161 36.8955 32.1462 38.691 29.7116C41.1653 26.6434 42.8787 23.9938 44.9998 20L9.5 -6.03439e-08C8.4521 1.77537 6.87849 4.88757 5.50004 6.49998C4.19218 8.0298 2 10.5 0.500036 11.5L29.0029 40.5Z" fill="#D9D9D9" fill-opacity="0.01"/>
<path d="M29.0029 40.5C32.4359 37.7161 36.8955 32.1462 38.691 29.7116C41.1653 26.6434 42.8787 23.9938 44.9998 20L9.5 -6.03439e-08C8.4521 1.77537 6.87849 4.88757 5.50004 6.49998C4.19218 8.0298 2 10.5 0.500036 11.5L29.0029 40.5Z" fill="#D9D9D9" fill-opacity="0.01"/>
<path d="M29.0029 40.5C32.4359 37.7161 36.8955 32.1462 38.691 29.7116C41.1653 26.6434 42.8787 23.9938 44.9998 20L9.5 -6.03439e-08C8.4521 1.77537 6.87849 4.88757 5.50004 6.49998C4.19218 8.0298 2 10.5 0.500036 11.5L29.0029 40.5Z" fill="#D9D9D9" fill-opacity="0.01"/>
<path d="M29.0029 40.5C32.4359 37.7161 36.8955 32.1462 38.691 29.7116C41.1653 26.6434 42.8787 23.9938 44.9998 20L9.5 -6.03439e-08C8.4521 1.77537 6.87849 4.88757 5.50004 6.49998C4.19218 8.0298 2 10.5 0.500036 11.5L29.0029 40.5Z" fill="#D9D9D9" fill-opacity="0.01"/>
<path d="M29.0029 40.5C32.4359 37.7161 36.8955 32.1462 38.691 29.7116C41.1653 26.6434 42.8787 23.9938 44.9998 20L9.5 -6.03439e-08C8.4521 1.77537 6.87849 4.88757 5.50004 6.49998C4.19218 8.0298 2 10.5 0.500036 11.5L29.0029 40.5Z" stroke="black" stroke-opacity="0.3" stroke-width="0.5"/>
</svg>
