<svg width="45" height="27" viewBox="0 0 45 27" fill="none" xmlns="http://www.w3.org/2000/svg">
<path d="M0 23.5001C0.299722 18.4671 2.01701 13.9993 4.84306 9.99524C7.6691 5.9912 11.5259 2.98643 15.9257 1.36088C20.3255 -0.264663 26.5 -0.499994 31 1.00002C35.3514 2.45049 42 6.49998 44.5 11L8.5 26.5L0 23.5001Z" fill="#D9D9D9" fill-opacity="0.01"/>
<path d="M8.49097 26.2317L0.261417 23.3272C0.589167 18.4216 2.2807 14.0592 5.04731 10.1394C7.84558 6.17472 11.6622 3.20259 16.0124 1.59539C20.3629 -0.0119467 26.4788 -0.243532 30.9209 1.23719C33.0712 1.95394 35.7999 3.31728 38.3013 5.0615C40.7146 6.74427 42.8936 8.76581 44.1437 10.8812L8.49097 26.2317Z" stroke="black" stroke-opacity="0.3" stroke-width="0.5"/>
</svg>
