<svg width="35" height="43" viewBox="0 0 35 43" fill="none" xmlns="http://www.w3.org/2000/svg">
<path d="M4.71738e-05 33.5C3.60329 36.0598 9.17283 38.4239 12 39.5C15.5 40.5 20 41.5 24.5592 42.5001L34.5 4.5C32.5085 3.9671 29.9214 3.72087 28 3.00003C25.5001 2.50002 23.3341 1.05176 22.5 0.500028L4.71738e-05 33.5Z" fill="#D9D9D9" fill-opacity="0.01"/>
<path d="M4.71738e-05 33.5C3.60329 36.0598 9.17283 38.4239 12 39.5C15.5 40.5 20 41.5 24.5592 42.5001L34.5 4.5C32.5085 3.9671 29.9214 3.72087 28 3.00003C25.5001 2.50002 23.3341 1.05176 22.5 0.500028L4.71738e-05 33.5Z" fill="#D9D9D9" fill-opacity="0.01"/>
<path d="M4.71738e-05 33.5C3.60329 36.0598 9.17283 38.4239 12 39.5C15.5 40.5 20 41.5 24.5592 42.5001L34.5 4.5C32.5085 3.9671 29.9214 3.72087 28 3.00003C25.5001 2.50002 23.3341 1.05176 22.5 0.500028L4.71738e-05 33.5Z" fill="#D9D9D9" fill-opacity="0.01"/>
<path d="M4.71738e-05 33.5C3.60329 36.0598 9.17283 38.4239 12 39.5C15.5 40.5 20 41.5 24.5592 42.5001L34.5 4.5C32.5085 3.9671 29.9214 3.72087 28 3.00003C25.5001 2.50002 23.3341 1.05176 22.5 0.500028L4.71738e-05 33.5Z" fill="#D9D9D9" fill-opacity="0.01"/>
<path d="M4.71738e-05 33.5C3.60329 36.0598 9.17283 38.4239 12 39.5C15.5 40.5 20 41.5 24.5592 42.5001L34.5 4.5C32.5085 3.9671 29.9214 3.72087 28 3.00003C25.5001 2.50002 23.3341 1.05176 22.5 0.500028L4.71738e-05 33.5Z" stroke="black" stroke-opacity="0.3" stroke-width="0.5"/>
</svg>
