<svg width="390" height="390" viewBox="0 0 390 390" fill="none" xmlns="http://www.w3.org/2000/svg" xmlns:xlink="http://www.w3.org/1999/xlink">
<defs><filter id="shadow">
    <feComposite operator='over' in='shadow' in2='SourceGraphic' />
</filter></defs>
<path style="filter: url(#shadow);" d="M181 197C183.5 174 211.5 172 218 188.5L181 197Z"                                                                                      fill="transparent" fill-opacity="0" stroke="black" stroke-opacity="0.1" stroke-width="0.5" />
<path d="M218 188.5L181 197L216 214C220.382 204.19 221.088 198.618 218 188.5Z"                                                                 fill="transparent" fill-opacity="0" stroke="black" stroke-opacity="0.1" stroke-width="0.5" />
<path d="M216 214L181 197L198 231.5C206.214 227.394 210.224 223.703 216 214Z"                                                                  fill="transparent" fill-opacity="0" stroke="black" stroke-opacity="0.1" stroke-width="0.5" />
<path d="M198 231.5C188.911 235.513 183.458 236.358 173 235L181 197Z"                                                                          fill="transparent" fill-opacity="0" stroke="black" stroke-opacity="0.1" stroke-width="0.5" />
<path d="M173 235L181 197L152 222.5C159.474 229.769 164.085 232.45 173 235Z"                                                                   fill="transparent" fill-opacity="0" stroke="black" stroke-opacity="0.1" stroke-width="0.5" />
<path d="M152 222.5C145.696 213.745 143.436 208.733 143 199.5L181 197L152 222.5Z"                                                              fill="transparent" fill-opacity="0" stroke="black" stroke-opacity="0.1" stroke-width="0.5" />
<path d="M147 175C143.568 184.44 142.747 189.8 143 199.5L181 197C181.375 193.865 181.787 192.112 183 189L147 175Z"                             fill="transparent" fill-opacity="0" stroke="black" stroke-opacity="0.1" stroke-width="0.5" />
<path d="M161.5 154C154.278 161.63 150.998 166.188 147 175L183 189C184.66 185.713 185.958 184.16 189 182L161.5 154Z"                           fill="transparent" fill-opacity="0" stroke="black" stroke-opacity="0.1" stroke-width="0.5" />
<path d="M183.5 142C173.652 144.897 168.777 147.458 161.5 154L189 182C191.202 179.842 192.565 179.359 195.5 178.5L183.5 142Z"                  fill="transparent" fill-opacity="0" stroke="black" stroke-opacity="0.1" stroke-width="0.5" />
<path d="M208.5 139.5C198.764 138.381 193.288 139.181 183.5 142L195.5 178.5C199.399 177.532 201.589 177.457 205.5 178L208.5 139.5Z"            fill="transparent" fill-opacity="0" stroke="black" stroke-opacity="0.1" stroke-width="0.5" />
<path d="M208.5 139.5L205.5 178L211 180L232 148.5C223.446 142.917 218.328 140.471 208.5 139.5Z"                                                fill="transparent" fill-opacity="0" stroke="black" stroke-opacity="0.1" stroke-width="0.5" />
<path d="M249.5 166.5C243.966 157.976 240.246 153.911 232 148.5L211 180C213.954 182.454 215.181 183.889 217 186.5L249.5 166.5Z"                fill="transparent" fill-opacity="0" stroke="black" stroke-opacity="0.1" stroke-width="0.5" />
<path d="M258 190C256.344 180.684 254.621 175.527 249.5 166.5L217 186.5C218.56 189.596 219.063 191.35 219.5 194.5L258 190Z"                    fill="transparent" fill-opacity="0" stroke="black" stroke-opacity="0.1" stroke-width="0.5" />
<path d="M256.5 215.5C258.722 205.472 258.409 199.936 258 190L219.5 194.5C220.086 199.222 219.892 201.715 219 206L256.5 215.5Z"                fill="transparent" fill-opacity="0" stroke="black" stroke-opacity="0.1" stroke-width="0.5" />
<path d="M246.5 238.5C251.363 230.091 253.698 225.563 256.5 215.5L219 206C218.508 209.334 215.872 214.594 214 217.5L246.5 238.5Z"              fill="transparent" fill-opacity="0" stroke="black" stroke-opacity="0.1" stroke-width="0.5" />
<path d="M229 257.5C236.792 251.303 240.579 247.08 246.5 238.5L214 217.5C211.077 221.532 209.241 223.628 205.5 227L229 257.5Z"                 fill="transparent" fill-opacity="0" stroke="black" stroke-opacity="0.1" stroke-width="0.5" />
<path d="M207 270C216.103 266.372 220.884 263.546 229 257.5L205.5 227C201.484 229.744 199.143 231.151 194.5 233L207 270Z"                      fill="transparent" fill-opacity="0" stroke="black" stroke-opacity="0.1" stroke-width="0.5" />
<path d="M182.5 274C192.079 274.084 197.442 273.154 207 270L194.5 233C190.282 234.582 187.889 235.227 183.5 235.5L182.5 274Z"                  fill="transparent" fill-opacity="0" stroke="black" stroke-opacity="0.1" stroke-width="0.5" />
<path d="M157.5 270.5C167.315 273.509 172.785 274.169 182.5 274L183.5 235.5C178.538 235.777 175.812 235.533 171 234.5L157.5 270.5Z"            fill="transparent" fill-opacity="0" stroke="black" stroke-opacity="0.1" stroke-width="0.5" />
<path d="M135 259C143.029 264.824 147.987 267.295 157.5 270.5L171 234.5C165.438 232.502 162.577 231.104 158 228L135 259Z"                      fill="transparent" fill-opacity="0" stroke="black" stroke-opacity="0.1" stroke-width="0.5" />
<path d="M117.5 241C123.183 249.093 127.049 253.006 135 259L158 228C154.075 224.98 152.315 223.124 150 219.5L117.5 241Z"                       fill="transparent" fill-opacity="0" stroke="black" stroke-opacity="0.1" stroke-width="0.5" />
<path d="M107 218C109.725 227.264 112.135 232.277 117.5 241L150 219.5C147.119 215.653 145.861 213.28 144.5 208.5L107 218Z"                     fill="transparent" fill-opacity="0" stroke="black" stroke-opacity="0.1" stroke-width="0.5" />
<path d="M104 193.5C103.791 204.146 104.546 209.434 107 218L144.5 208.5C143.238 203.801 142.767 201.103 143 196L104 193.5Z"                    fill="transparent" fill-opacity="0" stroke="black" stroke-opacity="0.1" stroke-width="0.5" />
<path d="M108 168C105.469 177.924 104.642 183.509 104 193.5L143 196C143.009 190.093 143.521 186.599 145.5 180L108 168Z"                        fill="transparent" fill-opacity="0" stroke="black" stroke-opacity="0.1" stroke-width="0.5" />
<path d="M119 146C113.533 154.244 111.047 159.035 108 168L145.5 180C147.038 174.536 148.374 171.584 151.5 166.5L119 146Z"                      fill="transparent" fill-opacity="0" stroke="black" stroke-opacity="0.1" stroke-width="0.5" />
<path d="M135 126.5C127.145 133.813 123.501 138.057 119 146L151.5 166.5C154.72 161.421 157.017 158.856 161.5 154.5L135 126.5Z"                 fill="transparent" fill-opacity="0" stroke="black" stroke-opacity="0.1" stroke-width="0.5" />
<path d="M156 112C147.083 116.485 142.451 119.595 135 126.5L161.5 154.5C165.09 150.6 167.357 148.522 173 145.5L156 112Z"                       fill="transparent" fill-opacity="0" stroke="black" stroke-opacity="0.1" stroke-width="0.5" />
<path d="M180 103C170.092 105.174 164.83 107.113 156 112L173 145.5C179.179 143.228 182.566 142.121 188.5 140.5L180 103Z"                       fill="transparent" fill-opacity="0" stroke="black" stroke-opacity="0.1" stroke-width="0.5" />
<path d="M204.5 100.5C194.487 100.358 189.095 100.86 180 103L188.5 140.5C194.049 139.319 197.236 139.072 203 139L204.5 100.5Z"                 fill="transparent" fill-opacity="0" stroke="black" stroke-opacity="0.1" stroke-width="0.5" />
<path d="M229.276 105C219.92 102.025 214.474 101.107 204.5 100.5L203 139C209.881 139.102 211.22 139.85 218.5 141.5L229.276 105Z"               fill="transparent" fill-opacity="0" stroke="black" stroke-opacity="0.1" stroke-width="0.5" />
<path d="M252 115.5C243.433 110.598 238.461 108.084 229.28 105L218.5 141.5C224.12 143.631 227.047 145.211 232 148.5L252 115.5Z"                fill="transparent" fill-opacity="0" stroke="black" stroke-opacity="0.1" stroke-width="0.5" />
<path d="M271.742 132C264.832 124.606 260.454 121.06 252 115.5L232 148.5C237.124 151.885 239.637 154.083 243.5 158.5L271.742 132Z"             fill="transparent" fill-opacity="0" stroke="black" stroke-opacity="0.1" stroke-width="0.5" />
<path d="M286 152.5C281.551 144.207 278.566 139.729 271.74 132L243.5 158.5C247.03 162.664 248.635 164.965 251 169L286 152.5Z"                  fill="transparent" fill-opacity="0" stroke="black" stroke-opacity="0.1" stroke-width="0.5" />
<path d="M294.5 176.5C292.482 166.907 290.698 161.639 286 152.5L251 169C253.779 174.71 254.948 177.882 256.5 183.5L294.5 176.5Z"               fill="transparent" fill-opacity="0" stroke="black" stroke-opacity="0.1" stroke-width="0.5" />
<path d="M296.828 202.255C297.166 192.027 296.92 186.371 294.5 176.5L256.5 183.5C258.313 190.825 258.772 193.177 258.5 200.5L296.828 202.255Z" fill="transparent" fill-opacity="0" stroke="black" stroke-opacity="0.1" stroke-width="0.5" />
<path d="M293 227.5C295.393 217.879 296.211 212.347 296.83 202.25L258.5 200.5C258.228 206.672 257.78 209.95 256.5 215.5L293 227.5Z"            fill="transparent" fill-opacity="0" stroke="black" stroke-opacity="0.1" stroke-width="0.5" />
<path d="M284 250.5C288.236 241.807 290.221 236.78 293 227.5L256.5 215.5C254.611 222.367 253.227 226.104 250 232.5L284 250.5Z"                 fill="transparent" fill-opacity="0" stroke="black" stroke-opacity="0.1" stroke-width="0.5" />
<path d="M269.5 271.5C275.999 263.975 279.235 259.426 284 250.5L250 232.5C247.167 237.839 245.289 240.673 241.5 245.5L269.5 271.5Z"            fill="transparent" fill-opacity="0" stroke="black" stroke-opacity="0.1" stroke-width="0.5" />
<path d="M251.5 289C259.121 283.431 263.042 279.614 269.5 271.5L241.5 245.5C236.911 250.648 234.156 253.247 229 257.5L251.5 289Z"              fill="transparent" fill-opacity="0" stroke="black" stroke-opacity="0.1" stroke-width="0.5" />
<path d="M229.5 302C238.796 298.007 243.623 295.185 251.5 289L229 257.5C223.048 262.135 219.552 264.42 213 267.45L229.5 302Z"                  fill="transparent" fill-opacity="0" stroke="black" stroke-opacity="0.1" stroke-width="0.5" />
<path d="M206 310C215.464 308.082 220.591 306.248 229.5 302L213 267.5C207.728 269.904 204.587 271.042 198.5 272.5L206 310Z"                    fill="transparent" fill-opacity="0" stroke="black" stroke-opacity="0.1" stroke-width="0.5" />
<path d="M181 312.5C190.632 312.464 196.299 311.912 206 310L198.5 272.5C192.434 273.728 187.046 274.084 181 274V312.5Z"                        fill="transparent" fill-opacity="0" stroke="black" stroke-opacity="0.1" stroke-width="0.5" />
<path d="M155.5 310C165.479 312.217 171.062 312.656 181 312.5V274C173.798 274.155 171.745 273.744 164.5 272.5L155.5 310Z"                      fill="transparent" fill-opacity="0" stroke="black" stroke-opacity="0.1" stroke-width="0.5" />
<path d="M131 301.5C140.544 305.553 145.913 307.335 155.5 310L164.5 272.5C158.397 271.28 155.105 270.208 149.5 267.5L131 301.5Z"               fill="transparent" fill-opacity="0" stroke="black" stroke-opacity="0.1" stroke-width="0.5" />
<path d="M110.5 288.5C117.446 294.265 121.885 297.141 131 301.5L149.5 267.5C144.055 264.737 140.872 262.885 135 259L110.5 288.5Z"              fill="transparent" fill-opacity="0" stroke="black" stroke-opacity="0.1" stroke-width="0.5" />
<path d="M92 271C98.5558 278.242 102.561 282.099 110.5 288.5L135 259C129.114 254.826 126.299 252.186 122 247L92 271Z"                          fill="transparent" fill-opacity="0" stroke="black" stroke-opacity="0.1" stroke-width="0.5" />
<path d="M78 250C82.8597 258.36 85.908 262.964 92 271L122 247C117.76 241.978 115.896 238.985 113 233.5L78 250Z"                                fill="transparent" fill-opacity="0" stroke="black" stroke-opacity="0.1" stroke-width="0.5" />
<path d="M69 226C71.8441 235.382 73.7943 240.637 78 250L113 233.5C110.074 227.47 108.821 224.073 107 218L69 226Z"                              fill="transparent" fill-opacity="0" stroke="black" stroke-opacity="0.1" stroke-width="0.5" />
<path d="M65.5 201.5C66.2005 211.156 66.5431 216.524 69 226L107 218C105.163 211.212 104.479 207.28 104 200L65.5 201.5Z"                        fill="transparent" fill-opacity="0" stroke="black" stroke-opacity="0.1" stroke-width="0.5" />
<path d="M67 176.31C65.6202 186.09 65.3626 191.611 65.5 201.5L104 200C103.751 193.506 103.803 189.886 104.75 183.5L67 176.31Z"                 fill="transparent" fill-opacity="0" stroke="black" stroke-opacity="0.1" stroke-width="0.5" />
<path d="M73 152C69.6799 161.442 68.3855 166.802 67 176.5L105 183.5C105.887 176.897 106.689 173.172 108.5 166.5L73 152Z"                       fill="transparent" fill-opacity="0" stroke="black" stroke-opacity="0.1" stroke-width="0.5" />
<path d="M84 129C78.7049 137.487 76.2576 142.515 73 152L108.5 166.5C111.1 159.092 112.991 155.668 117 149L84 129Z"                             fill="transparent" fill-opacity="0" stroke="black" stroke-opacity="0.1" stroke-width="0.5" />
<path d="M128 133.5L98.5 108.5C92.043 116.439 88.765 120.919 84 129L117 149C120.592 142.881 122.964 139.487 128 133.5Z"                        fill="transparent" fill-opacity="0" stroke="black" stroke-opacity="0.1" stroke-width="0.5" />
<path d="M117 91C109.205 97.1218 105.104 100.897 98.5 108.5L128 133.5C132.83 128.158 135.791 125.426 141.5 121L117 91Z"                        fill="transparent" fill-opacity="0" stroke="black" stroke-opacity="0.1" stroke-width="0.5" />
<path d="M138 77.5C129.492 81.8783 124.886 84.8081 117 91L141.5 121C146.572 116.911 149.703 114.95 156 112L138 77.5Z"                          fill="transparent" fill-opacity="0" stroke="black" stroke-opacity="0.1" stroke-width="0.5" />
<path d="M162 67.7339C152.549 70.6011 147.299 72.8017 138 77.5L156 112C163.033 108.121 167.114 106.229 174.5 104.25L162 67.7339Z"              fill="transparent" fill-opacity="0" stroke="black" stroke-opacity="0.1" stroke-width="0.5" />
<path d="M186 63C176.428 63.4794 171.192 64.4313 162 67.73L174.5 104.25C180.314 102.862 183.608 101.996 189.5 101L186 63Z"                     fill="transparent" fill-opacity="0" stroke="black" stroke-opacity="0.1" stroke-width="0.5" />
<path d="M211.5 62.5C201.546 61.8432 195.946 61.9377 186 63L189.5 101C197.063 100.324 201.299 100.347 208.863 101L211.5 62.5Z"                 fill="transparent" fill-opacity="0" stroke="black" stroke-opacity="0.1" stroke-width="0.5" />
<path d="M236.5 67C227.011 64.2224 221.597 63.2278 211.5 62.5L209 101C215.942 101.264 219.769 101.981 226.5 104L236.5 67Z"                     fill="transparent" fill-opacity="0" stroke="black" stroke-opacity="0.1" stroke-width="0.5" />
<path d="M260 76C251.17 71.8156 246.072 69.8341 236.5 67L226.5 104C233.647 106.183 237.743 107.72 243.859 111L260 76Z"                         fill="transparent" fill-opacity="0" stroke="black" stroke-opacity="0.1" stroke-width="0.5" />
<path d="M281.5 89C273.942 83.1459 269.203 80.3307 260 76L244 111C249.721 113.899 252.906 115.832 258.5 120L281.5 89Z"                         fill="transparent" fill-opacity="0" stroke="black" stroke-opacity="0.1" stroke-width="0.5" />
<path d="M300 106C293.283 98.7916 289.254 95.043 281.5 89L258.5 120C263.986 124.161 266.809 126.614 271 131.379L300 106Z"                      fill="transparent" fill-opacity="0" stroke="black" stroke-opacity="0.1" stroke-width="0.5" />
<path d="M315.5 126C310.007 117.724 306.69 113.279 300 106L271 131.263C276.841 137.834 279.639 141.183 283 147.13L315.5 126Z"                  fill="transparent" fill-opacity="0" stroke="black" stroke-opacity="0.1" stroke-width="0.5" />
<path d="M326.746 149C323.505 140.119 321.139 135.092 315.5 126L283 147C286.458 153.113 288.13 156.007 290.5 162L326.746 149Z"                 fill="transparent" fill-opacity="0" stroke="black" stroke-opacity="0.1" stroke-width="0.5" />
<path d="M333.5 173.5C331.692 163.964 330.48 158.602 326.725 149L290.5 162C292.687 168.655 293.731 171.879 295 178.5L333.5 173.5Z"             fill="transparent" fill-opacity="0" stroke="black" stroke-opacity="0.1" stroke-width="0.5" />
<path d="M335.5 199.5C335.639 189.353 335.149 183.66 333.5 173.5L295 178.5C296.609 186.8 297.084 191.402 297 199.5H335.5Z"                     fill="transparent" fill-opacity="0" stroke="black" stroke-opacity="0.1" stroke-width="0.5" />
<path d="M333 224.5C334.522 214.924 335.031 209.437 335.5 199.5H297C296.729 207.567 296.346 211.887 295 219L333 224.5Z"                        fill="transparent" fill-opacity="0" stroke="black" stroke-opacity="0.1" stroke-width="0.5" />
<path d="M326.5 249.5C329.578 239.847 331.023 234.375 333 224.5L295 219C293.568 225.739 292.583 229.461 290.5 236L326.5 249.5Z"                fill="transparent" fill-opacity="0" stroke="black" stroke-opacity="0.1" stroke-width="0.5" />
<path d="M316 272C320.343 263.976 322.664 259.103 326.5 249.5L290.5 236C288.04 242.203 286.512 245.602 283.5 251.5L316 272Z"                   fill="transparent" fill-opacity="0" stroke="black" stroke-opacity="0.1" stroke-width="0.5" />
<path d="M302 293C308.346 284.776 311.32 280.18 316 272L283.5 251.5C279.58 258.342 277.085 262.174 272 269L302 293Z"                           fill="transparent" fill-opacity="0" stroke="black" stroke-opacity="0.1" stroke-width="0.5" />
<path d="M285 311.5C292.212 304.208 295.928 300.156 302 293L272 269C267.086 274.751 264.254 277.836 259 283L285 311.5Z"                        fill="transparent" fill-opacity="0" stroke="black" stroke-opacity="0.1" stroke-width="0.5" />
<path d="M264.5 327C272.954 321.553 277.465 318.177 285 311.5L259 283C253.992 287.562 250.972 289.998 245 294L264.5 327Z"                      fill="transparent" fill-opacity="0" stroke="black" stroke-opacity="0.1" stroke-width="0.5" />
<path d="M242.5 338.5C251.225 334.734 256.026 332.199 264.5 327L245 294C238.316 297.826 234.506 299.839 227.5 303L242.5 338.5Z"                fill="transparent" fill-opacity="0" stroke="black" stroke-opacity="0.1" stroke-width="0.5" />
<path d="M218.5 346.5C228.049 344.288 233.271 342.531 242.5 338.5L227.5 303C220.382 306.018 216.35 307.511 209 309.5L218.5 346.5Z"             fill="transparent" fill-opacity="0" stroke="black" stroke-opacity="0.1" stroke-width="0.5" />
<path d="M193.5 350.5C204.878 349.648 210.403 348.794 218.5 346.5L209 309.5C201.473 310.909 196.71 311.58 189 312.5L193.5 350.5Z"              fill="transparent" fill-opacity="0" stroke="black" stroke-opacity="0.1" stroke-width="0.5" />
<path d="M167.5 350.5C177.759 351.248 183.447 351.211 193.5 350.5L189 312.5C180.766 312.468 176.508 312.469 169.5 312.5L167.5 350.5Z"          fill="transparent" fill-opacity="0" stroke="black" stroke-opacity="0.1" stroke-width="0.5" />
<path d="M143.5 346.5C152.845 349.054 158.1 349.913 167.5 350.5L169.5 312.5C163.489 311.684 160.103 311.08 154 309.5L143.5 346.5Z"             fill="transparent" fill-opacity="0" stroke="black" stroke-opacity="0.1" stroke-width="0.5" />
<path d="M119.5 338.5C128.605 342.436 133.841 344.228 143.5 346.5L154 310C146.895 307.676 142.977 306.255 136 303.5L119.5 338.5Z"              fill="transparent" fill-opacity="0" stroke="black" stroke-opacity="0.1" stroke-width="0.5" />
<path d="M97.5 326.5C105.972 332.243 110.807 334.708 119.5 338.5L136 303.5C129.374 300.706 125.64 299.036 119 295L97.5 326.5Z"                 fill="transparent" fill-opacity="0" stroke="black" stroke-opacity="0.1" stroke-width="0.5" />
<path d="M77 311C83.8375 317.306 88.2988 320.706 97.5 326.5L119 295.5C112.46 290.619 109.28 287.994 104.5 283.5L77 311Z"                       fill="transparent" fill-opacity="0" stroke="black" stroke-opacity="0.1" stroke-width="0.5" />
<path d="M60 292.5C66.1167 300.246 69.8108 304.304 77 311L104.5 283.5C99.1829 278.714 96.2278 275.673 91 269.5L60 292.5Z"                      fill="transparent" fill-opacity="0" stroke="black" stroke-opacity="0.1" stroke-width="0.5" />
<path d="M46.5 271.5C50.7638 279.839 53.6615 284.445 60 292.5L91 269.5C87.6153 264.815 85.4258 261.686 80 253.5L46.5 271.5Z"                   fill="transparent" fill-opacity="0" stroke="black" stroke-opacity="0.1" stroke-width="0.5" />
<path d="M35.5 248.5C39.0792 257.441 41.394 262.472 46.5 271.5L80 253.5C76.2504 246.447 74.5328 242.628 72 236L35.5 248.5Z"                    fill="transparent" fill-opacity="0" stroke="black" stroke-opacity="0.1" stroke-width="0.5" />
<path d="M29.5 223.5C30.666 233.419 32.0243 238.887 35.5 248.5L72 236C69.5043 228.962 68.3664 224.925 67 217.5L29.5 223.5Z"                    fill="transparent" fill-opacity="0" stroke="black" stroke-opacity="0.1" stroke-width="0.5" />
<path d="M27 199C27.5697 208.847 28.0769 214.213 29.5 223.5L67 217.5C65.8329 210.688 65.5787 206.719 65.5 199.5L27 199Z"                       fill="transparent" fill-opacity="0" stroke="black" stroke-opacity="0.1" stroke-width="0.5" />
<path d="M28.5 174C27.4322 183.869 27.1018 189.342 27 199L65.5 199.5C65.3796 191.973 65.5484 187.712 66.5 180L28.5 174Z"                       fill="transparent" fill-opacity="0" stroke="black" stroke-opacity="0.1" stroke-width="0.5" />
<path d="M34 149.5C31.1654 159.056 29.8797 164.419 28.5 174L66.5 180C67.2144 172.698 68.0509 168.655 70 161.5L34 149.5Z"                       fill="transparent" fill-opacity="0" stroke="black" stroke-opacity="0.1" stroke-width="0.5" />
<path d="M76.5001 143L42.5001 125.5C38.2262 134.788 36.3661 140.041 34.1736 149.5L70.0001 161.5C72.1148 154.339 73.4995 150.295 76.5001 143Z"  fill="transparent" fill-opacity="0" stroke="black" stroke-opacity="0.1" stroke-width="0.5" />
<path d="M54.5 103.5C48.8768 112.005 46.2667 116.822 42.5 125.5L76.5 143C79.5969 135.957 81.8159 132.016 86.5 125L54.5 103.5Z"                 fill="transparent" fill-opacity="0" stroke="black" stroke-opacity="0.1" stroke-width="0.5" />
<path d="M54.5 103.5C59.4606 95.4729 62.7168 90.9852 69.5 83L100 107C93.9354 113.732 90.9623 117.664 86.5 125L55 103.5"                        fill="transparent" fill-opacity="0" stroke="black" stroke-opacity="0.1" stroke-width="0.5" />
<path d="M87.5 65.5C79.7365 72.199 75.7002 76.0137 69.5 83L100 107C104.711 101.404 107.831 98.7256 114.236 93.2268L114.5 93L87.5 65.5Z"        fill="transparent" fill-opacity="0" stroke="black" stroke-opacity="0.1" stroke-width="0.5" />
<path d="M108 50C98.9364 55.9026 94.4941 59.3029 87.5 65.5L114.5 93C120.471 88.2826 124.172 85.6527 131.5 81L108 50Z"                          fill="transparent" fill-opacity="0" stroke="black" stroke-opacity="0.1" stroke-width="0.5" />
<path d="M130 38.5C121.009 42.4163 116.29 44.9213 108 50L131.5 81C137.486 77.6032 141.194 75.7893 148 72.7688L130 38.5Z"                       fill="transparent" fill-opacity="0" stroke="black" stroke-opacity="0.1" stroke-width="0.5" />
<path d="M154 30C144.485 32.3396 139.216 34.0979 130 38.5L148 72.5C155.205 69.9301 159.147 68.6075 166 66.5L154 30Z"                           fill="transparent" fill-opacity="0" stroke="black" stroke-opacity="0.1" stroke-width="0.5" />
<path d="M178.5 25C168.507 26.2583 163.165 27.3926 154 30L166 66.5C173.101 64.433 177.044 63.696 184 63L178.5 25Z"                             fill="transparent" fill-opacity="0" stroke="black" stroke-opacity="0.1" stroke-width="0.5" />
<path d="M206.5 23.5C195.643 23.2507 189.524 23.4958 178.5 25L184 63C192.406 62.1082 197.098 61.9815 205.5 62.5L206.5 23.5Z"                   fill="transparent" fill-opacity="0" stroke="black" stroke-opacity="0.1" stroke-width="0.5" />
</svg>
